<svg xmlns="http://www.w3.org/2000/svg" height="650pt" version="1.1" viewBox="0 -10 650.001 650" width="650pt">
<g id="surface1">
<path d="M 482.257812 178.226562 L 10.484375 178.226562 L 10.484375 450.804688 L 639.515625 450.804688 L 639.515625 178.226562 Z M 251.613281 314.515625 L 167.742188 314.515625 L 167.742188 251.613281 C 167.742188 240.035156 177.128906 230.644531 188.710938 230.644531 L 230.644531 230.644531 C 242.222656 230.644531 251.613281 240.035156 251.613281 251.613281 Z M 366.933594 356.453125 C 366.933594 379.613281 348.160156 398.386719 325 398.386719 L 283.0625 398.386719 L 283.0625 230.644531 L 314.515625 230.644531 C 337.675781 230.644531 366.933594 249.421875 366.933594 272.582031 Z M 482.257812 293.546875 C 482.257812 305.128906 472.867188 314.515625 461.289062 314.515625 L 398.386719 314.515625 L 398.386719 230.644531 L 461.289062 230.644531 C 472.867188 230.644531 482.257812 240.035156 482.257812 251.613281 Z M 482.257812 293.546875 " style=" stroke:none;fill-rule:nonzero;fill:rgb(74.509804%,54.509804%,86.27451%);fill-opacity:1;" />
<path d="M 230.644531 230.644531 L 188.710938 230.644531 C 177.128906 230.644531 167.742188 240.035156 167.742188 251.613281 L 167.742188 314.515625 L 251.613281 314.515625 L 251.613281 251.613281 C 251.613281 240.035156 242.222656 230.644531 230.644531 230.644531 Z M 230.644531 230.644531 " style=" stroke:none;fill-rule:nonzero;fill:rgb(74.509804%,54.509804%,86.27451%);fill-opacity:1;" />
<path d="M 314.515625 230.644531 L 283.0625 230.644531 L 283.0625 398.386719 L 325 398.386719 C 348.160156 398.386719 366.933594 379.613281 366.933594 356.453125 L 366.933594 272.582031 C 366.933594 249.421875 337.675781 230.644531 314.515625 230.644531 Z M 314.515625 230.644531 " style=" stroke:none;fill-rule:nonzero;fill:rgb(74.509804%,54.509804%,86.27451%);fill-opacity:1;" />
<path d="M 461.289062 230.644531 L 398.386719 230.644531 L 398.386719 314.515625 L 461.289062 314.515625 C 472.867188 314.515625 482.257812 305.128906 482.257812 293.546875 L 482.257812 251.613281 C 482.257812 240.035156 472.867188 230.644531 461.289062 230.644531 Z M 461.289062 230.644531 " style=" stroke:none;fill-rule:nonzero;fill:rgb(74.509804%,54.509804%,86.27451%);fill-opacity:1;" />
<path d="M 167.742188 450.804688 L 482.257812 450.804688 L 482.257812 503.226562 L 167.742188 503.226562 Z M 167.742188 450.804688 " style=" stroke:none;fill-rule:nonzero;fill:rgb(91.372549%,84.705882%,95.294118%);fill-opacity:1;" />
<path d="M 167.742188 125.804688 L 482.257812 125.804688 L 482.257812 178.226562 L 167.742188 178.226562 Z M 167.742188 125.804688 " style=" stroke:none;fill-rule:nonzero;fill:rgb(91.372549%,84.705882%,95.294118%);fill-opacity:1;" />
<path d="M 209.675781 83.871094 L 440.320312 83.871094 L 440.320312 104.839844 L 209.675781 104.839844 Z M 209.675781 83.871094 " style=" stroke:none;fill-rule:nonzero;fill:rgb(13.72549%,12.156863%,12.54902%);fill-opacity:1;" />
<path d="M 241.128906 52.417969 L 408.871094 52.417969 L 408.871094 73.386719 L 241.128906 73.386719 Z M 241.128906 52.417969 " style=" stroke:none;fill-rule:nonzero;fill:rgb(13.72549%,12.156863%,12.54902%);fill-opacity:1;" />
<path d="M 209.675781 524.195312 L 440.320312 524.195312 L 440.320312 545.160156 L 209.675781 545.160156 Z M 209.675781 524.195312 " style=" stroke:none;fill-rule:nonzero;fill:rgb(13.72549%,12.156863%,12.54902%);fill-opacity:1;" />
<path d="M 241.128906 555.644531 L 408.871094 555.644531 L 408.871094 576.613281 L 241.128906 576.613281 Z M 241.128906 555.644531 " style=" stroke:none;fill-rule:nonzero;fill:rgb(13.72549%,12.156863%,12.54902%);fill-opacity:1;" />
<path d="M 649.820312 177.34375 C 649.757812 176.632812 649.613281 175.929688 649.402344 175.25 C 649.230469 174.617188 648.992188 174 648.699219 173.414062 C 648.398438 172.847656 648.046875 172.3125 647.652344 171.808594 C 647.214844 171.238281 646.714844 170.71875 646.164062 170.257812 C 645.933594 170.058594 645.808594 169.785156 645.554688 169.617188 L 545.160156 99.375 L 545.160156 10.484375 C 545.160156 4.695312 540.464844 0 534.675781 0 L 115.320312 0 C 109.53125 0 104.839844 4.695312 104.839844 10.484375 L 104.839844 99.378906 L 4.476562 169.617188 C 4.222656 169.785156 4.097656 170.058594 3.867188 170.257812 C 3.316406 170.71875 2.816406 171.242188 2.378906 171.808594 C 1.980469 172.3125 1.632812 172.847656 1.332031 173.414062 C 1.035156 174 0.800781 174.617188 0.628906 175.25 C 0.414062 175.929688 0.273438 176.632812 0.210938 177.347656 C 0.125 177.636719 0.0546875 177.929688 0 178.226562 L 0 450.804688 C 0 456.597656 4.695312 461.289062 10.484375 461.289062 L 104.839844 461.289062 L 104.839844 618.546875 C 104.839844 624.339844 109.53125 629.03125 115.324219 629.03125 L 534.679688 629.03125 C 540.46875 629.03125 545.160156 624.339844 545.160156 618.546875 L 545.160156 461.289062 L 639.515625 461.289062 C 645.308594 461.289062 650 456.597656 650 450.804688 L 650 178.226562 C 649.957031 177.929688 649.894531 177.636719 649.820312 177.34375 Z M 606.261719 167.742188 L 545.160156 167.742188 L 545.160156 124.976562 Z M 524.191406 20.96875 L 524.191406 167.742188 L 492.742188 167.742188 L 492.742188 125.804688 C 492.742188 120.015625 488.046875 115.324219 482.257812 115.324219 L 167.742188 115.324219 C 161.949219 115.324219 157.257812 120.015625 157.257812 125.804688 L 157.257812 167.742188 L 125.804688 167.742188 L 125.804688 20.96875 Z M 178.226562 167.742188 L 178.226562 136.289062 L 471.773438 136.289062 L 471.773438 167.742188 Z M 104.839844 167.742188 L 43.738281 167.742188 L 104.839844 124.976562 Z M 524.191406 608.066406 L 125.804688 608.066406 L 125.804688 461.289062 L 157.257812 461.289062 L 157.257812 503.226562 C 157.257812 509.015625 161.949219 513.710938 167.742188 513.710938 L 482.257812 513.710938 C 488.046875 513.710938 492.742188 509.015625 492.742188 503.226562 L 492.742188 461.289062 L 524.191406 461.289062 Z M 471.773438 461.289062 L 471.773438 492.742188 L 178.226562 492.742188 L 178.226562 461.289062 Z M 629.03125 440.324219 L 20.96875 440.324219 L 20.96875 188.710938 L 629.03125 188.710938 Z M 629.03125 440.324219 " style=" stroke:none;fill-rule:nonzero;fill:rgb(13.72549%,12.156863%,12.54902%);fill-opacity:1;" />
<path d="M 230.644531 220.160156 L 188.710938 220.160156 C 171.339844 220.160156 157.257812 234.242188 157.257812 251.613281 L 157.257812 398.386719 C 157.257812 404.175781 161.949219 408.871094 167.742188 408.871094 C 173.53125 408.871094 178.226562 404.175781 178.226562 398.386719 L 178.226562 325 L 241.128906 325 L 241.128906 398.386719 C 241.128906 404.175781 245.820312 408.871094 251.613281 408.871094 C 257.402344 408.871094 262.097656 404.175781 262.097656 398.386719 L 262.097656 251.613281 C 262.097656 234.242188 248.015625 220.160156 230.644531 220.160156 Z M 178.226562 304.03125 L 178.226562 251.613281 C 178.226562 245.824219 182.917969 241.128906 188.710938 241.128906 L 230.644531 241.128906 C 236.433594 241.128906 241.128906 245.824219 241.128906 251.613281 L 241.128906 304.03125 Z M 178.226562 304.03125 " style=" stroke:none;fill-rule:nonzero;fill:rgb(13.72549%,12.156863%,12.54902%);fill-opacity:1;" />
<path d="M 314.515625 220.160156 L 283.0625 220.160156 C 277.273438 220.160156 272.578125 224.855469 272.578125 230.644531 L 272.578125 398.386719 C 272.578125 404.175781 277.273438 408.871094 283.0625 408.871094 L 325 408.871094 C 353.933594 408.835938 377.382812 385.386719 377.417969 356.453125 L 377.417969 272.582031 C 377.417969 243.070312 343.597656 220.160156 314.515625 220.160156 Z M 356.449219 356.453125 C 356.449219 373.820312 342.371094 387.902344 325 387.902344 L 293.546875 387.902344 L 293.546875 241.128906 L 314.515625 241.128906 C 332.828125 241.128906 356.449219 256.382812 356.449219 272.582031 Z M 356.449219 356.453125 " style=" stroke:none;fill-rule:nonzero;fill:rgb(13.72549%,12.156863%,12.54902%);fill-opacity:1;" />
<path d="M 461.289062 220.160156 L 398.386719 220.160156 C 392.597656 220.160156 387.902344 224.855469 387.902344 230.644531 L 387.902344 398.386719 C 387.902344 404.175781 392.597656 408.871094 398.386719 408.871094 C 404.175781 408.871094 408.871094 404.175781 408.871094 398.386719 L 408.871094 325 L 461.289062 325 C 478.660156 325 492.742188 310.917969 492.742188 293.546875 L 492.742188 251.613281 C 492.742188 234.242188 478.660156 220.160156 461.289062 220.160156 Z M 471.773438 293.546875 C 471.773438 299.339844 467.078125 304.03125 461.289062 304.03125 L 408.871094 304.03125 L 408.871094 241.128906 L 461.289062 241.128906 C 467.078125 241.128906 471.773438 245.824219 471.773438 251.613281 Z M 471.773438 293.546875 " style=" stroke:none;fill-rule:nonzero;fill:rgb(13.72549%,12.156863%,12.54902%);fill-opacity:1;" />
</g>
</svg>