<svg xmlns="http://www.w3.org/2000/svg" height="650pt" version="1.1" viewBox="0 -10 650.001 650" width="650pt">
<g id="surface1">
<path d="M 482.257812 178.226562 L 10.484375 178.226562 L 10.484375 450.804688 L 639.515625 450.804688 L 639.515625 178.226562 Z M 272.578125 314.515625 L 188.710938 314.515625 L 188.710938 251.613281 C 188.710938 240.035156 198.097656 230.644531 209.675781 230.644531 L 251.613281 230.644531 C 263.191406 230.644531 272.578125 240.035156 272.578125 251.613281 Z M 387.902344 314.515625 L 304.03125 314.515625 L 304.03125 398.386719 L 304.03125 230.644531 L 304.03125 314.515625 Z M 461.289062 398.386719 C 438.128906 398.386719 419.355469 379.613281 419.355469 356.453125 L 419.355469 272.582031 C 419.355469 249.421875 438.128906 230.648438 461.289062 230.648438 C 438.128906 230.648438 419.355469 249.421875 419.355469 272.582031 L 419.355469 356.453125 C 419.355469 379.613281 438.128906 398.386719 461.289062 398.386719 Z M 461.289062 398.386719 " style=" stroke:none;fill-rule:nonzero;fill:rgb(40%,65.490196%,96.470588%);fill-opacity:1;" />
<path d="M 251.613281 230.644531 L 209.675781 230.644531 C 198.097656 230.644531 188.710938 240.035156 188.710938 251.613281 L 188.710938 314.515625 L 272.578125 314.515625 L 272.578125 251.613281 C 272.578125 240.035156 263.191406 230.644531 251.613281 230.644531 Z M 251.613281 230.644531 " style=" stroke:none;fill-rule:nonzero;fill:rgb(40%,65.490196%,96.470588%);fill-opacity:1;" />
<path d="M 167.742188 450.804688 L 482.257812 450.804688 L 482.257812 503.226562 L 167.742188 503.226562 Z M 167.742188 450.804688 " style=" stroke:none;fill-rule:nonzero;fill:rgb(80%,88.627451%,98.823529%);fill-opacity:1;" />
<path d="M 167.742188 125.804688 L 482.257812 125.804688 L 482.257812 178.226562 L 167.742188 178.226562 Z M 167.742188 125.804688 " style=" stroke:none;fill-rule:nonzero;fill:rgb(80%,88.627451%,98.823529%);fill-opacity:1;" />
<path d="M 209.675781 83.871094 L 440.320312 83.871094 L 440.320312 104.839844 L 209.675781 104.839844 Z M 209.675781 83.871094 " style=" stroke:none;fill-rule:nonzero;fill:rgb(13.72549%,12.156863%,12.54902%);fill-opacity:1;" />
<path d="M 241.128906 52.417969 L 408.871094 52.417969 L 408.871094 73.386719 L 241.128906 73.386719 Z M 241.128906 52.417969 " style=" stroke:none;fill-rule:nonzero;fill:rgb(13.72549%,12.156863%,12.54902%);fill-opacity:1;" />
<path d="M 209.675781 524.195312 L 440.320312 524.195312 L 440.320312 545.160156 L 209.675781 545.160156 Z M 209.675781 524.195312 " style=" stroke:none;fill-rule:nonzero;fill:rgb(13.72549%,12.156863%,12.54902%);fill-opacity:1;" />
<path d="M 241.128906 555.644531 L 408.871094 555.644531 L 408.871094 576.613281 L 241.128906 576.613281 Z M 241.128906 555.644531 " style=" stroke:none;fill-rule:nonzero;fill:rgb(13.72549%,12.156863%,12.54902%);fill-opacity:1;" />
<path d="M 649.820312 177.34375 C 649.757812 176.632812 649.613281 175.929688 649.402344 175.25 C 649.230469 174.617188 648.992188 174 648.699219 173.414062 C 648.398438 172.847656 648.046875 172.3125 647.652344 171.808594 C 647.214844 171.238281 646.714844 170.71875 646.164062 170.257812 C 645.933594 170.058594 645.808594 169.785156 645.554688 169.617188 L 545.160156 99.375 L 545.160156 10.484375 C 545.160156 4.695312 540.464844 0 534.675781 0 L 115.320312 0 C 109.53125 0 104.839844 4.695312 104.839844 10.484375 L 104.839844 99.378906 L 4.476562 169.617188 C 4.222656 169.785156 4.097656 170.058594 3.867188 170.257812 C 3.316406 170.71875 2.816406 171.242188 2.378906 171.808594 C 1.980469 172.3125 1.632812 172.847656 1.332031 173.414062 C 1.035156 174 0.800781 174.617188 0.628906 175.25 C 0.414062 175.929688 0.273438 176.632812 0.210938 177.347656 C 0.125 177.636719 0.0546875 177.929688 0 178.226562 L 0 450.804688 C 0 456.597656 4.695312 461.289062 10.484375 461.289062 L 104.839844 461.289062 L 104.839844 618.546875 C 104.839844 624.339844 109.53125 629.03125 115.324219 629.03125 L 534.679688 629.03125 C 540.46875 629.03125 545.160156 624.339844 545.160156 618.546875 L 545.160156 461.289062 L 639.515625 461.289062 C 645.308594 461.289062 650 456.597656 650 450.804688 L 650 178.226562 C 649.957031 177.929688 649.894531 177.636719 649.820312 177.34375 Z M 606.261719 167.742188 L 545.160156 167.742188 L 545.160156 124.976562 Z M 524.191406 20.96875 L 524.191406 167.742188 L 492.742188 167.742188 L 492.742188 125.804688 C 492.742188 120.015625 488.046875 115.324219 482.257812 115.324219 L 167.742188 115.324219 C 161.949219 115.324219 157.257812 120.015625 157.257812 125.804688 L 157.257812 167.742188 L 125.804688 167.742188 L 125.804688 20.96875 Z M 178.226562 167.742188 L 178.226562 136.289062 L 471.773438 136.289062 L 471.773438 167.742188 Z M 104.839844 167.742188 L 43.738281 167.742188 L 104.839844 124.976562 Z M 524.191406 608.066406 L 125.804688 608.066406 L 125.804688 461.289062 L 157.257812 461.289062 L 157.257812 503.226562 C 157.257812 509.015625 161.949219 513.710938 167.742188 513.710938 L 482.257812 513.710938 C 488.046875 513.710938 492.742188 509.015625 492.742188 503.226562 L 492.742188 461.289062 L 524.191406 461.289062 Z M 471.773438 461.289062 L 471.773438 492.742188 L 178.226562 492.742188 L 178.226562 461.289062 Z M 629.03125 440.324219 L 20.96875 440.324219 L 20.96875 188.710938 L 629.03125 188.710938 Z M 629.03125 440.324219 " style=" stroke:none;fill-rule:nonzero;fill:rgb(13.72549%,12.156863%,12.54902%);fill-opacity:1;" />
<path d="M 251.613281 220.160156 L 209.675781 220.160156 C 192.308594 220.160156 178.226562 234.242188 178.226562 251.613281 L 178.226562 398.386719 C 178.226562 404.175781 182.917969 408.871094 188.710938 408.871094 C 194.5 408.871094 199.191406 404.175781 199.191406 398.386719 L 199.191406 325 L 262.097656 325 L 262.097656 398.386719 C 262.097656 404.175781 266.789062 408.871094 272.578125 408.871094 C 278.371094 408.871094 283.0625 404.175781 283.0625 398.386719 L 283.0625 251.613281 C 283.0625 234.242188 268.980469 220.160156 251.613281 220.160156 Z M 199.191406 304.03125 L 199.191406 251.613281 C 199.191406 245.824219 203.886719 241.128906 209.675781 241.128906 L 251.613281 241.128906 C 257.402344 241.128906 262.097656 245.824219 262.097656 251.613281 L 262.097656 304.03125 Z M 199.191406 304.03125 " style=" stroke:none;fill-rule:nonzero;fill:rgb(13.72549%,12.156863%,12.54902%);fill-opacity:1;" />
<path d="M 387.902344 241.128906 C 393.691406 241.128906 398.386719 236.433594 398.386719 230.644531 C 398.386719 224.855469 393.691406 220.160156 387.902344 220.160156 L 304.03125 220.160156 C 298.242188 220.160156 293.546875 224.855469 293.546875 230.644531 L 293.546875 398.386719 C 293.546875 404.175781 298.242188 408.871094 304.03125 408.871094 L 387.902344 408.871094 C 393.691406 408.871094 398.386719 404.175781 398.386719 398.386719 C 398.386719 392.597656 393.691406 387.902344 387.902344 387.902344 L 314.515625 387.902344 L 314.515625 325 L 387.902344 325 C 393.691406 325 398.386719 320.304688 398.386719 314.515625 C 398.386719 308.726562 393.691406 304.03125 387.902344 304.03125 L 314.515625 304.03125 L 314.515625 241.128906 Z M 387.902344 241.128906 " style=" stroke:none;fill-rule:nonzero;fill:rgb(13.72549%,12.156863%,12.54902%);fill-opacity:1;" />
<path d="M 461.289062 241.128906 L 503.222656 241.128906 C 509.015625 241.128906 513.707031 236.433594 513.707031 230.644531 C 513.707031 224.855469 509.015625 220.160156 503.222656 220.160156 L 461.289062 220.160156 C 432.351562 220.195312 408.902344 243.644531 408.871094 272.582031 L 408.871094 356.453125 C 408.90625 385.386719 432.351562 408.835938 461.289062 408.871094 L 503.222656 408.871094 C 509.015625 408.871094 513.707031 404.175781 513.707031 398.386719 C 513.707031 392.597656 509.015625 387.902344 503.222656 387.902344 L 461.289062 387.902344 C 443.917969 387.902344 429.835938 373.820312 429.835938 356.449219 L 429.835938 272.578125 C 429.839844 255.210938 443.917969 241.128906 461.289062 241.128906 Z M 461.289062 241.128906 " style=" stroke:none;fill-rule:nonzero;fill:rgb(13.72549%,12.156863%,12.54902%);fill-opacity:1;" />
</g>
</svg>