<svg xmlns="http://www.w3.org/2000/svg" height="650pt" version="1.1" viewBox="0 -10 650.001 650" width="650pt">
<g id="surface1">
<path d="M 482.257812 178.226562 L 10.484375 178.226562 L 10.484375 450.804688 L 639.515625 450.804688 L 639.515625 178.226562 Z M 251.613281 293.546875 C 251.613281 305.128906 242.222656 314.515625 230.644531 314.515625 C 242.222656 314.515625 251.613281 323.90625 251.613281 335.484375 L 251.613281 377.417969 C 251.613281 389 242.222656 398.386719 230.644531 398.386719 L 167.742188 398.386719 L 167.742188 230.644531 L 230.644531 230.644531 C 242.222656 230.644531 251.613281 240.035156 251.613281 251.613281 Z M 366.933594 398.386719 L 325 398.386719 L 325 230.644531 L 325 398.386719 Z M 482.257812 398.386719 L 398.386719 230.644531 Z M 482.257812 398.386719 " style=" stroke:none;fill-rule:nonzero;fill:rgb(100%,95.294118%,76.078431%);fill-opacity:1;" />
<path d="M 230.644531 230.644531 L 167.742188 230.644531 L 167.742188 314.515625 L 230.644531 314.515625 C 242.222656 314.515625 251.613281 305.128906 251.613281 293.546875 L 251.613281 251.613281 C 251.613281 240.035156 242.222656 230.644531 230.644531 230.644531 Z M 230.644531 230.644531 " style=" stroke:none;fill-rule:nonzero;fill:rgb(100%,95.294118%,76.078431%);fill-opacity:1;" />
<path d="M 167.742188 398.386719 L 230.644531 398.386719 C 242.222656 398.386719 251.613281 389 251.613281 377.417969 L 251.613281 335.484375 C 251.613281 323.90625 242.222656 314.515625 230.644531 314.515625 L 167.742188 314.515625 Z M 167.742188 398.386719 " style=" stroke:none;fill-rule:nonzero;fill:rgb(100%,95.294118%,76.078431%);fill-opacity:1;" />
<path d="M 167.742188 450.804688 L 482.257812 450.804688 L 482.257812 503.226562 L 167.742188 503.226562 Z M 167.742188 450.804688 " style=" stroke:none;fill-rule:nonzero;fill:rgb(100%,96.862745%,83.921569%);fill-opacity:1;" />
<path d="M 167.742188 125.804688 L 482.257812 125.804688 L 482.257812 178.226562 L 167.742188 178.226562 Z M 167.742188 125.804688 " style=" stroke:none;fill-rule:nonzero;fill:rgb(100%,96.862745%,83.921569%);fill-opacity:1;" />
<path d="M 209.675781 83.871094 L 440.320312 83.871094 L 440.320312 104.839844 L 209.675781 104.839844 Z M 209.675781 83.871094 " style=" stroke:none;fill-rule:nonzero;fill:rgb(13.72549%,12.156863%,12.54902%);fill-opacity:1;" />
<path d="M 241.128906 52.417969 L 408.871094 52.417969 L 408.871094 73.386719 L 241.128906 73.386719 Z M 241.128906 52.417969 " style=" stroke:none;fill-rule:nonzero;fill:rgb(13.72549%,12.156863%,12.54902%);fill-opacity:1;" />
<path d="M 209.675781 524.195312 L 440.320312 524.195312 L 440.320312 545.160156 L 209.675781 545.160156 Z M 209.675781 524.195312 " style=" stroke:none;fill-rule:nonzero;fill:rgb(13.72549%,12.156863%,12.54902%);fill-opacity:1;" />
<path d="M 241.128906 555.644531 L 408.871094 555.644531 L 408.871094 576.613281 L 241.128906 576.613281 Z M 241.128906 555.644531 " style=" stroke:none;fill-rule:nonzero;fill:rgb(13.72549%,12.156863%,12.54902%);fill-opacity:1;" />
<path d="M 649.820312 177.34375 C 649.757812 176.632812 649.613281 175.929688 649.402344 175.25 C 649.230469 174.617188 648.992188 174 648.699219 173.414062 C 648.398438 172.847656 648.046875 172.3125 647.652344 171.808594 C 647.214844 171.238281 646.714844 170.71875 646.164062 170.257812 C 645.933594 170.058594 645.808594 169.785156 645.554688 169.617188 L 545.160156 99.375 L 545.160156 10.484375 C 545.160156 4.695312 540.464844 0 534.675781 0 L 115.320312 0 C 109.53125 0 104.839844 4.695312 104.839844 10.484375 L 104.839844 99.378906 L 4.476562 169.617188 C 4.222656 169.785156 4.097656 170.058594 3.867188 170.257812 C 3.316406 170.71875 2.816406 171.242188 2.378906 171.808594 C 1.980469 172.3125 1.632812 172.847656 1.332031 173.414062 C 1.035156 174 0.800781 174.617188 0.628906 175.25 C 0.414062 175.929688 0.273438 176.632812 0.210938 177.347656 C 0.125 177.636719 0.0546875 177.929688 0 178.226562 L 0 450.804688 C 0 456.597656 4.695312 461.289062 10.484375 461.289062 L 104.839844 461.289062 L 104.839844 618.546875 C 104.839844 624.339844 109.53125 629.03125 115.324219 629.03125 L 534.679688 629.03125 C 540.46875 629.03125 545.160156 624.339844 545.160156 618.546875 L 545.160156 461.289062 L 639.515625 461.289062 C 645.308594 461.289062 650 456.597656 650 450.804688 L 650 178.226562 C 649.957031 177.929688 649.894531 177.636719 649.820312 177.34375 Z M 606.261719 167.742188 L 545.160156 167.742188 L 545.160156 124.976562 Z M 524.191406 20.96875 L 524.191406 167.742188 L 492.742188 167.742188 L 492.742188 125.804688 C 492.742188 120.015625 488.046875 115.324219 482.257812 115.324219 L 167.742188 115.324219 C 161.949219 115.324219 157.257812 120.015625 157.257812 125.804688 L 157.257812 167.742188 L 125.804688 167.742188 L 125.804688 20.96875 Z M 178.226562 167.742188 L 178.226562 136.289062 L 471.773438 136.289062 L 471.773438 167.742188 Z M 104.839844 167.742188 L 43.738281 167.742188 L 104.839844 124.976562 Z M 524.191406 608.066406 L 125.804688 608.066406 L 125.804688 461.289062 L 157.257812 461.289062 L 157.257812 503.226562 C 157.257812 509.015625 161.949219 513.710938 167.742188 513.710938 L 482.257812 513.710938 C 488.046875 513.710938 492.742188 509.015625 492.742188 503.226562 L 492.742188 461.289062 L 524.191406 461.289062 Z M 471.773438 461.289062 L 471.773438 492.742188 L 178.226562 492.742188 L 178.226562 461.289062 Z M 629.03125 440.324219 L 20.96875 440.324219 L 20.96875 188.710938 L 629.03125 188.710938 Z M 629.03125 440.324219 " style=" stroke:none;fill-rule:nonzero;fill:rgb(13.72549%,12.156863%,12.54902%);fill-opacity:1;" />
<path d="M 230.644531 220.160156 L 167.742188 220.160156 C 161.949219 220.160156 157.257812 224.855469 157.257812 230.644531 L 157.257812 398.386719 C 157.257812 404.175781 161.949219 408.871094 167.742188 408.871094 L 230.644531 408.871094 C 248.015625 408.871094 262.097656 394.789062 262.097656 377.417969 L 262.097656 335.484375 C 262.070312 327.722656 259.152344 320.246094 253.917969 314.515625 C 259.152344 308.785156 262.070312 301.308594 262.097656 293.546875 L 262.097656 251.613281 C 262.097656 234.242188 248.015625 220.160156 230.644531 220.160156 Z M 178.226562 241.128906 L 230.644531 241.128906 C 236.433594 241.128906 241.128906 245.824219 241.128906 251.613281 L 241.128906 293.546875 C 241.128906 299.339844 236.433594 304.03125 230.644531 304.03125 L 178.226562 304.03125 Z M 241.128906 377.417969 C 241.128906 383.210938 236.433594 387.902344 230.644531 387.902344 L 178.226562 387.902344 L 178.226562 325 L 230.644531 325 C 236.433594 325 241.128906 329.695312 241.128906 335.484375 Z M 241.128906 377.417969 " style=" stroke:none;fill-rule:nonzero;fill:rgb(13.72549%,12.156863%,12.54902%);fill-opacity:1;" />
<path d="M 366.933594 241.128906 C 372.722656 241.128906 377.417969 236.433594 377.417969 230.644531 C 377.417969 224.855469 372.722656 220.160156 366.933594 220.160156 L 283.0625 220.160156 C 277.273438 220.160156 272.578125 224.855469 272.578125 230.644531 C 272.578125 236.433594 277.273438 241.128906 283.0625 241.128906 L 314.515625 241.128906 L 314.515625 387.902344 L 283.0625 387.902344 C 277.273438 387.902344 272.578125 392.597656 272.578125 398.386719 C 272.578125 404.175781 277.273438 408.871094 283.0625 408.871094 L 366.933594 408.871094 C 372.722656 408.871094 377.417969 404.175781 377.417969 398.386719 C 377.417969 392.597656 372.722656 387.902344 366.933594 387.902344 L 335.480469 387.902344 L 335.480469 241.128906 Z M 366.933594 241.128906 " style=" stroke:none;fill-rule:nonzero;fill:rgb(13.72549%,12.156863%,12.54902%);fill-opacity:1;" />
<path d="M 482.257812 220.160156 C 476.46875 220.160156 471.773438 224.855469 471.773438 230.644531 L 471.773438 353.976562 L 407.820312 225.957031 C 405.296875 220.746094 399.027344 218.566406 393.816406 221.089844 C 390.160156 222.859375 387.855469 226.582031 387.902344 230.644531 L 387.902344 398.386719 C 387.902344 404.175781 392.59375 408.871094 398.386719 408.871094 C 404.175781 408.871094 408.867188 404.175781 408.867188 398.386719 L 408.867188 275.054688 L 472.820312 403.074219 C 473.3125 404.035156 473.949219 404.917969 474.707031 405.683594 C 474.855469 405.832031 475.03125 405.925781 475.191406 406.074219 C 475.933594 406.746094 476.773438 407.308594 477.675781 407.75 C 477.980469 407.898438 478.273438 408.023438 478.597656 408.148438 C 479.765625 408.597656 481.003906 408.84375 482.257812 408.871094 L 482.351562 408.871094 C 483.851562 408.839844 485.324219 408.480469 486.671875 407.824219 C 486.765625 407.824219 486.867188 407.824219 486.964844 407.757812 C 487.386719 407.472656 487.789062 407.15625 488.171875 406.816406 C 488.800781 406.421875 489.390625 405.960938 489.921875 405.441406 C 490.355469 404.929688 490.734375 404.371094 491.042969 403.777344 C 491.425781 403.238281 491.753906 402.660156 492.019531 402.054688 C 492.246094 401.335938 492.398438 400.589844 492.46875 399.832031 C 492.597656 399.359375 492.6875 398.875 492.742188 398.386719 L 492.742188 230.644531 C 492.742188 224.855469 488.046875 220.160156 482.257812 220.160156 Z M 482.257812 220.160156 " style=" stroke:none;fill-rule:nonzero;fill:rgb(13.72549%,12.156863%,12.54902%);fill-opacity:1;" />
</g>
</svg>