<svg xmlns="http://www.w3.org/2000/svg" height="650pt" version="1.1" viewBox="0 -10 650.001 650" width="650pt">
<g id="surface1">
<path d="M 482.257812 178.226562 L 10.484375 178.226562 L 10.484375 450.804688 L 639.515625 450.804688 L 639.515625 178.226562 Z M 209.675781 398.386719 C 186.515625 398.386719 167.742188 379.613281 167.742188 356.453125 L 167.742188 272.582031 C 167.742188 249.421875 186.515625 230.648438 209.675781 230.648438 C 186.515625 230.648438 167.742188 249.421875 167.742188 272.582031 L 167.742188 356.453125 C 167.742188 379.613281 186.515625 398.386719 209.675781 398.386719 Z M 366.933594 272.582031 L 366.933594 251.613281 C 366.933594 240.035156 357.546875 230.644531 345.96875 230.644531 L 304.03125 230.644531 C 292.453125 230.644531 283.0625 240.035156 283.0625 251.613281 L 283.0625 377.417969 C 283.0625 389 292.453125 398.386719 304.03125 398.386719 L 345.96875 398.386719 C 357.546875 398.386719 366.933594 389 366.933594 377.417969 L 366.933594 314.515625 L 366.933594 377.417969 C 366.933594 389 357.546875 398.386719 345.96875 398.386719 L 304.03125 398.386719 C 292.453125 398.386719 283.0625 389 283.0625 377.417969 L 283.0625 251.613281 C 283.0625 240.035156 292.453125 230.644531 304.03125 230.644531 L 345.96875 230.644531 C 357.546875 230.644531 366.933594 240.035156 366.933594 251.613281 Z M 482.257812 398.386719 L 440.324219 398.386719 L 440.324219 230.644531 L 440.324219 398.386719 Z M 482.257812 398.386719 " style=" stroke:none;fill-rule:nonzero;fill:rgb(100%,95.294118%,76.078431%);fill-opacity:1;" />
<path d="M 167.742188 450.804688 L 482.257812 450.804688 L 482.257812 503.226562 L 167.742188 503.226562 Z M 167.742188 450.804688 " style=" stroke:none;fill-rule:nonzero;fill:rgb(100%,96.862745%,83.921569%);fill-opacity:1;" />
<path d="M 167.742188 125.804688 L 482.257812 125.804688 L 482.257812 178.226562 L 167.742188 178.226562 Z M 167.742188 125.804688 " style=" stroke:none;fill-rule:nonzero;fill:rgb(100%,96.862745%,83.921569%);fill-opacity:1;" />
<path d="M 209.675781 83.871094 L 440.320312 83.871094 L 440.320312 104.839844 L 209.675781 104.839844 Z M 209.675781 83.871094 " style=" stroke:none;fill-rule:nonzero;fill:rgb(13.72549%,12.156863%,12.54902%);fill-opacity:1;" />
<path d="M 241.128906 52.417969 L 408.871094 52.417969 L 408.871094 73.386719 L 241.128906 73.386719 Z M 241.128906 52.417969 " style=" stroke:none;fill-rule:nonzero;fill:rgb(13.72549%,12.156863%,12.54902%);fill-opacity:1;" />
<path d="M 209.675781 524.195312 L 440.320312 524.195312 L 440.320312 545.160156 L 209.675781 545.160156 Z M 209.675781 524.195312 " style=" stroke:none;fill-rule:nonzero;fill:rgb(13.72549%,12.156863%,12.54902%);fill-opacity:1;" />
<path d="M 241.128906 555.644531 L 408.871094 555.644531 L 408.871094 576.613281 L 241.128906 576.613281 Z M 241.128906 555.644531 " style=" stroke:none;fill-rule:nonzero;fill:rgb(13.72549%,12.156863%,12.54902%);fill-opacity:1;" />
<path d="M 649.820312 177.355469 C 649.753906 176.644531 649.613281 175.941406 649.402344 175.257812 C 649.070312 174 648.460938 172.828125 647.621094 171.832031 C 647.1875 171.257812 646.6875 170.738281 646.132812 170.28125 C 645.902344 170.082031 645.777344 169.820312 645.523438 169.640625 L 545.160156 99.375 L 545.160156 10.484375 C 545.160156 4.695312 540.46875 0 534.675781 0 L 115.324219 0 C 109.53125 0 104.839844 4.695312 104.839844 10.484375 L 104.839844 99.378906 L 4.476562 169.617188 C 4.226562 169.796875 4.101562 170.058594 3.859375 170.257812 C 3.308594 170.71875 2.816406 171.242188 2.378906 171.808594 C 1.539062 172.808594 0.933594 173.976562 0.597656 175.238281 C 0.386719 175.921875 0.246094 176.625 0.179688 177.335938 C 0.101562 177.628906 0.0429688 177.925781 0 178.226562 L 0 450.804688 C 0 456.597656 4.695312 461.289062 10.484375 461.289062 L 104.839844 461.289062 L 104.839844 618.546875 C 104.839844 624.339844 109.53125 629.03125 115.324219 629.03125 L 534.679688 629.03125 C 540.46875 629.03125 545.160156 624.339844 545.160156 618.546875 L 545.160156 461.289062 L 639.515625 461.289062 C 645.308594 461.289062 650 456.597656 650 450.804688 L 650 178.226562 C 649.957031 177.933594 649.894531 177.640625 649.820312 177.355469 Z M 606.261719 167.742188 L 545.160156 167.742188 L 545.160156 124.976562 Z M 524.195312 20.96875 L 524.195312 167.742188 L 492.742188 167.742188 L 492.742188 125.804688 C 492.742188 120.015625 488.046875 115.324219 482.257812 115.324219 L 167.742188 115.324219 C 161.953125 115.324219 157.257812 120.015625 157.257812 125.804688 L 157.257812 167.742188 L 125.804688 167.742188 L 125.804688 20.96875 Z M 178.226562 167.742188 L 178.226562 136.289062 L 471.773438 136.289062 L 471.773438 167.742188 Z M 104.839844 167.742188 L 43.738281 167.742188 L 104.839844 124.976562 Z M 524.195312 608.066406 L 125.804688 608.066406 L 125.804688 461.289062 L 157.257812 461.289062 L 157.257812 503.226562 C 157.257812 509.015625 161.953125 513.710938 167.742188 513.710938 L 482.257812 513.710938 C 488.046875 513.710938 492.742188 509.015625 492.742188 503.226562 L 492.742188 461.289062 L 524.195312 461.289062 Z M 471.773438 461.289062 L 471.773438 492.742188 L 178.226562 492.742188 L 178.226562 461.289062 Z M 629.03125 440.324219 L 20.96875 440.324219 L 20.96875 188.710938 L 629.03125 188.710938 Z M 629.03125 440.324219 " style=" stroke:none;fill-rule:nonzero;fill:rgb(13.72549%,12.156863%,12.54902%);fill-opacity:1;" />
<path d="M 209.675781 241.128906 L 251.613281 241.128906 C 257.402344 241.128906 262.097656 236.433594 262.097656 230.644531 C 262.097656 224.855469 257.402344 220.160156 251.613281 220.160156 L 209.675781 220.160156 C 180.742188 220.195312 157.292969 243.644531 157.257812 272.582031 L 157.257812 356.453125 C 157.292969 385.386719 180.742188 408.835938 209.675781 408.871094 L 251.613281 408.871094 C 257.402344 408.871094 262.097656 404.175781 262.097656 398.386719 C 262.097656 392.597656 257.402344 387.902344 251.613281 387.902344 L 209.675781 387.902344 C 192.308594 387.902344 178.226562 373.820312 178.226562 356.449219 L 178.226562 272.578125 C 178.226562 255.210938 192.308594 241.128906 209.675781 241.128906 Z M 209.675781 241.128906 " style=" stroke:none;fill-rule:nonzero;fill:rgb(13.72549%,12.156863%,12.54902%);fill-opacity:1;" />
<path d="M 345.96875 220.160156 L 304.03125 220.160156 C 286.664062 220.160156 272.582031 234.242188 272.582031 251.613281 L 272.582031 377.417969 C 272.582031 394.789062 286.660156 408.871094 304.03125 408.871094 L 345.96875 408.871094 C 363.339844 408.871094 377.421875 394.789062 377.421875 377.417969 L 377.421875 314.515625 C 377.421875 308.726562 372.726562 304.03125 366.9375 304.03125 L 325 304.03125 C 319.210938 304.03125 314.515625 308.726562 314.515625 314.515625 C 314.515625 320.304688 319.210938 325 325 325 L 356.453125 325 L 356.453125 377.417969 C 356.453125 383.210938 351.757812 387.902344 345.96875 387.902344 L 304.03125 387.902344 C 298.242188 387.902344 293.550781 383.210938 293.550781 377.417969 L 293.550781 251.613281 C 293.550781 245.824219 298.242188 241.128906 304.03125 241.128906 L 345.96875 241.128906 C 351.757812 241.128906 356.453125 245.824219 356.453125 251.613281 L 356.453125 272.582031 C 356.453125 278.371094 361.144531 283.066406 366.9375 283.066406 C 372.726562 283.066406 377.421875 278.371094 377.421875 272.582031 L 377.421875 251.613281 C 377.417969 234.242188 363.339844 220.160156 345.96875 220.160156 Z M 345.96875 220.160156 " style=" stroke:none;fill-rule:nonzero;fill:rgb(13.72549%,12.156863%,12.54902%);fill-opacity:1;" />
<path d="M 482.257812 241.128906 C 488.046875 241.128906 492.742188 236.433594 492.742188 230.644531 C 492.742188 224.855469 488.046875 220.160156 482.257812 220.160156 L 398.386719 220.160156 C 392.597656 220.160156 387.902344 224.855469 387.902344 230.644531 C 387.902344 236.433594 392.597656 241.128906 398.386719 241.128906 L 429.839844 241.128906 L 429.839844 387.902344 L 398.386719 387.902344 C 392.597656 387.902344 387.902344 392.597656 387.902344 398.386719 C 387.902344 404.175781 392.597656 408.871094 398.386719 408.871094 L 482.257812 408.871094 C 488.046875 408.871094 492.742188 404.175781 492.742188 398.386719 C 492.742188 392.597656 488.046875 387.902344 482.257812 387.902344 L 450.804688 387.902344 L 450.804688 241.128906 Z M 482.257812 241.128906 " style=" stroke:none;fill-rule:nonzero;fill:rgb(13.72549%,12.156863%,12.54902%);fill-opacity:1;" />
</g>
</svg>