<svg xmlns="http://www.w3.org/2000/svg" height="650pt" version="1.1" viewBox="0 -10 650.001 650" width="650pt">
<g id="surface1">
<path d="M 482.257812 178.226562 L 10.484375 178.226562 L 10.484375 450.804688 L 639.515625 450.804688 L 639.515625 178.226562 Z M 209.675781 398.386719 C 186.515625 398.386719 167.742188 379.613281 167.742188 356.453125 L 167.742188 272.582031 C 167.742188 249.421875 186.515625 230.648438 209.675781 230.648438 C 186.515625 230.648438 167.742188 249.421875 167.742188 272.582031 L 167.742188 356.453125 C 167.742188 379.613281 186.515625 398.386719 209.675781 398.386719 Z M 366.933594 293.546875 C 366.933594 305.128906 357.546875 314.515625 345.964844 314.515625 L 283.0625 314.515625 L 283.0625 230.644531 L 345.964844 230.644531 C 357.546875 230.644531 366.933594 240.035156 366.933594 251.613281 Z M 440.320312 230.644531 Z M 440.320312 230.644531 " style=" stroke:none;fill-rule:nonzero;fill:rgb(100%,58.823529%,48.235294%);fill-opacity:1;" />
<path d="M 345.96875 230.644531 L 283.0625 230.644531 L 283.0625 314.515625 L 345.96875 314.515625 C 357.546875 314.515625 366.933594 305.128906 366.933594 293.546875 L 366.933594 251.613281 C 366.933594 240.035156 357.546875 230.644531 345.96875 230.644531 Z M 345.96875 230.644531 " style=" stroke:none;fill-rule:nonzero;fill:rgb(100%,58.823529%,48.235294%);fill-opacity:1;" />
<path d="M 167.742188 450.804688 L 482.257812 450.804688 L 482.257812 503.226562 L 167.742188 503.226562 Z M 167.742188 450.804688 " style=" stroke:none;fill-rule:nonzero;fill:rgb(100%,86.27451%,82.745098%);fill-opacity:1;" />
<path d="M 167.742188 125.804688 L 482.257812 125.804688 L 482.257812 178.226562 L 167.742188 178.226562 Z M 167.742188 125.804688 " style=" stroke:none;fill-rule:nonzero;fill:rgb(100%,86.27451%,82.745098%);fill-opacity:1;" />
<path d="M 209.675781 83.871094 L 440.320312 83.871094 L 440.320312 104.839844 L 209.675781 104.839844 Z M 209.675781 83.871094 " style=" stroke:none;fill-rule:nonzero;fill:rgb(13.72549%,12.156863%,12.54902%);fill-opacity:1;" />
<path d="M 241.128906 52.417969 L 408.871094 52.417969 L 408.871094 73.386719 L 241.128906 73.386719 Z M 241.128906 52.417969 " style=" stroke:none;fill-rule:nonzero;fill:rgb(13.72549%,12.156863%,12.54902%);fill-opacity:1;" />
<path d="M 209.675781 524.195312 L 440.320312 524.195312 L 440.320312 545.160156 L 209.675781 545.160156 Z M 209.675781 524.195312 " style=" stroke:none;fill-rule:nonzero;fill:rgb(13.72549%,12.156863%,12.54902%);fill-opacity:1;" />
<path d="M 241.128906 555.644531 L 408.871094 555.644531 L 408.871094 576.613281 L 241.128906 576.613281 Z M 241.128906 555.644531 " style=" stroke:none;fill-rule:nonzero;fill:rgb(13.72549%,12.156863%,12.54902%);fill-opacity:1;" />
<path d="M 649.820312 177.34375 C 649.757812 176.632812 649.613281 175.929688 649.402344 175.25 C 649.230469 174.617188 648.992188 174 648.699219 173.414062 C 648.398438 172.847656 648.046875 172.3125 647.652344 171.808594 C 647.214844 171.238281 646.714844 170.71875 646.164062 170.257812 C 645.933594 170.058594 645.808594 169.785156 645.554688 169.617188 L 545.160156 99.375 L 545.160156 10.484375 C 545.160156 4.695312 540.464844 0 534.675781 0 L 115.320312 0 C 109.53125 0 104.839844 4.695312 104.839844 10.484375 L 104.839844 99.378906 L 4.476562 169.617188 C 4.222656 169.785156 4.097656 170.058594 3.867188 170.257812 C 3.316406 170.71875 2.816406 171.242188 2.378906 171.808594 C 1.980469 172.3125 1.632812 172.847656 1.332031 173.414062 C 1.035156 174 0.800781 174.617188 0.628906 175.25 C 0.414062 175.929688 0.273438 176.632812 0.210938 177.347656 C 0.125 177.636719 0.0546875 177.929688 0 178.226562 L 0 450.804688 C 0 456.597656 4.695312 461.289062 10.484375 461.289062 L 104.839844 461.289062 L 104.839844 618.546875 C 104.839844 624.339844 109.53125 629.03125 115.324219 629.03125 L 534.679688 629.03125 C 540.46875 629.03125 545.160156 624.339844 545.160156 618.546875 L 545.160156 461.289062 L 639.515625 461.289062 C 645.308594 461.289062 650 456.597656 650 450.804688 L 650 178.226562 C 649.957031 177.929688 649.894531 177.636719 649.820312 177.34375 Z M 606.261719 167.742188 L 545.160156 167.742188 L 545.160156 124.976562 Z M 524.191406 20.96875 L 524.191406 167.742188 L 492.742188 167.742188 L 492.742188 125.804688 C 492.742188 120.015625 488.046875 115.324219 482.257812 115.324219 L 167.742188 115.324219 C 161.949219 115.324219 157.257812 120.015625 157.257812 125.804688 L 157.257812 167.742188 L 125.804688 167.742188 L 125.804688 20.96875 Z M 178.226562 167.742188 L 178.226562 136.289062 L 471.773438 136.289062 L 471.773438 167.742188 Z M 104.839844 167.742188 L 43.738281 167.742188 L 104.839844 124.976562 Z M 524.191406 608.066406 L 125.804688 608.066406 L 125.804688 461.289062 L 157.257812 461.289062 L 157.257812 503.226562 C 157.257812 509.015625 161.949219 513.710938 167.742188 513.710938 L 482.257812 513.710938 C 488.046875 513.710938 492.742188 509.015625 492.742188 503.226562 L 492.742188 461.289062 L 524.191406 461.289062 Z M 471.773438 461.289062 L 471.773438 492.742188 L 178.226562 492.742188 L 178.226562 461.289062 Z M 629.03125 440.324219 L 20.96875 440.324219 L 20.96875 188.710938 L 629.03125 188.710938 Z M 629.03125 440.324219 " style=" stroke:none;fill-rule:nonzero;fill:rgb(13.72549%,12.156863%,12.54902%);fill-opacity:1;" />
<path d="M 209.675781 241.128906 L 251.609375 241.128906 C 257.402344 241.128906 262.09375 236.433594 262.09375 230.644531 C 262.09375 224.855469 257.402344 220.160156 251.609375 220.160156 L 209.675781 220.160156 C 180.738281 220.195312 157.289062 243.644531 157.257812 272.582031 L 157.257812 356.453125 C 157.292969 385.386719 180.738281 408.835938 209.675781 408.871094 L 251.609375 408.871094 C 257.402344 408.871094 262.09375 404.175781 262.09375 398.386719 C 262.09375 392.597656 257.402344 387.902344 251.609375 387.902344 L 209.675781 387.902344 C 192.304688 387.902344 178.222656 373.820312 178.222656 356.449219 L 178.222656 272.578125 C 178.226562 255.210938 192.304688 241.128906 209.675781 241.128906 Z M 209.675781 241.128906 " style=" stroke:none;fill-rule:nonzero;fill:rgb(13.72549%,12.156863%,12.54902%);fill-opacity:1;" />
<path d="M 345.96875 220.160156 L 283.0625 220.160156 C 277.273438 220.160156 272.578125 224.855469 272.578125 230.644531 L 272.578125 398.386719 C 272.578125 404.175781 277.273438 408.871094 283.0625 408.871094 C 288.855469 408.871094 293.546875 404.175781 293.546875 398.386719 L 293.546875 325 L 345.96875 325 C 363.335938 325 377.417969 310.917969 377.417969 293.546875 L 377.417969 251.613281 C 377.417969 234.242188 363.335938 220.160156 345.96875 220.160156 Z M 356.449219 293.546875 C 356.449219 299.339844 351.757812 304.03125 345.96875 304.03125 L 293.546875 304.03125 L 293.546875 241.128906 L 345.96875 241.128906 C 351.757812 241.128906 356.449219 245.824219 356.449219 251.613281 Z M 356.449219 293.546875 " style=" stroke:none;fill-rule:nonzero;fill:rgb(13.72549%,12.156863%,12.54902%);fill-opacity:1;" />
<path d="M 482.257812 220.160156 L 398.386719 220.160156 C 392.597656 220.160156 387.902344 224.855469 387.902344 230.644531 C 387.902344 236.433594 392.597656 241.128906 398.386719 241.128906 L 429.839844 241.128906 L 429.839844 398.386719 C 429.839844 404.175781 434.53125 408.871094 440.320312 408.871094 C 446.113281 408.871094 450.804688 404.175781 450.804688 398.386719 L 450.804688 241.128906 L 482.257812 241.128906 C 488.046875 241.128906 492.742188 236.433594 492.742188 230.644531 C 492.742188 224.855469 488.046875 220.160156 482.257812 220.160156 Z M 482.257812 220.160156 " style=" stroke:none;fill-rule:nonzero;fill:rgb(13.72549%,12.156863%,12.54902%);fill-opacity:1;" />
</g>
</svg>