<svg xmlns="http://www.w3.org/2000/svg" height="650pt" version="1.1" viewBox="0 -10 650.001 650" width="650pt">
<g id="surface1">
<path d="M 482.257812 178.226562 L 10.484375 178.226562 L 10.484375 450.804688 L 639.515625 450.804688 L 639.515625 178.226562 Z M 314.515625 356.453125 C 314.515625 379.613281 295.738281 398.386719 272.578125 398.386719 L 230.644531 398.386719 L 230.644531 230.644531 L 262.097656 230.644531 C 285.253906 230.644531 314.515625 249.421875 314.515625 272.582031 Z M 429.839844 293.546875 C 429.839844 305.128906 420.449219 314.515625 408.871094 314.515625 C 420.449219 314.515625 429.839844 323.90625 429.839844 335.484375 L 429.839844 377.417969 C 429.839844 389 420.449219 398.386719 408.871094 398.386719 L 345.96875 398.386719 L 345.96875 230.644531 L 408.871094 230.644531 C 420.449219 230.644531 429.839844 240.035156 429.839844 251.613281 Z M 429.839844 293.546875 " style=" stroke:none;fill-rule:nonzero;fill:rgb(63.529412%,85.882353%,69.411765%);fill-opacity:1;" />
<path d="M 262.097656 230.644531 L 230.644531 230.644531 L 230.644531 398.386719 L 272.578125 398.386719 C 295.738281 398.386719 314.515625 379.613281 314.515625 356.453125 L 314.515625 272.582031 C 314.515625 249.421875 285.253906 230.644531 262.097656 230.644531 Z M 262.097656 230.644531 " style=" stroke:none;fill-rule:nonzero;fill:rgb(63.529412%,85.882353%,69.411765%);fill-opacity:1;" />
<path d="M 408.871094 230.644531 L 345.96875 230.644531 L 345.96875 314.515625 L 408.871094 314.515625 C 420.449219 314.515625 429.839844 305.128906 429.839844 293.546875 L 429.839844 251.613281 C 429.839844 240.035156 420.449219 230.644531 408.871094 230.644531 Z M 408.871094 230.644531 " style=" stroke:none;fill-rule:nonzero;fill:rgb(63.529412%,85.882353%,69.411765%);fill-opacity:1;" />
<path d="M 345.96875 398.386719 L 408.871094 398.386719 C 420.449219 398.386719 429.839844 389 429.839844 377.417969 L 429.839844 335.484375 C 429.839844 323.90625 420.449219 314.515625 408.871094 314.515625 L 345.96875 314.515625 Z M 345.96875 398.386719 " style=" stroke:none;fill-rule:nonzero;fill:rgb(63.529412%,85.882353%,69.411765%);fill-opacity:1;" />
<path d="M 167.742188 450.804688 L 482.257812 450.804688 L 482.257812 503.226562 L 167.742188 503.226562 Z M 167.742188 450.804688 " style=" stroke:none;fill-rule:nonzero;fill:rgb(87.843137%,95.294118%,89.803922%);fill-opacity:1;" />
<path d="M 167.742188 125.804688 L 482.257812 125.804688 L 482.257812 178.226562 L 167.742188 178.226562 Z M 167.742188 125.804688 " style=" stroke:none;fill-rule:nonzero;fill:rgb(87.843137%,95.294118%,89.803922%);fill-opacity:1;" />
<path d="M 209.675781 83.871094 L 440.320312 83.871094 L 440.320312 104.839844 L 209.675781 104.839844 Z M 209.675781 83.871094 " style=" stroke:none;fill-rule:nonzero;fill:rgb(13.72549%,12.156863%,12.54902%);fill-opacity:1;" />
<path d="M 241.128906 52.417969 L 408.871094 52.417969 L 408.871094 73.386719 L 241.128906 73.386719 Z M 241.128906 52.417969 " style=" stroke:none;fill-rule:nonzero;fill:rgb(13.72549%,12.156863%,12.54902%);fill-opacity:1;" />
<path d="M 209.675781 524.195312 L 440.320312 524.195312 L 440.320312 545.160156 L 209.675781 545.160156 Z M 209.675781 524.195312 " style=" stroke:none;fill-rule:nonzero;fill:rgb(13.72549%,12.156863%,12.54902%);fill-opacity:1;" />
<path d="M 241.128906 555.644531 L 408.871094 555.644531 L 408.871094 576.613281 L 241.128906 576.613281 Z M 241.128906 555.644531 " style=" stroke:none;fill-rule:nonzero;fill:rgb(13.72549%,12.156863%,12.54902%);fill-opacity:1;" />
<path d="M 649.820312 177.34375 C 649.757812 176.632812 649.613281 175.929688 649.402344 175.25 C 649.230469 174.617188 648.992188 174 648.699219 173.414062 C 648.398438 172.847656 648.046875 172.3125 647.652344 171.808594 C 647.214844 171.238281 646.714844 170.71875 646.164062 170.257812 C 645.933594 170.058594 645.808594 169.785156 645.554688 169.617188 L 545.160156 99.375 L 545.160156 10.484375 C 545.160156 4.695312 540.464844 0 534.675781 0 L 115.320312 0 C 109.53125 0 104.839844 4.695312 104.839844 10.484375 L 104.839844 99.378906 L 4.476562 169.617188 C 4.222656 169.785156 4.097656 170.058594 3.867188 170.257812 C 3.316406 170.71875 2.816406 171.242188 2.378906 171.808594 C 1.980469 172.3125 1.632812 172.847656 1.332031 173.414062 C 1.035156 174 0.800781 174.617188 0.628906 175.25 C 0.414062 175.929688 0.273438 176.632812 0.210938 177.347656 C 0.125 177.636719 0.0546875 177.929688 0 178.226562 L 0 450.804688 C 0 456.597656 4.695312 461.289062 10.484375 461.289062 L 104.839844 461.289062 L 104.839844 618.546875 C 104.839844 624.339844 109.53125 629.03125 115.324219 629.03125 L 534.679688 629.03125 C 540.46875 629.03125 545.160156 624.339844 545.160156 618.546875 L 545.160156 461.289062 L 639.515625 461.289062 C 645.308594 461.289062 650 456.597656 650 450.804688 L 650 178.226562 C 649.957031 177.929688 649.894531 177.636719 649.820312 177.34375 Z M 606.261719 167.742188 L 545.160156 167.742188 L 545.160156 124.976562 Z M 524.191406 20.96875 L 524.191406 167.742188 L 492.742188 167.742188 L 492.742188 125.804688 C 492.742188 120.015625 488.046875 115.324219 482.257812 115.324219 L 167.742188 115.324219 C 161.949219 115.324219 157.257812 120.015625 157.257812 125.804688 L 157.257812 167.742188 L 125.804688 167.742188 L 125.804688 20.96875 Z M 178.226562 167.742188 L 178.226562 136.289062 L 471.773438 136.289062 L 471.773438 167.742188 Z M 104.839844 167.742188 L 43.738281 167.742188 L 104.839844 124.976562 Z M 524.191406 608.066406 L 125.804688 608.066406 L 125.804688 461.289062 L 157.257812 461.289062 L 157.257812 503.226562 C 157.257812 509.015625 161.949219 513.710938 167.742188 513.710938 L 482.257812 513.710938 C 488.046875 513.710938 492.742188 509.015625 492.742188 503.226562 L 492.742188 461.289062 L 524.191406 461.289062 Z M 471.773438 461.289062 L 471.773438 492.742188 L 178.226562 492.742188 L 178.226562 461.289062 Z M 629.03125 440.324219 L 20.96875 440.324219 L 20.96875 188.710938 L 629.03125 188.710938 Z M 629.03125 440.324219 " style=" stroke:none;fill-rule:nonzero;fill:rgb(13.72549%,12.156863%,12.54902%);fill-opacity:1;" />
<path d="M 262.097656 220.160156 L 230.644531 220.160156 C 224.855469 220.160156 220.160156 224.855469 220.160156 230.644531 L 220.160156 398.386719 C 220.160156 404.175781 224.855469 408.871094 230.644531 408.871094 L 272.578125 408.871094 C 301.515625 408.835938 324.964844 385.386719 325 356.453125 L 325 272.582031 C 325 243.070312 291.179688 220.160156 262.097656 220.160156 Z M 304.03125 356.453125 C 304.03125 373.820312 289.949219 387.902344 272.578125 387.902344 L 241.128906 387.902344 L 241.128906 241.128906 L 262.09375 241.128906 C 280.410156 241.128906 304.03125 256.382812 304.03125 272.582031 Z M 304.03125 356.453125 " style=" stroke:none;fill-rule:nonzero;fill:rgb(13.72549%,12.156863%,12.54902%);fill-opacity:1;" />
<path d="M 408.871094 220.160156 L 345.96875 220.160156 C 340.175781 220.160156 335.484375 224.855469 335.484375 230.644531 L 335.484375 398.386719 C 335.484375 404.175781 340.175781 408.871094 345.96875 408.871094 L 408.871094 408.871094 C 426.238281 408.871094 440.320312 394.789062 440.320312 377.417969 L 440.320312 335.484375 C 440.296875 327.722656 437.378906 320.246094 432.144531 314.515625 C 437.378906 308.785156 440.296875 301.308594 440.320312 293.546875 L 440.320312 251.613281 C 440.320312 234.242188 426.238281 220.160156 408.871094 220.160156 Z M 356.449219 241.128906 L 408.871094 241.128906 C 414.660156 241.128906 419.355469 245.824219 419.355469 251.613281 L 419.355469 293.546875 C 419.355469 299.339844 414.660156 304.03125 408.871094 304.03125 L 356.449219 304.03125 Z M 419.355469 377.417969 C 419.355469 383.210938 414.660156 387.902344 408.871094 387.902344 L 356.449219 387.902344 L 356.449219 325 L 408.871094 325 C 414.660156 325 419.355469 329.695312 419.355469 335.484375 Z M 419.355469 377.417969 " style=" stroke:none;fill-rule:nonzero;fill:rgb(13.72549%,12.156863%,12.54902%);fill-opacity:1;" />
</g>
</svg>