<svg xmlns="http://www.w3.org/2000/svg" height="650pt" version="1.1" viewBox="0 -10 650.001 650" width="650pt">
<g id="surface1">
<path d="M 482.257812 178.226562 L 10.484375 178.226562 L 10.484375 450.804688 L 639.515625 450.804688 L 639.515625 178.226562 Z M 251.613281 356.453125 C 251.613281 379.613281 232.835938 398.386719 209.675781 398.386719 L 167.742188 398.386719 L 167.742188 230.644531 L 199.195312 230.644531 C 222.351562 230.644531 251.613281 249.421875 251.613281 272.582031 Z M 366.933594 398.386719 L 366.933594 230.644531 L 325 314.515625 L 283.0625 230.644531 L 325 314.515625 L 366.933594 230.644531 Z M 419.355469 314.515625 L 461.289062 314.515625 C 472.867188 314.515625 482.257812 323.90625 482.257812 335.484375 L 482.257812 377.417969 C 482.257812 389 472.867188 398.386719 461.289062 398.386719 C 472.867188 398.386719 482.257812 389 482.257812 377.417969 L 482.257812 335.484375 C 482.257812 323.90625 472.867188 314.515625 461.289062 314.515625 L 419.355469 314.515625 C 407.773438 314.515625 398.386719 305.128906 398.386719 293.546875 L 398.386719 251.613281 C 398.386719 240.035156 407.773438 230.644531 419.355469 230.644531 C 407.773438 230.644531 398.386719 240.035156 398.386719 251.613281 L 398.386719 293.546875 C 398.386719 305.128906 407.773438 314.515625 419.355469 314.515625 Z M 419.355469 314.515625 " style=" stroke:none;fill-rule:nonzero;fill:rgb(63.529412%,85.882353%,69.411765%);fill-opacity:1;" />
<path d="M 199.191406 230.644531 L 167.742188 230.644531 L 167.742188 398.386719 L 209.675781 398.386719 C 232.835938 398.386719 251.609375 379.613281 251.609375 356.453125 L 251.609375 272.582031 C 251.613281 249.421875 222.351562 230.644531 199.191406 230.644531 Z M 199.191406 230.644531 " style=" stroke:none;fill-rule:nonzero;fill:rgb(63.529412%,85.882353%,69.411765%);fill-opacity:1;" />
<path d="M 167.742188 450.804688 L 482.257812 450.804688 L 482.257812 503.226562 L 167.742188 503.226562 Z M 167.742188 450.804688 " style=" stroke:none;fill-rule:nonzero;fill:rgb(87.843137%,95.294118%,89.803922%);fill-opacity:1;" />
<path d="M 167.742188 125.804688 L 482.257812 125.804688 L 482.257812 178.226562 L 167.742188 178.226562 Z M 167.742188 125.804688 " style=" stroke:none;fill-rule:nonzero;fill:rgb(87.843137%,95.294118%,89.803922%);fill-opacity:1;" />
<path d="M 209.675781 83.871094 L 440.320312 83.871094 L 440.320312 104.839844 L 209.675781 104.839844 Z M 209.675781 83.871094 " style=" stroke:none;fill-rule:nonzero;fill:rgb(13.72549%,12.156863%,12.54902%);fill-opacity:1;" />
<path d="M 241.128906 52.417969 L 408.871094 52.417969 L 408.871094 73.386719 L 241.128906 73.386719 Z M 241.128906 52.417969 " style=" stroke:none;fill-rule:nonzero;fill:rgb(13.72549%,12.156863%,12.54902%);fill-opacity:1;" />
<path d="M 209.675781 524.195312 L 440.320312 524.195312 L 440.320312 545.160156 L 209.675781 545.160156 Z M 209.675781 524.195312 " style=" stroke:none;fill-rule:nonzero;fill:rgb(13.72549%,12.156863%,12.54902%);fill-opacity:1;" />
<path d="M 241.128906 555.644531 L 408.871094 555.644531 L 408.871094 576.613281 L 241.128906 576.613281 Z M 241.128906 555.644531 " style=" stroke:none;fill-rule:nonzero;fill:rgb(13.72549%,12.156863%,12.54902%);fill-opacity:1;" />
<path d="M 649.820312 177.34375 C 649.757812 176.632812 649.613281 175.929688 649.402344 175.25 C 649.230469 174.617188 648.992188 174.007812 648.699219 173.425781 C 648.402344 172.855469 648.050781 172.316406 647.652344 171.808594 C 647.210938 171.246094 646.714844 170.726562 646.175781 170.257812 C 645.933594 170.070312 645.808594 169.796875 645.554688 169.617188 L 545.160156 99.375 L 545.160156 10.484375 C 545.160156 4.695312 540.464844 0 534.675781 0 L 115.320312 0 C 109.53125 0 104.839844 4.695312 104.839844 10.484375 L 104.839844 99.378906 L 4.476562 169.617188 C 4.222656 169.796875 4.097656 170.070312 3.855469 170.257812 C 3.316406 170.726562 2.820312 171.25 2.378906 171.808594 C 1.980469 172.316406 1.628906 172.855469 1.332031 173.425781 C 1.035156 174.007812 0.800781 174.621094 0.628906 175.25 C 0.414062 175.929688 0.273438 176.632812 0.210938 177.347656 C 0.125 177.636719 0.0546875 177.929688 0 178.226562 L 0 450.804688 C 0 456.597656 4.695312 461.289062 10.484375 461.289062 L 104.839844 461.289062 L 104.839844 618.546875 C 104.839844 624.339844 109.53125 629.03125 115.324219 629.03125 L 534.679688 629.03125 C 540.46875 629.03125 545.160156 624.339844 545.160156 618.546875 L 545.160156 461.289062 L 639.515625 461.289062 C 645.308594 461.289062 650 456.597656 650 450.804688 L 650 178.226562 C 649.957031 177.929688 649.894531 177.636719 649.820312 177.34375 Z M 606.261719 167.742188 L 545.160156 167.742188 L 545.160156 124.976562 Z M 524.191406 20.96875 L 524.191406 167.742188 L 492.742188 167.742188 L 492.742188 125.804688 C 492.742188 120.015625 488.046875 115.324219 482.257812 115.324219 L 167.742188 115.324219 C 161.949219 115.324219 157.257812 120.015625 157.257812 125.804688 L 157.257812 167.742188 L 125.804688 167.742188 L 125.804688 20.96875 Z M 178.226562 167.742188 L 178.226562 136.289062 L 471.773438 136.289062 L 471.773438 167.742188 Z M 104.839844 167.742188 L 43.738281 167.742188 L 104.839844 124.976562 Z M 524.191406 608.066406 L 125.804688 608.066406 L 125.804688 461.289062 L 157.257812 461.289062 L 157.257812 503.226562 C 157.257812 509.015625 161.949219 513.710938 167.742188 513.710938 L 482.257812 513.710938 C 488.046875 513.710938 492.742188 509.015625 492.742188 503.226562 L 492.742188 461.289062 L 524.191406 461.289062 Z M 471.773438 461.289062 L 471.773438 492.742188 L 178.226562 492.742188 L 178.226562 461.289062 Z M 629.03125 440.324219 L 20.96875 440.324219 L 20.96875 188.710938 L 629.03125 188.710938 Z M 629.03125 440.324219 " style=" stroke:none;fill-rule:nonzero;fill:rgb(13.72549%,12.156863%,12.54902%);fill-opacity:1;" />
<path d="M 199.191406 220.160156 L 167.742188 220.160156 C 161.949219 220.160156 157.257812 224.855469 157.257812 230.644531 L 157.257812 398.386719 C 157.257812 404.175781 161.949219 408.871094 167.742188 408.871094 L 209.675781 408.871094 C 238.613281 408.835938 262.0625 385.386719 262.09375 356.453125 L 262.09375 272.582031 C 262.097656 243.058594 228.273438 220.160156 199.191406 220.160156 Z M 241.128906 356.453125 C 241.128906 373.820312 227.046875 387.902344 209.675781 387.902344 L 178.222656 387.902344 L 178.222656 241.128906 L 199.191406 241.128906 C 217.507812 241.128906 241.128906 256.382812 241.128906 272.582031 Z M 241.128906 356.453125 " style=" stroke:none;fill-rule:nonzero;fill:rgb(13.72549%,12.156863%,12.54902%);fill-opacity:1;" />
<path d="M 369.347656 220.445312 C 364.609375 219.324219 359.726562 221.605469 357.550781 225.960938 L 325 291.074219 L 292.5 225.960938 C 289.976562 220.75 283.707031 218.570312 278.492188 221.089844 C 274.839844 222.863281 272.535156 226.582031 272.578125 230.644531 L 272.578125 398.386719 C 272.578125 404.175781 277.273438 408.871094 283.0625 408.871094 C 288.851562 408.871094 293.546875 404.175781 293.546875 398.386719 L 293.546875 275.054688 L 315.617188 319.203125 C 318.707031 324.386719 325.410156 326.082031 330.59375 322.992188 C 332.152344 322.0625 333.453125 320.761719 334.382812 319.203125 L 356.449219 275.054688 L 356.449219 398.386719 C 356.449219 404.175781 361.144531 408.871094 366.933594 408.871094 C 372.726562 408.871094 377.417969 404.175781 377.417969 398.386719 L 377.417969 230.644531 C 377.417969 225.785156 374.074219 221.5625 369.347656 220.445312 Z M 369.347656 220.445312 " style=" stroke:none;fill-rule:nonzero;fill:rgb(13.72549%,12.156863%,12.54902%);fill-opacity:1;" />
<path d="M 419.355469 241.128906 L 482.257812 241.128906 C 488.046875 241.128906 492.742188 236.433594 492.742188 230.644531 C 492.742188 224.855469 488.046875 220.160156 482.257812 220.160156 L 419.355469 220.160156 C 401.984375 220.160156 387.902344 234.242188 387.902344 251.613281 L 387.902344 293.546875 C 387.902344 310.917969 401.984375 325 419.355469 325 L 461.289062 325 C 467.078125 325 471.773438 329.695312 471.773438 335.484375 L 471.773438 377.417969 C 471.773438 383.210938 467.078125 387.902344 461.289062 387.902344 L 398.386719 387.902344 C 392.597656 387.902344 387.902344 392.597656 387.902344 398.386719 C 387.902344 404.175781 392.597656 408.871094 398.386719 408.871094 L 461.289062 408.871094 C 478.660156 408.871094 492.742188 394.789062 492.742188 377.417969 L 492.742188 335.484375 C 492.742188 318.113281 478.660156 304.03125 461.289062 304.03125 L 419.355469 304.03125 C 413.5625 304.03125 408.871094 299.339844 408.871094 293.546875 L 408.871094 251.613281 C 408.871094 245.824219 413.5625 241.128906 419.355469 241.128906 Z M 419.355469 241.128906 " style=" stroke:none;fill-rule:nonzero;fill:rgb(13.72549%,12.156863%,12.54902%);fill-opacity:1;" />
</g>
</svg>