<svg xmlns="http://www.w3.org/2000/svg" height="650pt" version="1.1" viewBox="0 -10 650.001 650" width="650pt">
<g id="surface1">
<path d="M 167.742188 450.804688 L 482.257812 450.804688 L 482.257812 503.226562 L 167.742188 503.226562 Z M 167.742188 450.804688 " style=" stroke:none;fill-rule:nonzero;fill:rgb(80%,88.627451%,98.823529%);fill-opacity:1;" />
<path d="M 167.742188 125.804688 L 482.257812 125.804688 L 482.257812 178.226562 L 167.742188 178.226562 Z M 167.742188 125.804688 " style=" stroke:none;fill-rule:nonzero;fill:rgb(80%,88.627451%,98.823529%);fill-opacity:1;" />
<path d="M 482.257812 178.226562 L 10.484375 178.226562 L 10.484375 450.804688 L 639.515625 450.804688 L 639.515625 178.226562 Z M 241.128906 356.453125 C 241.128906 379.613281 222.351562 398.386719 199.191406 398.386719 L 157.257812 398.386719 L 157.257812 230.644531 L 188.710938 230.644531 C 211.867188 230.644531 241.128906 249.421875 241.128906 272.582031 Z M 366.933594 377.417969 C 366.933594 389 357.546875 398.386719 345.964844 398.386719 L 304.03125 398.386719 C 292.449219 398.386719 283.0625 389 283.0625 377.417969 L 283.0625 251.613281 C 283.0625 240.035156 292.449219 230.644531 304.03125 230.644531 L 345.964844 230.644531 C 357.546875 230.644531 366.933594 240.035156 366.933594 251.613281 Z M 450.804688 398.386719 C 427.644531 398.386719 408.871094 379.613281 408.871094 356.453125 L 408.871094 272.582031 C 408.871094 249.421875 427.644531 230.648438 450.804688 230.648438 C 427.644531 230.648438 408.871094 249.421875 408.871094 272.582031 L 408.871094 356.453125 C 408.871094 379.613281 427.644531 398.386719 450.804688 398.386719 Z M 450.804688 398.386719 " style=" stroke:none;fill-rule:nonzero;fill:rgb(40%,65.490196%,96.470588%);fill-opacity:1;" />
<path d="M 188.710938 230.644531 L 157.257812 230.644531 L 157.257812 398.386719 L 199.191406 398.386719 C 222.351562 398.386719 241.128906 379.613281 241.128906 356.453125 L 241.128906 272.582031 C 241.128906 249.421875 211.867188 230.644531 188.710938 230.644531 Z M 188.710938 230.644531 " style=" stroke:none;fill-rule:nonzero;fill:rgb(40%,65.490196%,96.470588%);fill-opacity:1;" />
<path d="M 304.03125 230.644531 L 345.964844 230.644531 C 357.546875 230.644531 366.933594 240.035156 366.933594 251.613281 L 366.933594 377.417969 C 366.933594 389 357.546875 398.386719 345.964844 398.386719 L 304.03125 398.386719 C 292.449219 398.386719 283.0625 389 283.0625 377.417969 L 283.0625 251.613281 C 283.0625 240.035156 292.449219 230.644531 304.03125 230.644531 Z M 304.03125 230.644531 " style=" stroke:none;fill-rule:nonzero;fill:rgb(40%,65.490196%,96.470588%);fill-opacity:1;" />
<path d="M 167.742188 450.804688 L 482.257812 450.804688 L 482.257812 503.226562 L 167.742188 503.226562 Z M 167.742188 450.804688 " style=" stroke:none;fill-rule:nonzero;fill:rgb(80%,88.627451%,98.823529%);fill-opacity:1;" />
<path d="M 167.742188 125.804688 L 482.257812 125.804688 L 482.257812 178.226562 L 167.742188 178.226562 Z M 167.742188 125.804688 " style=" stroke:none;fill-rule:nonzero;fill:rgb(80%,88.627451%,98.823529%);fill-opacity:1;" />
<path d="M 209.675781 83.871094 L 440.320312 83.871094 L 440.320312 104.839844 L 209.675781 104.839844 Z M 209.675781 83.871094 " style=" stroke:none;fill-rule:nonzero;fill:rgb(13.72549%,12.156863%,12.54902%);fill-opacity:1;" />
<path d="M 241.128906 52.417969 L 408.871094 52.417969 L 408.871094 73.386719 L 241.128906 73.386719 Z M 241.128906 52.417969 " style=" stroke:none;fill-rule:nonzero;fill:rgb(13.72549%,12.156863%,12.54902%);fill-opacity:1;" />
<path d="M 209.675781 524.195312 L 440.320312 524.195312 L 440.320312 545.160156 L 209.675781 545.160156 Z M 209.675781 524.195312 " style=" stroke:none;fill-rule:nonzero;fill:rgb(13.72549%,12.156863%,12.54902%);fill-opacity:1;" />
<path d="M 241.128906 555.644531 L 408.871094 555.644531 L 408.871094 576.613281 L 241.128906 576.613281 Z M 241.128906 555.644531 " style=" stroke:none;fill-rule:nonzero;fill:rgb(13.72549%,12.156863%,12.54902%);fill-opacity:1;" />
<path d="M 649.820312 177.34375 C 649.757812 176.632812 649.613281 175.929688 649.402344 175.25 C 649.230469 174.617188 648.992188 174.007812 648.699219 173.425781 C 648.402344 172.855469 648.050781 172.316406 647.652344 171.808594 C 647.210938 171.246094 646.714844 170.726562 646.175781 170.257812 C 645.933594 170.070312 645.808594 169.796875 645.554688 169.617188 L 545.160156 99.375 L 545.160156 10.484375 C 545.160156 4.695312 540.464844 0 534.675781 0 L 115.320312 0 C 109.53125 0 104.839844 4.695312 104.839844 10.484375 L 104.839844 99.378906 L 4.476562 169.617188 C 4.222656 169.796875 4.097656 170.070312 3.855469 170.257812 C 3.316406 170.726562 2.820312 171.25 2.378906 171.808594 C 1.980469 172.316406 1.628906 172.855469 1.332031 173.425781 C 1.035156 174.007812 0.800781 174.621094 0.628906 175.25 C 0.414062 175.929688 0.273438 176.632812 0.210938 177.347656 C 0.125 177.636719 0.0546875 177.929688 0 178.226562 L 0 450.804688 C 0 456.597656 4.695312 461.289062 10.484375 461.289062 L 104.839844 461.289062 L 104.839844 618.546875 C 104.839844 624.339844 109.53125 629.03125 115.324219 629.03125 L 534.679688 629.03125 C 540.46875 629.03125 545.160156 624.339844 545.160156 618.546875 L 545.160156 461.289062 L 639.515625 461.289062 C 645.308594 461.289062 650 456.597656 650 450.804688 L 650 178.226562 C 649.957031 177.929688 649.894531 177.636719 649.820312 177.34375 Z M 606.261719 167.742188 L 545.160156 167.742188 L 545.160156 124.976562 Z M 524.191406 20.96875 L 524.191406 167.742188 L 492.742188 167.742188 L 492.742188 125.804688 C 492.742188 120.015625 488.046875 115.324219 482.257812 115.324219 L 167.742188 115.324219 C 161.949219 115.324219 157.257812 120.015625 157.257812 125.804688 L 157.257812 167.742188 L 125.804688 167.742188 L 125.804688 20.96875 Z M 178.226562 167.742188 L 178.226562 136.289062 L 471.773438 136.289062 L 471.773438 167.742188 Z M 104.839844 167.742188 L 43.738281 167.742188 L 104.839844 124.976562 Z M 524.191406 608.066406 L 125.804688 608.066406 L 125.804688 461.289062 L 157.257812 461.289062 L 157.257812 503.226562 C 157.257812 509.015625 161.949219 513.710938 167.742188 513.710938 L 482.257812 513.710938 C 488.046875 513.710938 492.742188 509.015625 492.742188 503.226562 L 492.742188 461.289062 L 524.191406 461.289062 Z M 471.773438 461.289062 L 471.773438 492.742188 L 178.226562 492.742188 L 178.226562 461.289062 Z M 629.03125 440.324219 L 20.96875 440.324219 L 20.96875 188.710938 L 629.03125 188.710938 Z M 629.03125 440.324219 " style=" stroke:none;fill-rule:nonzero;fill:rgb(13.72549%,12.156863%,12.54902%);fill-opacity:1;" />
<path d="M 188.710938 220.160156 L 157.257812 220.160156 C 151.46875 220.160156 146.773438 224.855469 146.773438 230.644531 L 146.773438 398.386719 C 146.773438 404.175781 151.46875 408.871094 157.257812 408.871094 L 199.191406 408.871094 C 228.128906 408.835938 251.578125 385.386719 251.609375 356.453125 L 251.609375 272.582031 C 251.613281 243.058594 217.789062 220.160156 188.710938 220.160156 Z M 230.644531 356.453125 C 230.644531 373.820312 216.5625 387.902344 199.191406 387.902344 L 167.738281 387.902344 L 167.738281 241.128906 L 188.707031 241.128906 C 207.023438 241.128906 230.644531 256.382812 230.644531 272.582031 Z M 230.644531 356.453125 " style=" stroke:none;fill-rule:nonzero;fill:rgb(13.72549%,12.156863%,12.54902%);fill-opacity:1;" />
<path d="M 345.96875 220.160156 L 304.03125 220.160156 C 286.660156 220.160156 272.578125 234.242188 272.578125 251.613281 L 272.578125 377.417969 C 272.578125 394.789062 286.660156 408.871094 304.03125 408.871094 L 345.96875 408.871094 C 363.335938 408.871094 377.417969 394.789062 377.417969 377.417969 L 377.417969 251.613281 C 377.417969 234.242188 363.335938 220.160156 345.96875 220.160156 Z M 356.449219 377.417969 C 356.449219 383.210938 351.757812 387.902344 345.96875 387.902344 L 304.03125 387.902344 C 298.242188 387.902344 293.546875 383.210938 293.546875 377.417969 L 293.546875 251.613281 C 293.546875 245.824219 298.242188 241.128906 304.03125 241.128906 L 345.96875 241.128906 C 351.757812 241.128906 356.449219 245.824219 356.449219 251.613281 Z M 356.449219 377.417969 " style=" stroke:none;fill-rule:nonzero;fill:rgb(13.72549%,12.156863%,12.54902%);fill-opacity:1;" />
<path d="M 450.804688 241.128906 L 492.738281 241.128906 C 498.53125 241.128906 503.222656 236.433594 503.222656 230.644531 C 503.222656 224.855469 498.53125 220.160156 492.738281 220.160156 L 450.804688 220.160156 C 421.867188 220.195312 398.421875 243.644531 398.386719 272.582031 L 398.386719 356.453125 C 398.421875 385.386719 421.867188 408.835938 450.804688 408.871094 L 492.738281 408.871094 C 498.53125 408.871094 503.222656 404.175781 503.222656 398.386719 C 503.222656 392.597656 498.53125 387.902344 492.738281 387.902344 L 450.804688 387.902344 C 433.433594 387.902344 419.351562 373.820312 419.351562 356.449219 L 419.351562 272.578125 C 419.355469 255.210938 433.433594 241.128906 450.804688 241.128906 Z M 450.804688 241.128906 " style=" stroke:none;fill-rule:nonzero;fill:rgb(13.72549%,12.156863%,12.54902%);fill-opacity:1;" />
</g>
</svg>