<svg xmlns="http://www.w3.org/2000/svg" height="650pt" version="1.1" viewBox="0 -10 650.001 650" width="650pt">
<g id="surface1">
<path d="M 482.257812 178.226562 L 10.484375 178.226562 L 10.484375 450.804688 L 639.515625 450.804688 L 639.515625 178.226562 Z M 251.613281 356.453125 C 251.613281 379.613281 232.839844 398.386719 209.679688 398.386719 L 167.742188 398.386719 L 167.742188 230.644531 L 199.195312 230.644531 C 222.355469 230.644531 251.613281 249.421875 251.613281 272.582031 Z M 366.933594 398.386719 L 325 314.515625 L 283.066406 398.386719 L 325 314.515625 Z M 482.257812 293.546875 C 482.257812 305.128906 472.871094 314.515625 461.289062 314.515625 C 472.871094 314.515625 482.257812 323.90625 482.257812 335.484375 L 482.257812 377.417969 C 482.257812 389 472.871094 398.386719 461.289062 398.386719 L 398.386719 398.386719 L 398.386719 230.644531 L 461.289062 230.644531 C 472.871094 230.644531 482.257812 240.035156 482.257812 251.613281 Z M 482.257812 293.546875 " style=" stroke:none;fill-rule:nonzero;fill:rgb(94.901961%,52.156863%,72.54902%);fill-opacity:1;" />
<path d="M 199.195312 230.644531 L 167.742188 230.644531 L 167.742188 398.386719 L 209.675781 398.386719 C 232.835938 398.386719 251.613281 379.613281 251.613281 356.453125 L 251.613281 272.582031 C 251.613281 249.421875 222.351562 230.644531 199.195312 230.644531 Z M 199.195312 230.644531 " style=" stroke:none;fill-rule:nonzero;fill:rgb(94.901961%,52.156863%,72.54902%);fill-opacity:1;" />
<path d="M 461.289062 230.644531 L 398.386719 230.644531 L 398.386719 314.515625 L 461.289062 314.515625 C 472.871094 314.515625 482.257812 305.128906 482.257812 293.546875 L 482.257812 251.613281 C 482.257812 240.035156 472.871094 230.644531 461.289062 230.644531 Z M 461.289062 230.644531 " style=" stroke:none;fill-rule:nonzero;fill:rgb(94.901961%,52.156863%,72.54902%);fill-opacity:1;" />
<path d="M 398.386719 398.386719 L 461.289062 398.386719 C 472.871094 398.386719 482.257812 389 482.257812 377.417969 L 482.257812 335.484375 C 482.257812 323.90625 472.871094 314.515625 461.289062 314.515625 L 398.386719 314.515625 Z M 398.386719 398.386719 " style=" stroke:none;fill-rule:nonzero;fill:rgb(94.901961%,52.156863%,72.54902%);fill-opacity:1;" />
<path d="M 167.742188 125.804688 L 482.257812 125.804688 L 482.257812 178.226562 L 167.742188 178.226562 Z M 167.742188 125.804688 " style=" stroke:none;fill-rule:nonzero;fill:rgb(96.862745%,80%,83.137255%);fill-opacity:1;" />
<path d="M 167.742188 450.804688 L 482.257812 450.804688 L 482.257812 503.226562 L 167.742188 503.226562 Z M 167.742188 450.804688 " style=" stroke:none;fill-rule:nonzero;fill:rgb(96.862745%,80%,83.137255%);fill-opacity:1;" />
<path d="M 209.675781 83.871094 L 440.320312 83.871094 L 440.320312 104.839844 L 209.675781 104.839844 Z M 209.675781 83.871094 " style=" stroke:none;fill-rule:nonzero;fill:rgb(13.72549%,12.156863%,12.54902%);fill-opacity:1;" />
<path d="M 241.128906 52.417969 L 408.871094 52.417969 L 408.871094 73.386719 L 241.128906 73.386719 Z M 241.128906 52.417969 " style=" stroke:none;fill-rule:nonzero;fill:rgb(13.72549%,12.156863%,12.54902%);fill-opacity:1;" />
<path d="M 209.675781 524.195312 L 440.320312 524.195312 L 440.320312 545.160156 L 209.675781 545.160156 Z M 209.675781 524.195312 " style=" stroke:none;fill-rule:nonzero;fill:rgb(13.72549%,12.156863%,12.54902%);fill-opacity:1;" />
<path d="M 241.128906 555.644531 L 408.871094 555.644531 L 408.871094 576.613281 L 241.128906 576.613281 Z M 241.128906 555.644531 " style=" stroke:none;fill-rule:nonzero;fill:rgb(13.72549%,12.156863%,12.54902%);fill-opacity:1;" />
<path d="M 649.820312 177.355469 C 649.753906 176.644531 649.613281 175.941406 649.402344 175.257812 C 649.074219 173.996094 648.464844 172.824219 647.621094 171.832031 C 647.183594 171.257812 646.683594 170.734375 646.132812 170.269531 C 645.902344 170.082031 645.777344 169.808594 645.523438 169.640625 L 545.160156 99.375 L 545.160156 10.484375 C 545.160156 4.695312 540.46875 0 534.675781 0 L 115.324219 0 C 109.53125 0 104.839844 4.695312 104.839844 10.484375 L 104.839844 99.378906 L 4.476562 169.617188 C 4.226562 169.785156 4.101562 170.058594 3.867188 170.246094 C 3.320312 170.714844 2.820312 171.238281 2.378906 171.808594 C 1.539062 172.804688 0.933594 173.976562 0.597656 175.238281 C 0.386719 175.917969 0.242188 176.621094 0.179688 177.335938 C 0.101562 177.628906 0.0429688 177.925781 0 178.226562 L 0 450.804688 C 0 456.597656 4.695312 461.289062 10.484375 461.289062 L 104.839844 461.289062 L 104.839844 618.546875 C 104.839844 624.339844 109.53125 629.03125 115.324219 629.03125 L 534.679688 629.03125 C 540.46875 629.03125 545.160156 624.339844 545.160156 618.546875 L 545.160156 461.289062 L 639.515625 461.289062 C 645.308594 461.289062 650 456.597656 650 450.804688 L 650 178.226562 C 649.957031 177.933594 649.894531 177.640625 649.820312 177.355469 Z M 606.261719 167.742188 L 545.160156 167.742188 L 545.160156 124.976562 Z M 524.195312 20.96875 L 524.195312 167.742188 L 492.742188 167.742188 L 492.742188 125.804688 C 492.742188 120.015625 488.046875 115.324219 482.257812 115.324219 L 167.742188 115.324219 C 161.953125 115.324219 157.257812 120.015625 157.257812 125.804688 L 157.257812 167.742188 L 125.804688 167.742188 L 125.804688 20.96875 Z M 178.226562 167.742188 L 178.226562 136.289062 L 471.773438 136.289062 L 471.773438 167.742188 Z M 104.839844 167.742188 L 43.738281 167.742188 L 104.839844 124.976562 Z M 524.195312 608.066406 L 125.804688 608.066406 L 125.804688 461.289062 L 157.257812 461.289062 L 157.257812 503.226562 C 157.257812 509.015625 161.953125 513.710938 167.742188 513.710938 L 482.257812 513.710938 C 488.046875 513.710938 492.742188 509.015625 492.742188 503.226562 L 492.742188 461.289062 L 524.195312 461.289062 Z M 471.773438 461.289062 L 471.773438 492.742188 L 178.226562 492.742188 L 178.226562 461.289062 Z M 629.03125 440.324219 L 20.96875 440.324219 L 20.96875 188.710938 L 629.03125 188.710938 Z M 629.03125 440.324219 " style=" stroke:none;fill-rule:nonzero;fill:rgb(13.72549%,12.156863%,12.54902%);fill-opacity:1;" />
<path d="M 199.195312 220.160156 L 167.742188 220.160156 C 161.953125 220.160156 157.257812 224.855469 157.257812 230.644531 L 157.257812 398.386719 C 157.257812 404.175781 161.953125 408.871094 167.742188 408.871094 L 209.675781 408.871094 C 238.613281 408.835938 262.0625 385.386719 262.097656 356.453125 L 262.097656 272.582031 C 262.097656 243.070312 228.277344 220.160156 199.195312 220.160156 Z M 241.128906 356.453125 C 241.128906 373.820312 227.046875 387.902344 209.675781 387.902344 L 178.226562 387.902344 L 178.226562 241.128906 L 199.191406 241.128906 C 217.496094 241.128906 241.128906 256.382812 241.128906 272.582031 Z M 241.128906 356.453125 " style=" stroke:none;fill-rule:nonzero;fill:rgb(13.72549%,12.156863%,12.54902%);fill-opacity:1;" />
<path d="M 366.933594 220.160156 C 361.144531 220.160156 356.449219 224.855469 356.449219 230.644531 L 356.449219 353.976562 L 334.433594 309.828125 C 331.34375 304.648438 324.640625 302.953125 319.457031 306.039062 C 317.898438 306.96875 316.597656 308.273438 315.667969 309.828125 L 293.546875 353.976562 L 293.546875 230.644531 C 293.546875 224.855469 288.855469 220.160156 283.0625 220.160156 C 277.273438 220.160156 272.578125 224.855469 272.578125 230.644531 L 272.578125 398.386719 C 272.574219 404.175781 277.265625 408.875 283.054688 408.882812 C 287.03125 408.886719 290.671875 406.636719 292.445312 403.074219 L 325 337.957031 L 357.5 403.074219 C 359.285156 406.644531 362.941406 408.890625 366.9375 408.871094 C 367.742188 408.867188 368.550781 408.777344 369.335938 408.597656 C 374.074219 407.484375 377.421875 403.253906 377.421875 398.386719 L 377.421875 230.644531 C 377.417969 224.855469 372.726562 220.160156 366.933594 220.160156 Z M 366.933594 220.160156 " style=" stroke:none;fill-rule:nonzero;fill:rgb(13.72549%,12.156863%,12.54902%);fill-opacity:1;" />
<path d="M 461.289062 220.160156 L 398.386719 220.160156 C 392.597656 220.160156 387.902344 224.855469 387.902344 230.644531 L 387.902344 398.386719 C 387.902344 404.175781 392.597656 408.871094 398.386719 408.871094 L 461.289062 408.871094 C 478.660156 408.871094 492.742188 394.789062 492.742188 377.417969 L 492.742188 335.484375 C 492.714844 327.722656 489.800781 320.246094 484.566406 314.515625 C 489.800781 308.785156 492.714844 301.308594 492.742188 293.546875 L 492.742188 251.613281 C 492.742188 234.242188 478.660156 220.160156 461.289062 220.160156 Z M 408.871094 241.128906 L 461.289062 241.128906 C 467.078125 241.128906 471.773438 245.824219 471.773438 251.613281 L 471.773438 293.546875 C 471.773438 299.339844 467.078125 304.03125 461.289062 304.03125 L 408.871094 304.03125 Z M 471.773438 377.417969 C 471.773438 383.210938 467.078125 387.902344 461.289062 387.902344 L 408.871094 387.902344 L 408.871094 325 L 461.289062 325 C 467.078125 325 471.773438 329.695312 471.773438 335.484375 Z M 471.773438 377.417969 " style=" stroke:none;fill-rule:nonzero;fill:rgb(13.72549%,12.156863%,12.54902%);fill-opacity:1;" />
</g>
</svg>