<svg xmlns="http://www.w3.org/2000/svg" height="650pt" version="1.1" viewBox="0 -10 650.001 650" width="650pt">
<g id="surface1">
<path d="M 482.257812 178.226562 L 10.484375 178.226562 L 10.484375 450.804688 L 639.515625 450.804688 L 639.515625 178.226562 Z M 251.613281 356.453125 C 251.613281 379.613281 232.839844 398.386719 209.679688 398.386719 L 167.742188 398.386719 L 167.742188 230.644531 L 199.195312 230.644531 C 222.355469 230.644531 251.613281 249.421875 251.613281 272.582031 Z M 366.933594 398.386719 L 325 314.515625 L 283.066406 398.386719 L 325 314.515625 L 283.066406 230.644531 L 325 314.515625 L 366.933594 230.644531 L 325 314.515625 Z M 482.257812 314.515625 L 398.386719 314.515625 L 398.386719 230.644531 L 398.386719 314.515625 Z M 482.257812 314.515625 " style=" stroke:none;fill-rule:nonzero;fill:rgb(94.901961%,52.156863%,72.54902%);fill-opacity:1;" />
<path d="M 199.195312 230.644531 L 167.742188 230.644531 L 167.742188 398.386719 L 209.675781 398.386719 C 232.835938 398.386719 251.613281 379.613281 251.613281 356.453125 L 251.613281 272.582031 C 251.613281 249.421875 222.351562 230.644531 199.195312 230.644531 Z M 199.195312 230.644531 " style=" stroke:none;fill-rule:nonzero;fill:rgb(94.901961%,52.156863%,72.54902%);fill-opacity:1;" />
<path d="M 167.742188 125.804688 L 482.257812 125.804688 L 482.257812 178.226562 L 167.742188 178.226562 Z M 167.742188 125.804688 " style=" stroke:none;fill-rule:nonzero;fill:rgb(96.862745%,80%,83.137255%);fill-opacity:1;" />
<path d="M 167.742188 450.804688 L 482.257812 450.804688 L 482.257812 503.226562 L 167.742188 503.226562 Z M 167.742188 450.804688 " style=" stroke:none;fill-rule:nonzero;fill:rgb(96.862745%,80%,83.137255%);fill-opacity:1;" />
<path d="M 209.675781 83.871094 L 440.320312 83.871094 L 440.320312 104.839844 L 209.675781 104.839844 Z M 209.675781 83.871094 " style=" stroke:none;fill-rule:nonzero;fill:rgb(13.72549%,12.156863%,12.54902%);fill-opacity:1;" />
<path d="M 241.128906 52.417969 L 408.871094 52.417969 L 408.871094 73.386719 L 241.128906 73.386719 Z M 241.128906 52.417969 " style=" stroke:none;fill-rule:nonzero;fill:rgb(13.72549%,12.156863%,12.54902%);fill-opacity:1;" />
<path d="M 209.675781 524.195312 L 440.320312 524.195312 L 440.320312 545.160156 L 209.675781 545.160156 Z M 209.675781 524.195312 " style=" stroke:none;fill-rule:nonzero;fill:rgb(13.72549%,12.156863%,12.54902%);fill-opacity:1;" />
<path d="M 241.128906 555.644531 L 408.871094 555.644531 L 408.871094 576.613281 L 241.128906 576.613281 Z M 241.128906 555.644531 " style=" stroke:none;fill-rule:nonzero;fill:rgb(13.72549%,12.156863%,12.54902%);fill-opacity:1;" />
<path d="M 649.820312 177.355469 C 649.753906 176.644531 649.613281 175.941406 649.402344 175.257812 C 649.074219 173.996094 648.464844 172.824219 647.621094 171.832031 C 647.183594 171.257812 646.683594 170.734375 646.132812 170.269531 C 645.902344 170.082031 645.777344 169.808594 645.523438 169.640625 L 545.160156 99.375 L 545.160156 10.484375 C 545.160156 4.695312 540.46875 0 534.675781 0 L 115.324219 0 C 109.53125 0 104.839844 4.695312 104.839844 10.484375 L 104.839844 99.378906 L 4.476562 169.617188 C 4.226562 169.785156 4.101562 170.058594 3.867188 170.246094 C 3.320312 170.714844 2.820312 171.238281 2.378906 171.808594 C 1.539062 172.804688 0.933594 173.976562 0.597656 175.238281 C 0.386719 175.917969 0.242188 176.621094 0.179688 177.335938 C 0.101562 177.628906 0.0429688 177.925781 0 178.226562 L 0 450.804688 C 0 456.597656 4.695312 461.289062 10.484375 461.289062 L 104.839844 461.289062 L 104.839844 618.546875 C 104.839844 624.339844 109.53125 629.03125 115.324219 629.03125 L 534.679688 629.03125 C 540.46875 629.03125 545.160156 624.339844 545.160156 618.546875 L 545.160156 461.289062 L 639.515625 461.289062 C 645.308594 461.289062 650 456.597656 650 450.804688 L 650 178.226562 C 649.957031 177.933594 649.894531 177.640625 649.820312 177.355469 Z M 606.261719 167.742188 L 545.160156 167.742188 L 545.160156 124.976562 Z M 524.195312 20.96875 L 524.195312 167.742188 L 492.742188 167.742188 L 492.742188 125.804688 C 492.742188 120.015625 488.046875 115.324219 482.257812 115.324219 L 167.742188 115.324219 C 161.953125 115.324219 157.257812 120.015625 157.257812 125.804688 L 157.257812 167.742188 L 125.804688 167.742188 L 125.804688 20.96875 Z M 178.226562 167.742188 L 178.226562 136.289062 L 471.773438 136.289062 L 471.773438 167.742188 Z M 104.839844 167.742188 L 43.738281 167.742188 L 104.839844 124.976562 Z M 524.195312 608.066406 L 125.804688 608.066406 L 125.804688 461.289062 L 157.257812 461.289062 L 157.257812 503.226562 C 157.257812 509.015625 161.953125 513.710938 167.742188 513.710938 L 482.257812 513.710938 C 488.046875 513.710938 492.742188 509.015625 492.742188 503.226562 L 492.742188 461.289062 L 524.195312 461.289062 Z M 471.773438 461.289062 L 471.773438 492.742188 L 178.226562 492.742188 L 178.226562 461.289062 Z M 629.03125 440.324219 L 20.96875 440.324219 L 20.96875 188.710938 L 629.03125 188.710938 Z M 629.03125 440.324219 " style=" stroke:none;fill-rule:nonzero;fill:rgb(13.72549%,12.156863%,12.54902%);fill-opacity:1;" />
<path d="M 199.195312 220.160156 L 167.742188 220.160156 C 161.953125 220.160156 157.257812 224.855469 157.257812 230.644531 L 157.257812 398.386719 C 157.257812 404.175781 161.953125 408.871094 167.742188 408.871094 L 209.675781 408.871094 C 238.613281 408.835938 262.0625 385.386719 262.097656 356.453125 L 262.097656 272.582031 C 262.097656 243.070312 228.277344 220.160156 199.195312 220.160156 Z M 241.128906 356.453125 C 241.128906 373.820312 227.046875 387.902344 209.675781 387.902344 L 178.226562 387.902344 L 178.226562 241.128906 L 199.191406 241.128906 C 217.496094 241.128906 241.128906 256.382812 241.128906 272.582031 Z M 241.128906 356.453125 " style=" stroke:none;fill-rule:nonzero;fill:rgb(13.72549%,12.156863%,12.54902%);fill-opacity:1;" />
<path d="M 371.621094 221.261719 C 366.441406 218.671875 360.144531 220.773438 357.558594 225.953125 C 357.554688 225.953125 357.554688 225.957031 357.554688 225.960938 L 325 291.074219 L 292.5 225.960938 C 289.910156 220.777344 283.613281 218.675781 278.429688 221.261719 C 273.25 223.851562 271.144531 230.148438 273.734375 235.332031 L 313.277344 314.515625 L 273.679688 393.703125 C 271.09375 398.882812 273.195312 405.183594 278.378906 407.769531 C 283.558594 410.359375 289.859375 408.253906 292.445312 403.074219 L 325 337.957031 L 357.5 403.074219 C 360.089844 408.253906 366.386719 410.359375 371.570312 407.769531 C 376.75 405.183594 378.855469 398.882812 376.265625 393.703125 L 336.722656 314.515625 L 376.371094 235.332031 C 378.949219 230.148438 376.835938 223.855469 371.652344 221.277344 C 371.640625 221.273438 371.632812 221.265625 371.621094 221.261719 Z M 371.621094 221.261719 " style=" stroke:none;fill-rule:nonzero;fill:rgb(13.72549%,12.156863%,12.54902%);fill-opacity:1;" />
<path d="M 482.257812 241.128906 C 488.046875 241.128906 492.742188 236.433594 492.742188 230.644531 C 492.742188 224.855469 488.046875 220.160156 482.257812 220.160156 L 398.386719 220.160156 C 392.597656 220.160156 387.902344 224.855469 387.902344 230.644531 L 387.902344 398.386719 C 387.902344 404.175781 392.597656 408.871094 398.386719 408.871094 C 404.175781 408.871094 408.871094 404.175781 408.871094 398.386719 L 408.871094 325 L 482.257812 325 C 488.046875 325 492.742188 320.304688 492.742188 314.515625 C 492.742188 308.726562 488.046875 304.03125 482.257812 304.03125 L 408.871094 304.03125 L 408.871094 241.128906 Z M 482.257812 241.128906 " style=" stroke:none;fill-rule:nonzero;fill:rgb(13.72549%,12.156863%,12.54902%);fill-opacity:1;" />
</g>
</svg>