<svg xmlns="http://www.w3.org/2000/svg" height="650pt" version="1.1" viewBox="0 -10 650.001 650" width="650pt">
<g id="surface1">
<path d="M 482.257812 178.226562 L 10.484375 178.226562 L 10.484375 450.804688 L 639.515625 450.804688 L 639.515625 178.226562 Z M 251.613281 272.582031 L 251.613281 251.613281 C 251.613281 240.035156 242.222656 230.644531 230.644531 230.644531 L 188.710938 230.644531 C 177.128906 230.644531 167.742188 240.035156 167.742188 251.613281 L 167.742188 377.417969 C 167.742188 389 177.128906 398.386719 188.710938 398.386719 L 230.644531 398.386719 C 242.222656 398.386719 251.613281 389 251.613281 377.417969 L 251.613281 314.515625 L 251.613281 377.417969 C 251.613281 389 242.222656 398.386719 230.644531 398.386719 L 188.710938 398.386719 C 177.128906 398.386719 167.742188 389 167.742188 377.417969 L 167.742188 251.613281 C 167.742188 240.035156 177.128906 230.644531 188.710938 230.644531 L 230.644531 230.644531 C 242.222656 230.644531 251.613281 240.035156 251.613281 251.613281 Z M 366.933594 293.546875 C 366.933594 305.128906 357.546875 314.515625 345.964844 314.515625 C 357.546875 314.515625 366.933594 323.90625 366.933594 335.484375 L 366.933594 377.417969 C 366.933594 389 357.546875 398.386719 345.964844 398.386719 L 283.0625 398.386719 L 283.0625 230.644531 L 345.964844 230.644531 C 357.546875 230.644531 366.933594 240.035156 366.933594 251.613281 Z M 482.257812 356.453125 C 482.257812 333.292969 463.480469 314.515625 440.320312 314.515625 L 398.386719 314.515625 L 398.386719 230.644531 L 440.320312 230.644531 C 463.480469 230.644531 482.257812 249.421875 482.257812 272.582031 C 482.257812 295.742188 463.480469 314.515625 440.320312 314.515625 C 463.480469 314.515625 482.257812 333.292969 482.257812 356.453125 Z M 482.257812 356.453125 " style=" stroke:none;fill-rule:nonzero;fill:rgb(80.392157%,80.392157%,81.568627%);fill-opacity:1;" />
<path d="M 345.96875 230.644531 L 283.0625 230.644531 L 283.0625 314.515625 L 345.96875 314.515625 C 357.546875 314.515625 366.933594 305.128906 366.933594 293.546875 L 366.933594 251.613281 C 366.933594 240.035156 357.546875 230.644531 345.96875 230.644531 Z M 345.96875 230.644531 " style=" stroke:none;fill-rule:nonzero;fill:rgb(80.392157%,80.392157%,81.568627%);fill-opacity:1;" />
<path d="M 283.0625 398.386719 L 345.96875 398.386719 C 357.546875 398.386719 366.933594 389 366.933594 377.417969 L 366.933594 335.484375 C 366.933594 323.90625 357.546875 314.515625 345.96875 314.515625 L 283.0625 314.515625 Z M 283.0625 398.386719 " style=" stroke:none;fill-rule:nonzero;fill:rgb(80.392157%,80.392157%,81.568627%);fill-opacity:1;" />
<path d="M 482.257812 272.582031 C 482.257812 249.421875 463.480469 230.648438 440.320312 230.648438 L 398.386719 230.648438 L 398.386719 314.515625 L 440.320312 314.515625 C 463.480469 314.515625 482.257812 295.742188 482.257812 272.582031 Z M 482.257812 272.582031 " style=" stroke:none;fill-rule:nonzero;fill:rgb(80.392157%,80.392157%,81.568627%);fill-opacity:1;" />
<path d="M 167.742188 125.804688 L 482.257812 125.804688 L 482.257812 178.226562 L 167.742188 178.226562 Z M 167.742188 125.804688 " style=" stroke:none;fill-rule:nonzero;fill:rgb(93.333333%,93.333333%,93.72549%);fill-opacity:1;" />
<path d="M 167.742188 450.804688 L 482.257812 450.804688 L 482.257812 503.226562 L 167.742188 503.226562 Z M 167.742188 450.804688 " style=" stroke:none;fill-rule:nonzero;fill:rgb(93.333333%,93.333333%,93.72549%);fill-opacity:1;" />
<path d="M 209.675781 83.871094 L 440.320312 83.871094 L 440.320312 104.839844 L 209.675781 104.839844 Z M 209.675781 83.871094 " style=" stroke:none;fill-rule:nonzero;fill:rgb(13.72549%,12.156863%,12.54902%);fill-opacity:1;" />
<path d="M 241.128906 52.417969 L 408.871094 52.417969 L 408.871094 73.386719 L 241.128906 73.386719 Z M 241.128906 52.417969 " style=" stroke:none;fill-rule:nonzero;fill:rgb(13.72549%,12.156863%,12.54902%);fill-opacity:1;" />
<path d="M 209.675781 524.195312 L 440.320312 524.195312 L 440.320312 545.160156 L 209.675781 545.160156 Z M 209.675781 524.195312 " style=" stroke:none;fill-rule:nonzero;fill:rgb(13.72549%,12.156863%,12.54902%);fill-opacity:1;" />
<path d="M 241.128906 555.644531 L 408.871094 555.644531 L 408.871094 576.613281 L 241.128906 576.613281 Z M 241.128906 555.644531 " style=" stroke:none;fill-rule:nonzero;fill:rgb(13.72549%,12.156863%,12.54902%);fill-opacity:1;" />
<path d="M 649.820312 177.34375 C 649.757812 176.632812 649.613281 175.929688 649.402344 175.25 C 649.230469 174.617188 648.992188 174 648.699219 173.414062 C 648.398438 172.847656 648.046875 172.3125 647.652344 171.808594 C 647.214844 171.238281 646.714844 170.71875 646.164062 170.257812 C 645.933594 170.058594 645.808594 169.785156 645.554688 169.617188 L 545.160156 99.375 L 545.160156 10.484375 C 545.160156 4.695312 540.464844 0 534.675781 0 L 115.320312 0 C 109.53125 0 104.839844 4.695312 104.839844 10.484375 L 104.839844 99.378906 L 4.476562 169.617188 C 4.222656 169.785156 4.097656 170.058594 3.867188 170.257812 C 3.316406 170.71875 2.816406 171.242188 2.378906 171.808594 C 1.980469 172.3125 1.632812 172.847656 1.332031 173.414062 C 1.035156 174 0.800781 174.617188 0.628906 175.25 C 0.414062 175.929688 0.273438 176.632812 0.210938 177.347656 C 0.125 177.636719 0.0546875 177.929688 0 178.226562 L 0 450.804688 C 0 456.597656 4.695312 461.289062 10.484375 461.289062 L 104.839844 461.289062 L 104.839844 618.546875 C 104.839844 624.339844 109.53125 629.03125 115.324219 629.03125 L 534.679688 629.03125 C 540.46875 629.03125 545.160156 624.339844 545.160156 618.546875 L 545.160156 461.289062 L 639.515625 461.289062 C 645.308594 461.289062 650 456.597656 650 450.804688 L 650 178.226562 C 649.957031 177.929688 649.894531 177.636719 649.820312 177.34375 Z M 606.261719 167.742188 L 545.160156 167.742188 L 545.160156 124.976562 Z M 524.191406 20.96875 L 524.191406 167.742188 L 492.742188 167.742188 L 492.742188 125.804688 C 492.742188 120.015625 488.046875 115.324219 482.257812 115.324219 L 167.742188 115.324219 C 161.949219 115.324219 157.257812 120.015625 157.257812 125.804688 L 157.257812 167.742188 L 125.804688 167.742188 L 125.804688 20.96875 Z M 178.226562 167.742188 L 178.226562 136.289062 L 471.773438 136.289062 L 471.773438 167.742188 Z M 104.839844 167.742188 L 43.738281 167.742188 L 104.839844 124.976562 Z M 524.191406 608.066406 L 125.804688 608.066406 L 125.804688 461.289062 L 157.257812 461.289062 L 157.257812 503.226562 C 157.257812 509.015625 161.949219 513.710938 167.742188 513.710938 L 482.257812 513.710938 C 488.046875 513.710938 492.742188 509.015625 492.742188 503.226562 L 492.742188 461.289062 L 524.191406 461.289062 Z M 471.773438 461.289062 L 471.773438 492.742188 L 178.226562 492.742188 L 178.226562 461.289062 Z M 629.03125 440.324219 L 20.96875 440.324219 L 20.96875 188.710938 L 629.03125 188.710938 Z M 629.03125 440.324219 " style=" stroke:none;fill-rule:nonzero;fill:rgb(13.72549%,12.156863%,12.54902%);fill-opacity:1;" />
<path d="M 230.644531 220.160156 L 188.710938 220.160156 C 171.339844 220.160156 157.257812 234.242188 157.257812 251.613281 L 157.257812 377.417969 C 157.257812 394.789062 171.339844 408.871094 188.710938 408.871094 L 230.644531 408.871094 C 248.015625 408.871094 262.097656 394.789062 262.097656 377.417969 L 262.097656 314.515625 C 262.097656 308.726562 257.402344 304.03125 251.613281 304.03125 L 209.675781 304.03125 C 203.886719 304.03125 199.191406 308.726562 199.191406 314.515625 C 199.191406 320.304688 203.886719 325 209.675781 325 L 241.128906 325 L 241.128906 377.417969 C 241.128906 383.210938 236.433594 387.902344 230.644531 387.902344 L 188.710938 387.902344 C 182.917969 387.902344 178.226562 383.210938 178.226562 377.417969 L 178.226562 251.613281 C 178.226562 245.824219 182.917969 241.128906 188.710938 241.128906 L 230.644531 241.128906 C 236.433594 241.128906 241.128906 245.824219 241.128906 251.613281 L 241.128906 272.582031 C 241.128906 278.371094 245.820312 283.066406 251.613281 283.066406 C 257.402344 283.066406 262.097656 278.371094 262.097656 272.582031 L 262.097656 251.613281 C 262.097656 234.242188 248.015625 220.160156 230.644531 220.160156 Z M 230.644531 220.160156 " style=" stroke:none;fill-rule:nonzero;fill:rgb(13.72549%,12.156863%,12.54902%);fill-opacity:1;" />
<path d="M 345.96875 220.160156 L 283.0625 220.160156 C 277.273438 220.160156 272.578125 224.855469 272.578125 230.644531 L 272.578125 398.386719 C 272.578125 404.175781 277.273438 408.871094 283.0625 408.871094 L 345.96875 408.871094 C 363.335938 408.871094 377.417969 394.789062 377.417969 377.417969 L 377.417969 335.484375 C 377.390625 327.722656 374.476562 320.246094 369.242188 314.515625 C 374.476562 308.785156 377.390625 301.308594 377.417969 293.546875 L 377.417969 251.613281 C 377.417969 234.242188 363.335938 220.160156 345.96875 220.160156 Z M 293.546875 241.128906 L 345.964844 241.128906 C 351.757812 241.128906 356.449219 245.824219 356.449219 251.613281 L 356.449219 293.546875 C 356.449219 299.339844 351.757812 304.03125 345.964844 304.03125 L 293.546875 304.03125 Z M 356.449219 377.417969 C 356.449219 383.210938 351.757812 387.902344 345.96875 387.902344 L 293.546875 387.902344 L 293.546875 325 L 345.96875 325 C 351.757812 325 356.449219 329.695312 356.449219 335.484375 Z M 356.449219 377.417969 " style=" stroke:none;fill-rule:nonzero;fill:rgb(13.72549%,12.156863%,12.54902%);fill-opacity:1;" />
<path d="M 492.742188 272.582031 C 492.707031 243.644531 469.257812 220.195312 440.320312 220.164062 L 398.386719 220.164062 C 392.597656 220.164062 387.902344 224.855469 387.902344 230.648438 L 387.902344 398.386719 C 387.902344 404.179688 392.597656 408.871094 398.386719 408.871094 C 404.175781 408.871094 408.871094 404.179688 408.871094 398.386719 L 408.871094 325 L 440.324219 325 C 457.691406 325 471.773438 339.082031 471.773438 356.453125 L 471.773438 398.386719 C 471.773438 404.179688 476.46875 408.871094 482.257812 408.871094 C 488.050781 408.871094 492.742188 404.179688 492.742188 398.386719 L 492.742188 356.453125 C 492.695312 339.890625 484.796875 324.328125 471.449219 314.519531 C 484.792969 304.707031 492.695312 289.144531 492.742188 272.582031 Z M 440.320312 304.03125 L 408.871094 304.03125 L 408.871094 241.128906 L 440.320312 241.128906 C 457.691406 241.128906 471.773438 255.210938 471.773438 272.582031 C 471.773438 289.953125 457.691406 304.03125 440.320312 304.03125 Z M 440.320312 304.03125 " style=" stroke:none;fill-rule:nonzero;fill:rgb(13.72549%,12.156863%,12.54902%);fill-opacity:1;" />
</g>
</svg>