<svg xmlns="http://www.w3.org/2000/svg" height="650pt" version="1.1" viewBox="0 -10 650.001 650" width="650pt">
<g id="surface1">
<path d="M 167.742188 125.804688 L 482.257812 125.804688 L 482.257812 178.226562 L 167.742188 178.226562 Z M 167.742188 125.804688 " style=" stroke:none;fill-rule:nonzero;fill:rgb(96.862745%,80%,83.137255%);fill-opacity:1;" />
<path d="M 167.742188 450.804688 L 482.257812 450.804688 L 482.257812 503.226562 L 167.742188 503.226562 Z M 167.742188 450.804688 " style=" stroke:none;fill-rule:nonzero;fill:rgb(96.862745%,80%,83.137255%);fill-opacity:1;" />
<path d="M 482.257812 178.226562 L 10.484375 178.226562 L 10.484375 450.804688 L 639.515625 450.804688 L 639.515625 178.226562 Z M 241.128906 272.582031 L 241.128906 251.613281 C 241.128906 240.035156 231.742188 230.644531 220.160156 230.644531 L 178.226562 230.644531 C 166.644531 230.644531 157.257812 240.035156 157.257812 251.613281 L 157.257812 377.417969 C 157.257812 389 166.644531 398.386719 178.226562 398.386719 L 220.160156 398.386719 C 231.742188 398.386719 241.128906 389 241.128906 377.417969 L 241.128906 314.515625 L 241.128906 377.417969 C 241.128906 389 231.742188 398.386719 220.160156 398.386719 L 178.226562 398.386719 C 166.644531 398.386719 157.257812 389 157.257812 377.417969 L 157.257812 251.613281 C 157.257812 240.035156 166.644531 230.644531 178.226562 230.644531 L 220.160156 230.644531 C 231.742188 230.644531 241.128906 240.035156 241.128906 251.613281 Z M 366.933594 398.386719 L 325 398.386719 L 325 230.644531 L 325 398.386719 Z M 492.742188 314.515625 L 408.871094 314.515625 L 408.871094 230.644531 L 408.871094 314.515625 Z M 492.742188 314.515625 " style=" stroke:none;fill-rule:nonzero;fill:rgb(90.980392%,40%,49.019608%);fill-opacity:1;" />
<path d="M 209.675781 83.871094 L 440.320312 83.871094 L 440.320312 104.839844 L 209.675781 104.839844 Z M 209.675781 83.871094 " style=" stroke:none;fill-rule:nonzero;fill:rgb(13.72549%,12.156863%,12.54902%);fill-opacity:1;" />
<path d="M 241.128906 52.417969 L 408.871094 52.417969 L 408.871094 73.386719 L 241.128906 73.386719 Z M 241.128906 52.417969 " style=" stroke:none;fill-rule:nonzero;fill:rgb(13.72549%,12.156863%,12.54902%);fill-opacity:1;" />
<path d="M 209.675781 524.195312 L 440.320312 524.195312 L 440.320312 545.160156 L 209.675781 545.160156 Z M 209.675781 524.195312 " style=" stroke:none;fill-rule:nonzero;fill:rgb(13.72549%,12.156863%,12.54902%);fill-opacity:1;" />
<path d="M 241.128906 555.644531 L 408.871094 555.644531 L 408.871094 576.613281 L 241.128906 576.613281 Z M 241.128906 555.644531 " style=" stroke:none;fill-rule:nonzero;fill:rgb(13.72549%,12.156863%,12.54902%);fill-opacity:1;" />
<path d="M 649.820312 177.355469 C 649.753906 176.644531 649.613281 175.941406 649.402344 175.257812 C 649.070312 174 648.460938 172.828125 647.621094 171.832031 C 647.1875 171.257812 646.6875 170.738281 646.132812 170.28125 C 645.902344 170.082031 645.777344 169.820312 645.523438 169.640625 L 545.160156 99.375 L 545.160156 10.484375 C 545.160156 4.695312 540.46875 0 534.675781 0 L 115.324219 0 C 109.53125 0 104.839844 4.695312 104.839844 10.484375 L 104.839844 99.378906 L 4.476562 169.617188 C 4.226562 169.796875 4.101562 170.058594 3.859375 170.257812 C 3.308594 170.71875 2.816406 171.242188 2.378906 171.808594 C 1.539062 172.808594 0.933594 173.976562 0.597656 175.238281 C 0.386719 175.921875 0.246094 176.625 0.179688 177.335938 C 0.101562 177.628906 0.0429688 177.925781 0 178.226562 L 0 450.804688 C 0 456.597656 4.695312 461.289062 10.484375 461.289062 L 104.839844 461.289062 L 104.839844 618.546875 C 104.839844 624.339844 109.53125 629.03125 115.324219 629.03125 L 534.679688 629.03125 C 540.46875 629.03125 545.160156 624.339844 545.160156 618.546875 L 545.160156 461.289062 L 639.515625 461.289062 C 645.308594 461.289062 650 456.597656 650 450.804688 L 650 178.226562 C 649.957031 177.933594 649.894531 177.640625 649.820312 177.355469 Z M 606.261719 167.742188 L 545.160156 167.742188 L 545.160156 124.976562 Z M 524.195312 20.96875 L 524.195312 167.742188 L 492.742188 167.742188 L 492.742188 125.804688 C 492.742188 120.015625 488.046875 115.324219 482.257812 115.324219 L 167.742188 115.324219 C 161.953125 115.324219 157.257812 120.015625 157.257812 125.804688 L 157.257812 167.742188 L 125.804688 167.742188 L 125.804688 20.96875 Z M 178.226562 167.742188 L 178.226562 136.289062 L 471.773438 136.289062 L 471.773438 167.742188 Z M 104.839844 167.742188 L 43.738281 167.742188 L 104.839844 124.976562 Z M 524.195312 608.066406 L 125.804688 608.066406 L 125.804688 461.289062 L 157.257812 461.289062 L 157.257812 503.226562 C 157.257812 509.015625 161.953125 513.710938 167.742188 513.710938 L 482.257812 513.710938 C 488.046875 513.710938 492.742188 509.015625 492.742188 503.226562 L 492.742188 461.289062 L 524.195312 461.289062 Z M 471.773438 461.289062 L 471.773438 492.742188 L 178.226562 492.742188 L 178.226562 461.289062 Z M 629.03125 440.324219 L 20.96875 440.324219 L 20.96875 188.710938 L 629.03125 188.710938 Z M 629.03125 440.324219 " style=" stroke:none;fill-rule:nonzero;fill:rgb(13.72549%,12.156863%,12.54902%);fill-opacity:1;" />
<path d="M 366.933594 241.128906 C 372.726562 241.128906 377.417969 236.433594 377.417969 230.644531 C 377.417969 224.855469 372.726562 220.160156 366.933594 220.160156 L 283.0625 220.160156 C 277.273438 220.160156 272.578125 224.855469 272.578125 230.644531 C 272.578125 236.433594 277.273438 241.128906 283.0625 241.128906 L 314.515625 241.128906 L 314.515625 387.902344 L 283.0625 387.902344 C 277.273438 387.902344 272.578125 392.597656 272.578125 398.386719 C 272.578125 404.175781 277.273438 408.871094 283.0625 408.871094 L 366.933594 408.871094 C 372.726562 408.871094 377.417969 404.175781 377.417969 398.386719 C 377.417969 392.597656 372.726562 387.902344 366.933594 387.902344 L 335.484375 387.902344 L 335.484375 241.128906 Z M 366.933594 241.128906 " style=" stroke:none;fill-rule:nonzero;fill:rgb(13.72549%,12.156863%,12.54902%);fill-opacity:1;" />
<path d="M 492.742188 241.128906 C 498.53125 241.128906 503.226562 236.433594 503.226562 230.644531 C 503.226562 224.855469 498.53125 220.160156 492.742188 220.160156 L 408.871094 220.160156 C 403.082031 220.160156 398.386719 224.855469 398.386719 230.644531 L 398.386719 398.386719 C 398.386719 404.175781 403.082031 408.871094 408.871094 408.871094 C 414.660156 408.871094 419.355469 404.175781 419.355469 398.386719 L 419.355469 325 L 492.742188 325 C 498.53125 325 503.226562 320.304688 503.226562 314.515625 C 503.226562 308.726562 498.53125 304.03125 492.742188 304.03125 L 419.355469 304.03125 L 419.355469 241.128906 Z M 492.742188 241.128906 " style=" stroke:none;fill-rule:nonzero;fill:rgb(13.72549%,12.156863%,12.54902%);fill-opacity:1;" />
<path d="M 220.160156 220.160156 L 178.226562 220.160156 C 160.855469 220.160156 146.773438 234.242188 146.773438 251.613281 L 146.773438 377.417969 C 146.773438 394.789062 160.855469 408.871094 178.226562 408.871094 L 220.160156 408.871094 C 237.53125 408.871094 251.613281 394.789062 251.613281 377.417969 L 251.613281 314.515625 C 251.613281 308.726562 246.917969 304.03125 241.128906 304.03125 L 199.195312 304.03125 C 193.402344 304.03125 188.710938 308.726562 188.710938 314.515625 C 188.710938 320.304688 193.402344 325 199.195312 325 L 230.644531 325 L 230.644531 377.417969 C 230.644531 383.210938 225.953125 387.902344 220.160156 387.902344 L 178.226562 387.902344 C 172.4375 387.902344 167.742188 383.210938 167.742188 377.417969 L 167.742188 251.613281 C 167.742188 245.824219 172.4375 241.128906 178.226562 241.128906 L 220.160156 241.128906 C 225.953125 241.128906 230.644531 245.824219 230.644531 251.613281 L 230.644531 272.582031 C 230.644531 278.371094 235.339844 283.066406 241.128906 283.066406 C 246.921875 283.066406 251.613281 278.371094 251.613281 272.582031 L 251.613281 251.613281 C 251.613281 234.242188 237.53125 220.160156 220.160156 220.160156 Z M 220.160156 220.160156 " style=" stroke:none;fill-rule:nonzero;fill:rgb(13.72549%,12.156863%,12.54902%);fill-opacity:1;" />
</g>
</svg>