<svg xmlns="http://www.w3.org/2000/svg" height="650pt" version="1.1" viewBox="0 -10 650.001 650" width="650pt">
<g id="surface1">
<path d="M 482.257812 178.226562 L 10.484375 178.226562 L 10.484375 450.804688 L 639.515625 450.804688 L 639.515625 178.226562 Z M 188.710938 314.515625 L 104.839844 314.515625 Z M 262.097656 230.644531 Z M 429.839844 398.386719 L 429.839844 230.644531 L 387.902344 314.515625 L 345.96875 230.644531 L 387.902344 314.515625 L 429.835938 230.644531 L 429.835938 398.386719 Z M 461.289062 398.386719 Z M 461.289062 398.386719 " style=" stroke:none;fill-rule:nonzero;fill:rgb(20%,54.117647%,95.294118%);fill-opacity:1;" />
<path d="M 167.742188 450.804688 L 482.257812 450.804688 L 482.257812 503.226562 L 167.742188 503.226562 Z M 167.742188 450.804688 " style=" stroke:none;fill-rule:nonzero;fill:rgb(80%,88.627451%,98.823529%);fill-opacity:1;" />
<path d="M 167.742188 125.804688 L 482.257812 125.804688 L 482.257812 178.226562 L 167.742188 178.226562 Z M 167.742188 125.804688 " style=" stroke:none;fill-rule:nonzero;fill:rgb(80%,88.627451%,98.823529%);fill-opacity:1;" />
<path d="M 209.675781 83.871094 L 440.320312 83.871094 L 440.320312 104.839844 L 209.675781 104.839844 Z M 209.675781 83.871094 " style=" stroke:none;fill-rule:nonzero;fill:rgb(13.72549%,12.156863%,12.54902%);fill-opacity:1;" />
<path d="M 241.128906 52.417969 L 408.871094 52.417969 L 408.871094 73.386719 L 241.128906 73.386719 Z M 241.128906 52.417969 " style=" stroke:none;fill-rule:nonzero;fill:rgb(13.72549%,12.156863%,12.54902%);fill-opacity:1;" />
<path d="M 209.675781 524.195312 L 440.320312 524.195312 L 440.320312 545.160156 L 209.675781 545.160156 Z M 209.675781 524.195312 " style=" stroke:none;fill-rule:nonzero;fill:rgb(13.72549%,12.156863%,12.54902%);fill-opacity:1;" />
<path d="M 241.128906 555.644531 L 408.871094 555.644531 L 408.871094 576.613281 L 241.128906 576.613281 Z M 241.128906 555.644531 " style=" stroke:none;fill-rule:nonzero;fill:rgb(13.72549%,12.156863%,12.54902%);fill-opacity:1;" />
<path d="M 649.820312 177.34375 C 649.757812 176.632812 649.613281 175.929688 649.402344 175.25 C 649.230469 174.617188 648.992188 174.007812 648.699219 173.425781 C 648.402344 172.855469 648.050781 172.316406 647.652344 171.808594 C 647.210938 171.246094 646.714844 170.726562 646.175781 170.257812 C 645.933594 170.070312 645.808594 169.796875 645.554688 169.617188 L 545.160156 99.375 L 545.160156 10.484375 C 545.160156 4.695312 540.464844 0 534.675781 0 L 115.320312 0 C 109.53125 0 104.839844 4.695312 104.839844 10.484375 L 104.839844 99.378906 L 4.476562 169.617188 C 4.222656 169.796875 4.097656 170.070312 3.855469 170.257812 C 3.316406 170.726562 2.820312 171.25 2.378906 171.808594 C 1.980469 172.316406 1.628906 172.855469 1.332031 173.425781 C 1.035156 174.007812 0.800781 174.621094 0.628906 175.25 C 0.414062 175.929688 0.273438 176.632812 0.210938 177.347656 C 0.125 177.636719 0.0546875 177.929688 0 178.226562 L 0 450.804688 C 0 456.597656 4.695312 461.289062 10.484375 461.289062 L 104.839844 461.289062 L 104.839844 618.546875 C 104.839844 624.339844 109.53125 629.03125 115.324219 629.03125 L 534.679688 629.03125 C 540.46875 629.03125 545.160156 624.339844 545.160156 618.546875 L 545.160156 461.289062 L 639.515625 461.289062 C 645.308594 461.289062 650 456.597656 650 450.804688 L 650 178.226562 C 649.957031 177.929688 649.894531 177.636719 649.820312 177.34375 Z M 606.261719 167.742188 L 545.160156 167.742188 L 545.160156 124.976562 Z M 524.191406 20.96875 L 524.191406 167.742188 L 492.742188 167.742188 L 492.742188 125.804688 C 492.742188 120.015625 488.046875 115.324219 482.257812 115.324219 L 167.742188 115.324219 C 161.949219 115.324219 157.257812 120.015625 157.257812 125.804688 L 157.257812 167.742188 L 125.804688 167.742188 L 125.804688 20.96875 Z M 178.226562 167.742188 L 178.226562 136.289062 L 471.773438 136.289062 L 471.773438 167.742188 Z M 104.839844 167.742188 L 43.738281 167.742188 L 104.839844 124.976562 Z M 524.191406 608.066406 L 125.804688 608.066406 L 125.804688 461.289062 L 157.257812 461.289062 L 157.257812 503.226562 C 157.257812 509.015625 161.949219 513.710938 167.742188 513.710938 L 482.257812 513.710938 C 488.046875 513.710938 492.742188 509.015625 492.742188 503.226562 L 492.742188 461.289062 L 524.191406 461.289062 Z M 471.773438 461.289062 L 471.773438 492.742188 L 178.226562 492.742188 L 178.226562 461.289062 Z M 629.03125 440.324219 L 20.96875 440.324219 L 20.96875 188.710938 L 629.03125 188.710938 Z M 629.03125 440.324219 " style=" stroke:none;fill-rule:nonzero;fill:rgb(13.72549%,12.156863%,12.54902%);fill-opacity:1;" />
<path d="M 304.03125 220.160156 L 220.160156 220.160156 C 214.371094 220.160156 209.675781 224.855469 209.675781 230.644531 C 209.675781 236.433594 214.371094 241.128906 220.160156 241.128906 L 251.613281 241.128906 L 251.613281 398.386719 C 251.613281 404.175781 256.304688 408.871094 262.097656 408.871094 C 267.886719 408.871094 272.578125 404.175781 272.578125 398.386719 L 272.578125 241.128906 L 304.03125 241.128906 C 309.820312 241.128906 314.515625 236.433594 314.515625 230.644531 C 314.515625 224.855469 309.820312 220.160156 304.03125 220.160156 Z M 304.03125 220.160156 " style=" stroke:none;fill-rule:nonzero;fill:rgb(13.72549%,12.156863%,12.54902%);fill-opacity:1;" />
<path d="M 188.710938 220.160156 C 182.917969 220.160156 178.226562 224.855469 178.226562 230.644531 L 178.226562 304.03125 L 115.320312 304.03125 L 115.320312 230.644531 C 115.320312 224.855469 110.628906 220.160156 104.839844 220.160156 C 99.046875 220.160156 94.355469 224.855469 94.355469 230.644531 L 94.355469 398.386719 C 94.355469 404.175781 99.046875 408.871094 104.839844 408.871094 C 110.628906 408.871094 115.320312 404.175781 115.320312 398.386719 L 115.320312 325 L 178.226562 325 L 178.226562 398.386719 C 178.226562 404.175781 182.917969 408.871094 188.710938 408.871094 C 194.5 408.871094 199.191406 404.175781 199.191406 398.386719 L 199.191406 230.644531 C 199.191406 224.855469 194.5 220.160156 188.710938 220.160156 Z M 188.710938 220.160156 " style=" stroke:none;fill-rule:nonzero;fill:rgb(13.72549%,12.156863%,12.54902%);fill-opacity:1;" />
<path d="M 432.25 220.445312 C 427.515625 219.324219 422.628906 221.605469 420.453125 225.960938 L 387.902344 291.074219 L 355.402344 225.960938 C 352.878906 220.75 346.609375 218.570312 341.398438 221.089844 C 337.742188 222.863281 335.4375 226.582031 335.484375 230.644531 L 335.484375 398.386719 C 335.484375 404.175781 340.175781 408.871094 345.96875 408.871094 C 351.757812 408.871094 356.449219 404.175781 356.449219 398.386719 L 356.449219 275.054688 L 378.46875 319.203125 C 381.558594 324.386719 388.261719 326.082031 393.445312 322.992188 C 395.003906 322.0625 396.304688 320.761719 397.234375 319.203125 L 419.355469 275.054688 L 419.355469 398.386719 C 419.355469 404.175781 424.046875 408.871094 429.839844 408.871094 C 435.628906 408.871094 440.320312 404.175781 440.320312 398.386719 L 440.320312 230.644531 C 440.320312 225.785156 436.980469 221.5625 432.25 220.445312 Z M 432.25 220.445312 " style=" stroke:none;fill-rule:nonzero;fill:rgb(13.72549%,12.156863%,12.54902%);fill-opacity:1;" />
<path d="M 471.773438 230.644531 C 471.773438 224.855469 467.078125 220.160156 461.289062 220.160156 C 455.5 220.160156 450.804688 224.855469 450.804688 230.644531 L 450.804688 398.386719 C 450.804688 404.175781 455.5 408.871094 461.289062 408.871094 L 545.160156 408.871094 C 550.949219 408.871094 555.644531 404.175781 555.644531 398.386719 C 555.644531 392.597656 550.949219 387.902344 545.160156 387.902344 L 471.773438 387.902344 Z M 471.773438 230.644531 " style=" stroke:none;fill-rule:nonzero;fill:rgb(13.72549%,12.156863%,12.54902%);fill-opacity:1;" />
</g>
</svg>