<svg xmlns="http://www.w3.org/2000/svg" height="650pt" version="1.1" viewBox="0 -10 650.001 650" width="650pt">
<g id="surface1">
<path d="M 482.257812 178.226562 L 10.484375 178.226562 L 10.484375 450.804688 L 639.515625 450.804688 L 639.515625 178.226562 Z M 251.613281 398.386719 L 209.679688 398.386719 L 209.679688 230.644531 L 209.679688 398.386719 Z M 366.933594 356.453125 C 366.933594 379.613281 348.160156 398.386719 325 398.386719 L 283.066406 398.386719 L 283.066406 230.644531 L 314.515625 230.644531 C 337.675781 230.644531 366.9375 249.421875 366.9375 272.582031 L 366.9375 356.453125 Z M 482.257812 398.386719 L 440.324219 314.515625 L 398.386719 398.386719 L 440.324219 314.515625 Z M 482.257812 398.386719 " style=" stroke:none;fill-rule:nonzero;fill:rgb(40%,90.588235%,92.54902%);fill-opacity:1;" />
<path d="M 314.515625 230.644531 L 283.0625 230.644531 L 283.0625 398.386719 L 325 398.386719 C 348.160156 398.386719 366.933594 379.613281 366.933594 356.453125 L 366.933594 272.582031 C 366.933594 249.421875 337.675781 230.644531 314.515625 230.644531 Z M 314.515625 230.644531 " style=" stroke:none;fill-rule:nonzero;fill:rgb(40%,90.588235%,92.54902%);fill-opacity:1;" />
<path d="M 167.742188 450.804688 L 482.257812 450.804688 L 482.257812 503.226562 L 167.742188 503.226562 Z M 167.742188 450.804688 " style=" stroke:none;fill-rule:nonzero;fill:rgb(80%,96.862745%,97.647059%);fill-opacity:1;" />
<path d="M 167.742188 125.804688 L 482.257812 125.804688 L 482.257812 178.226562 L 167.742188 178.226562 Z M 167.742188 125.804688 " style=" stroke:none;fill-rule:nonzero;fill:rgb(80%,96.862745%,97.647059%);fill-opacity:1;" />
<path d="M 209.675781 83.871094 L 440.320312 83.871094 L 440.320312 104.839844 L 209.675781 104.839844 Z M 209.675781 83.871094 " style=" stroke:none;fill-rule:nonzero;fill:rgb(13.72549%,12.156863%,12.54902%);fill-opacity:1;" />
<path d="M 241.128906 52.417969 L 408.871094 52.417969 L 408.871094 73.386719 L 241.128906 73.386719 Z M 241.128906 52.417969 " style=" stroke:none;fill-rule:nonzero;fill:rgb(13.72549%,12.156863%,12.54902%);fill-opacity:1;" />
<path d="M 209.675781 524.195312 L 440.320312 524.195312 L 440.320312 545.160156 L 209.675781 545.160156 Z M 209.675781 524.195312 " style=" stroke:none;fill-rule:nonzero;fill:rgb(13.72549%,12.156863%,12.54902%);fill-opacity:1;" />
<path d="M 241.128906 555.644531 L 408.871094 555.644531 L 408.871094 576.613281 L 241.128906 576.613281 Z M 241.128906 555.644531 " style=" stroke:none;fill-rule:nonzero;fill:rgb(13.72549%,12.156863%,12.54902%);fill-opacity:1;" />
<path d="M 649.820312 177.355469 C 649.753906 176.644531 649.613281 175.941406 649.402344 175.257812 C 649.074219 173.996094 648.464844 172.824219 647.621094 171.832031 C 647.183594 171.257812 646.683594 170.734375 646.132812 170.269531 C 645.902344 170.082031 645.777344 169.808594 645.523438 169.640625 L 545.160156 99.375 L 545.160156 10.484375 C 545.160156 4.695312 540.46875 0 534.675781 0 L 115.324219 0 C 109.53125 0 104.839844 4.695312 104.839844 10.484375 L 104.839844 99.378906 L 4.476562 169.617188 C 4.226562 169.785156 4.101562 170.058594 3.867188 170.246094 C 3.320312 170.714844 2.820312 171.238281 2.378906 171.808594 C 1.539062 172.804688 0.933594 173.976562 0.597656 175.238281 C 0.386719 175.917969 0.242188 176.621094 0.179688 177.335938 C 0.101562 177.628906 0.0429688 177.925781 0 178.226562 L 0 450.804688 C 0 456.597656 4.695312 461.289062 10.484375 461.289062 L 104.839844 461.289062 L 104.839844 618.546875 C 104.839844 624.339844 109.53125 629.03125 115.324219 629.03125 L 534.679688 629.03125 C 540.46875 629.03125 545.160156 624.339844 545.160156 618.546875 L 545.160156 461.289062 L 639.515625 461.289062 C 645.308594 461.289062 650 456.597656 650 450.804688 L 650 178.226562 C 649.957031 177.933594 649.894531 177.640625 649.820312 177.355469 Z M 606.261719 167.742188 L 545.160156 167.742188 L 545.160156 124.976562 Z M 524.195312 20.96875 L 524.195312 167.742188 L 492.742188 167.742188 L 492.742188 125.804688 C 492.742188 120.015625 488.046875 115.324219 482.257812 115.324219 L 167.742188 115.324219 C 161.953125 115.324219 157.257812 120.015625 157.257812 125.804688 L 157.257812 167.742188 L 125.804688 167.742188 L 125.804688 20.96875 Z M 178.226562 167.742188 L 178.226562 136.289062 L 471.773438 136.289062 L 471.773438 167.742188 Z M 104.839844 167.742188 L 43.738281 167.742188 L 104.839844 124.976562 Z M 524.195312 608.066406 L 125.804688 608.066406 L 125.804688 461.289062 L 157.257812 461.289062 L 157.257812 503.226562 C 157.257812 509.015625 161.953125 513.710938 167.742188 513.710938 L 482.257812 513.710938 C 488.046875 513.710938 492.742188 509.015625 492.742188 503.226562 L 492.742188 461.289062 L 524.195312 461.289062 Z M 471.773438 461.289062 L 471.773438 492.742188 L 178.226562 492.742188 L 178.226562 461.289062 Z M 629.03125 440.324219 L 20.96875 440.324219 L 20.96875 188.710938 L 629.03125 188.710938 Z M 629.03125 440.324219 " style=" stroke:none;fill-rule:nonzero;fill:rgb(13.72549%,12.156863%,12.54902%);fill-opacity:1;" />
<path d="M 251.613281 241.128906 C 257.402344 241.128906 262.097656 236.433594 262.097656 230.644531 C 262.097656 224.855469 257.402344 220.160156 251.613281 220.160156 L 167.742188 220.160156 C 161.953125 220.160156 157.257812 224.855469 157.257812 230.644531 C 157.257812 236.433594 161.953125 241.128906 167.742188 241.128906 L 199.195312 241.128906 L 199.195312 387.902344 L 167.742188 387.902344 C 161.953125 387.902344 157.257812 392.597656 157.257812 398.386719 C 157.257812 404.175781 161.953125 408.871094 167.742188 408.871094 L 251.613281 408.871094 C 257.402344 408.871094 262.097656 404.175781 262.097656 398.386719 C 262.097656 392.597656 257.402344 387.902344 251.613281 387.902344 L 220.160156 387.902344 L 220.160156 241.128906 Z M 251.613281 241.128906 " style=" stroke:none;fill-rule:nonzero;fill:rgb(13.72549%,12.156863%,12.54902%);fill-opacity:1;" />
<path d="M 314.515625 220.160156 L 283.0625 220.160156 C 277.273438 220.160156 272.578125 224.855469 272.578125 230.644531 L 272.578125 398.386719 C 272.578125 404.175781 277.273438 408.871094 283.0625 408.871094 L 325 408.871094 C 353.9375 408.835938 377.386719 385.386719 377.417969 356.453125 L 377.417969 272.582031 C 377.417969 243.070312 343.597656 220.160156 314.515625 220.160156 Z M 356.453125 356.453125 C 356.453125 373.820312 342.371094 387.902344 325 387.902344 L 293.546875 387.902344 L 293.546875 241.128906 L 314.515625 241.128906 C 332.820312 241.128906 356.449219 256.382812 356.449219 272.582031 L 356.449219 356.453125 Z M 356.453125 356.453125 " style=" stroke:none;fill-rule:nonzero;fill:rgb(13.72549%,12.156863%,12.54902%);fill-opacity:1;" />
<path d="M 482.257812 220.160156 C 476.46875 220.160156 471.773438 224.855469 471.773438 230.644531 L 471.773438 353.976562 L 449.757812 309.828125 C 446.667969 304.648438 439.964844 302.953125 434.78125 306.039062 C 433.222656 306.96875 431.921875 308.273438 430.992188 309.828125 L 408.871094 353.976562 L 408.871094 230.644531 C 408.871094 224.855469 404.175781 220.160156 398.386719 220.160156 C 392.597656 220.160156 387.902344 224.855469 387.902344 230.644531 L 387.902344 398.386719 C 387.839844 404.175781 392.480469 408.921875 398.269531 408.988281 C 402.328125 409.035156 406.050781 406.730469 407.820312 403.074219 L 440.320312 337.957031 L 472.820312 403.074219 C 474.605469 406.644531 478.265625 408.890625 482.257812 408.871094 C 483.066406 408.867188 483.871094 408.777344 484.65625 408.597656 C 489.394531 407.484375 492.742188 403.253906 492.742188 398.386719 L 492.742188 230.644531 C 492.742188 224.855469 488.046875 220.160156 482.257812 220.160156 Z M 482.257812 220.160156 " style=" stroke:none;fill-rule:nonzero;fill:rgb(13.72549%,12.156863%,12.54902%);fill-opacity:1;" />
</g>
</svg>