<svg xmlns="http://www.w3.org/2000/svg" height="650pt" version="1.1" viewBox="0 -10 650.001 650" width="650pt">
<g id="surface1">
<path d="M 482.257812 178.226562 L 10.484375 178.226562 L 10.484375 450.804688 L 639.515625 450.804688 L 639.515625 178.226562 Z M 251.613281 398.386719 L 209.675781 398.386719 L 209.675781 230.644531 L 209.675781 398.386719 Z M 304.03125 314.515625 L 345.964844 314.515625 C 357.546875 314.515625 366.933594 323.90625 366.933594 335.484375 L 366.933594 377.417969 C 366.933594 389 357.546875 398.386719 345.964844 398.386719 C 357.546875 398.386719 366.933594 389 366.933594 377.417969 L 366.933594 335.484375 C 366.933594 323.90625 357.546875 314.515625 345.964844 314.515625 L 304.03125 314.515625 C 292.449219 314.515625 283.0625 305.128906 283.0625 293.546875 L 283.0625 251.613281 C 283.0625 240.035156 292.449219 230.644531 304.03125 230.644531 C 292.449219 230.644531 283.0625 240.035156 283.0625 251.613281 L 283.0625 293.546875 C 283.0625 305.128906 292.449219 314.515625 304.03125 314.515625 Z M 482.257812 377.417969 C 482.257812 389 472.867188 398.386719 461.289062 398.386719 L 419.355469 398.386719 C 407.773438 398.386719 398.386719 389 398.386719 377.417969 L 398.386719 251.613281 C 398.386719 240.035156 407.773438 230.644531 419.355469 230.644531 L 461.289062 230.644531 C 472.867188 230.644531 482.257812 240.035156 482.257812 251.613281 Z M 482.257812 377.417969 " style=" stroke:none;fill-rule:nonzero;fill:rgb(74.509804%,54.509804%,86.27451%);fill-opacity:1;" />
<path d="M 419.355469 230.644531 L 461.289062 230.644531 C 472.867188 230.644531 482.257812 240.035156 482.257812 251.613281 L 482.257812 377.417969 C 482.257812 389 472.867188 398.386719 461.289062 398.386719 L 419.355469 398.386719 C 407.773438 398.386719 398.386719 389 398.386719 377.417969 L 398.386719 251.613281 C 398.386719 240.035156 407.773438 230.644531 419.355469 230.644531 Z M 419.355469 230.644531 " style=" stroke:none;fill-rule:nonzero;fill:rgb(74.509804%,54.509804%,86.27451%);fill-opacity:1;" />
<path d="M 167.742188 450.804688 L 482.257812 450.804688 L 482.257812 503.226562 L 167.742188 503.226562 Z M 167.742188 450.804688 " style=" stroke:none;fill-rule:nonzero;fill:rgb(91.372549%,84.705882%,95.294118%);fill-opacity:1;" />
<path d="M 167.742188 125.804688 L 482.257812 125.804688 L 482.257812 178.226562 L 167.742188 178.226562 Z M 167.742188 125.804688 " style=" stroke:none;fill-rule:nonzero;fill:rgb(91.372549%,84.705882%,95.294118%);fill-opacity:1;" />
<path d="M 209.675781 83.871094 L 440.320312 83.871094 L 440.320312 104.839844 L 209.675781 104.839844 Z M 209.675781 83.871094 " style=" stroke:none;fill-rule:nonzero;fill:rgb(13.72549%,12.156863%,12.54902%);fill-opacity:1;" />
<path d="M 241.128906 52.417969 L 408.871094 52.417969 L 408.871094 73.386719 L 241.128906 73.386719 Z M 241.128906 52.417969 " style=" stroke:none;fill-rule:nonzero;fill:rgb(13.72549%,12.156863%,12.54902%);fill-opacity:1;" />
<path d="M 209.675781 524.195312 L 440.320312 524.195312 L 440.320312 545.160156 L 209.675781 545.160156 Z M 209.675781 524.195312 " style=" stroke:none;fill-rule:nonzero;fill:rgb(13.72549%,12.156863%,12.54902%);fill-opacity:1;" />
<path d="M 241.128906 555.644531 L 408.871094 555.644531 L 408.871094 576.613281 L 241.128906 576.613281 Z M 241.128906 555.644531 " style=" stroke:none;fill-rule:nonzero;fill:rgb(13.72549%,12.156863%,12.54902%);fill-opacity:1;" />
<path d="M 649.820312 177.34375 C 649.757812 176.632812 649.613281 175.929688 649.402344 175.25 C 649.230469 174.617188 648.992188 174.007812 648.699219 173.425781 C 648.402344 172.855469 648.050781 172.316406 647.652344 171.808594 C 647.210938 171.246094 646.714844 170.726562 646.175781 170.257812 C 645.933594 170.070312 645.808594 169.796875 645.554688 169.617188 L 545.160156 99.375 L 545.160156 10.484375 C 545.160156 4.695312 540.464844 0 534.675781 0 L 115.320312 0 C 109.53125 0 104.839844 4.695312 104.839844 10.484375 L 104.839844 99.378906 L 4.476562 169.617188 C 4.222656 169.796875 4.097656 170.070312 3.855469 170.257812 C 3.316406 170.726562 2.820312 171.25 2.378906 171.808594 C 1.980469 172.316406 1.628906 172.855469 1.332031 173.425781 C 1.035156 174.007812 0.800781 174.621094 0.628906 175.25 C 0.414062 175.929688 0.273438 176.632812 0.210938 177.347656 C 0.125 177.636719 0.0546875 177.929688 0 178.226562 L 0 450.804688 C 0 456.597656 4.695312 461.289062 10.484375 461.289062 L 104.839844 461.289062 L 104.839844 618.546875 C 104.839844 624.339844 109.53125 629.03125 115.324219 629.03125 L 534.679688 629.03125 C 540.46875 629.03125 545.160156 624.339844 545.160156 618.546875 L 545.160156 461.289062 L 639.515625 461.289062 C 645.308594 461.289062 650 456.597656 650 450.804688 L 650 178.226562 C 649.957031 177.929688 649.894531 177.636719 649.820312 177.34375 Z M 606.261719 167.742188 L 545.160156 167.742188 L 545.160156 124.976562 Z M 524.191406 20.96875 L 524.191406 167.742188 L 492.742188 167.742188 L 492.742188 125.804688 C 492.742188 120.015625 488.046875 115.324219 482.257812 115.324219 L 167.742188 115.324219 C 161.949219 115.324219 157.257812 120.015625 157.257812 125.804688 L 157.257812 167.742188 L 125.804688 167.742188 L 125.804688 20.96875 Z M 178.226562 167.742188 L 178.226562 136.289062 L 471.773438 136.289062 L 471.773438 167.742188 Z M 104.839844 167.742188 L 43.738281 167.742188 L 104.839844 124.976562 Z M 524.191406 608.066406 L 125.804688 608.066406 L 125.804688 461.289062 L 157.257812 461.289062 L 157.257812 503.226562 C 157.257812 509.015625 161.949219 513.710938 167.742188 513.710938 L 482.257812 513.710938 C 488.046875 513.710938 492.742188 509.015625 492.742188 503.226562 L 492.742188 461.289062 L 524.191406 461.289062 Z M 471.773438 461.289062 L 471.773438 492.742188 L 178.226562 492.742188 L 178.226562 461.289062 Z M 629.03125 440.324219 L 20.96875 440.324219 L 20.96875 188.710938 L 629.03125 188.710938 Z M 629.03125 440.324219 " style=" stroke:none;fill-rule:nonzero;fill:rgb(13.72549%,12.156863%,12.54902%);fill-opacity:1;" />
<path d="M 251.613281 241.128906 C 257.402344 241.128906 262.097656 236.433594 262.097656 230.644531 C 262.097656 224.855469 257.402344 220.160156 251.613281 220.160156 L 167.742188 220.160156 C 161.949219 220.160156 157.257812 224.855469 157.257812 230.644531 C 157.257812 236.433594 161.949219 241.128906 167.742188 241.128906 L 199.191406 241.128906 L 199.191406 387.902344 L 167.742188 387.902344 C 161.949219 387.902344 157.257812 392.597656 157.257812 398.386719 C 157.257812 404.175781 161.949219 408.871094 167.742188 408.871094 L 251.613281 408.871094 C 257.402344 408.871094 262.097656 404.175781 262.097656 398.386719 C 262.097656 392.597656 257.402344 387.902344 251.613281 387.902344 L 220.160156 387.902344 L 220.160156 241.128906 Z M 251.613281 241.128906 " style=" stroke:none;fill-rule:nonzero;fill:rgb(13.72549%,12.156863%,12.54902%);fill-opacity:1;" />
<path d="M 304.03125 241.128906 L 366.933594 241.128906 C 372.722656 241.128906 377.417969 236.433594 377.417969 230.644531 C 377.417969 224.855469 372.722656 220.160156 366.933594 220.160156 L 304.03125 220.160156 C 286.660156 220.160156 272.578125 234.242188 272.578125 251.613281 L 272.578125 293.546875 C 272.578125 310.917969 286.660156 325 304.03125 325 L 345.964844 325 C 351.757812 325 356.449219 329.695312 356.449219 335.484375 L 356.449219 377.417969 C 356.449219 383.210938 351.757812 387.902344 345.964844 387.902344 L 283.0625 387.902344 C 277.273438 387.902344 272.578125 392.597656 272.578125 398.386719 C 272.578125 404.175781 277.273438 408.871094 283.0625 408.871094 L 345.964844 408.871094 C 363.335938 408.871094 377.417969 394.789062 377.417969 377.417969 L 377.417969 335.484375 C 377.417969 318.113281 363.335938 304.03125 345.964844 304.03125 L 304.03125 304.03125 C 298.242188 304.03125 293.546875 299.339844 293.546875 293.546875 L 293.546875 251.613281 C 293.546875 245.824219 298.242188 241.128906 304.03125 241.128906 Z M 304.03125 241.128906 " style=" stroke:none;fill-rule:nonzero;fill:rgb(13.72549%,12.156863%,12.54902%);fill-opacity:1;" />
<path d="M 461.289062 220.160156 L 419.355469 220.160156 C 401.984375 220.160156 387.902344 234.242188 387.902344 251.613281 L 387.902344 377.417969 C 387.902344 394.789062 401.984375 408.871094 419.355469 408.871094 L 461.289062 408.871094 C 478.660156 408.871094 492.742188 394.789062 492.742188 377.417969 L 492.742188 251.613281 C 492.742188 234.242188 478.660156 220.160156 461.289062 220.160156 Z M 471.773438 377.417969 C 471.773438 383.210938 467.078125 387.902344 461.289062 387.902344 L 419.355469 387.902344 C 413.5625 387.902344 408.871094 383.210938 408.871094 377.417969 L 408.871094 251.613281 C 408.871094 245.824219 413.5625 241.128906 419.355469 241.128906 L 461.289062 241.128906 C 467.078125 241.128906 471.773438 245.824219 471.773438 251.613281 Z M 471.773438 377.417969 " style=" stroke:none;fill-rule:nonzero;fill:rgb(13.72549%,12.156863%,12.54902%);fill-opacity:1;" />
</g>
</svg>