<svg xmlns="http://www.w3.org/2000/svg" height="650pt" version="1.1" viewBox="0 -10 650.001 650" width="650pt">
<g id="surface1">
<path d="M 482.257812 178.226562 L 10.484375 178.226562 L 10.484375 450.804688 L 639.515625 450.804688 L 639.515625 178.226562 Z M 188.710938 356.453125 C 188.710938 379.613281 169.933594 398.386719 146.773438 398.386719 C 123.613281 398.386719 104.839844 379.613281 104.839844 356.453125 C 104.839844 379.613281 123.613281 398.386719 146.773438 398.386719 C 169.933594 398.386719 188.710938 379.613281 188.710938 356.453125 Z M 304.03125 293.546875 C 304.03125 305.128906 294.644531 314.515625 283.0625 314.515625 L 220.160156 314.515625 L 220.160156 230.644531 L 283.0625 230.644531 C 294.644531 230.644531 304.03125 240.035156 304.03125 251.613281 Z M 429.839844 314.515625 L 345.96875 314.515625 L 345.96875 398.386719 L 345.96875 230.644531 L 345.96875 314.515625 Z M 545.160156 251.613281 C 545.160156 240.035156 535.773438 230.644531 524.191406 230.644531 L 482.257812 230.644531 C 470.675781 230.644531 461.289062 240.035156 461.289062 251.613281 L 461.289062 377.417969 C 461.289062 389 470.675781 398.386719 482.257812 398.386719 L 524.191406 398.386719 C 535.773438 398.386719 545.160156 389 545.160156 377.417969 L 545.160156 314.515625 L 545.160156 377.417969 C 545.160156 389 535.773438 398.386719 524.191406 398.386719 L 482.257812 398.386719 C 470.675781 398.386719 461.289062 389 461.289062 377.417969 L 461.289062 251.613281 C 461.289062 240.035156 470.675781 230.644531 482.257812 230.644531 L 524.191406 230.644531 C 535.773438 230.644531 545.160156 240.035156 545.160156 251.613281 Z M 545.160156 251.613281 " style=" stroke:none;fill-rule:nonzero;fill:rgb(100%,45.098039%,30.980392%);fill-opacity:1;" />
<path d="M 283.0625 230.644531 L 220.160156 230.644531 L 220.160156 314.515625 L 283.0625 314.515625 C 294.644531 314.515625 304.03125 305.128906 304.03125 293.546875 L 304.03125 251.613281 C 304.03125 240.035156 294.644531 230.644531 283.0625 230.644531 Z M 283.0625 230.644531 " style=" stroke:none;fill-rule:nonzero;fill:rgb(100%,45.098039%,30.980392%);fill-opacity:1;" />
<path d="M 167.742188 450.804688 L 482.257812 450.804688 L 482.257812 503.226562 L 167.742188 503.226562 Z M 167.742188 450.804688 " style=" stroke:none;fill-rule:nonzero;fill:rgb(100%,86.27451%,82.745098%);fill-opacity:1;" />
<path d="M 167.742188 125.804688 L 482.257812 125.804688 L 482.257812 178.226562 L 167.742188 178.226562 Z M 167.742188 125.804688 " style=" stroke:none;fill-rule:nonzero;fill:rgb(100%,86.27451%,82.745098%);fill-opacity:1;" />
<path d="M 209.675781 83.871094 L 440.320312 83.871094 L 440.320312 104.839844 L 209.675781 104.839844 Z M 209.675781 83.871094 " style=" stroke:none;fill-rule:nonzero;fill:rgb(13.72549%,12.156863%,12.54902%);fill-opacity:1;" />
<path d="M 241.128906 52.417969 L 408.871094 52.417969 L 408.871094 73.386719 L 241.128906 73.386719 Z M 241.128906 52.417969 " style=" stroke:none;fill-rule:nonzero;fill:rgb(13.72549%,12.156863%,12.54902%);fill-opacity:1;" />
<path d="M 209.675781 524.195312 L 440.320312 524.195312 L 440.320312 545.160156 L 209.675781 545.160156 Z M 209.675781 524.195312 " style=" stroke:none;fill-rule:nonzero;fill:rgb(13.72549%,12.156863%,12.54902%);fill-opacity:1;" />
<path d="M 241.128906 555.644531 L 408.871094 555.644531 L 408.871094 576.613281 L 241.128906 576.613281 Z M 241.128906 555.644531 " style=" stroke:none;fill-rule:nonzero;fill:rgb(13.72549%,12.156863%,12.54902%);fill-opacity:1;" />
<path d="M 649.820312 177.34375 C 649.757812 176.632812 649.613281 175.929688 649.402344 175.25 C 649.230469 174.617188 648.992188 174.007812 648.699219 173.425781 C 648.402344 172.855469 648.050781 172.316406 647.652344 171.808594 C 647.210938 171.246094 646.714844 170.726562 646.175781 170.257812 C 645.933594 170.070312 645.808594 169.796875 645.554688 169.617188 L 545.160156 99.375 L 545.160156 10.484375 C 545.160156 4.695312 540.464844 0 534.675781 0 L 115.320312 0 C 109.53125 0 104.839844 4.695312 104.839844 10.484375 L 104.839844 99.378906 L 4.476562 169.617188 C 4.222656 169.796875 4.097656 170.070312 3.855469 170.257812 C 3.316406 170.726562 2.820312 171.25 2.378906 171.808594 C 1.980469 172.316406 1.628906 172.855469 1.332031 173.425781 C 1.035156 174.007812 0.800781 174.621094 0.628906 175.25 C 0.414062 175.929688 0.273438 176.632812 0.210938 177.347656 C 0.125 177.636719 0.0546875 177.929688 0 178.226562 L 0 450.804688 C 0 456.597656 4.695312 461.289062 10.484375 461.289062 L 104.839844 461.289062 L 104.839844 618.546875 C 104.839844 624.339844 109.53125 629.03125 115.324219 629.03125 L 534.679688 629.03125 C 540.46875 629.03125 545.160156 624.339844 545.160156 618.546875 L 545.160156 461.289062 L 639.515625 461.289062 C 645.308594 461.289062 650 456.597656 650 450.804688 L 650 178.226562 C 649.957031 177.929688 649.894531 177.636719 649.820312 177.34375 Z M 606.261719 167.742188 L 545.160156 167.742188 L 545.160156 124.976562 Z M 524.191406 20.96875 L 524.191406 167.742188 L 492.742188 167.742188 L 492.742188 125.804688 C 492.742188 120.015625 488.046875 115.324219 482.257812 115.324219 L 167.742188 115.324219 C 161.949219 115.324219 157.257812 120.015625 157.257812 125.804688 L 157.257812 167.742188 L 125.804688 167.742188 L 125.804688 20.96875 Z M 178.226562 167.742188 L 178.226562 136.289062 L 471.773438 136.289062 L 471.773438 167.742188 Z M 104.839844 167.742188 L 43.738281 167.742188 L 104.839844 124.976562 Z M 524.191406 608.066406 L 125.804688 608.066406 L 125.804688 461.289062 L 157.257812 461.289062 L 157.257812 503.226562 C 157.257812 509.015625 161.949219 513.710938 167.742188 513.710938 L 482.257812 513.710938 C 488.046875 513.710938 492.742188 509.015625 492.742188 503.226562 L 492.742188 461.289062 L 524.191406 461.289062 Z M 471.773438 461.289062 L 471.773438 492.742188 L 178.226562 492.742188 L 178.226562 461.289062 Z M 629.03125 440.324219 L 20.96875 440.324219 L 20.96875 188.710938 L 629.03125 188.710938 Z M 629.03125 440.324219 " style=" stroke:none;fill-rule:nonzero;fill:rgb(13.72549%,12.156863%,12.54902%);fill-opacity:1;" />
<path d="M 283.0625 220.160156 L 220.160156 220.160156 C 214.371094 220.160156 209.675781 224.855469 209.675781 230.644531 L 209.675781 398.386719 C 209.675781 404.175781 214.371094 408.871094 220.160156 408.871094 C 225.949219 408.871094 230.644531 404.175781 230.644531 398.386719 L 230.644531 325 L 283.0625 325 C 300.433594 325 314.515625 310.917969 314.515625 293.546875 L 314.515625 251.613281 C 314.515625 234.242188 300.433594 220.160156 283.0625 220.160156 Z M 293.546875 293.546875 C 293.546875 299.339844 288.851562 304.03125 283.0625 304.03125 L 230.644531 304.03125 L 230.644531 241.128906 L 283.0625 241.128906 C 288.851562 241.128906 293.546875 245.824219 293.546875 251.613281 Z M 293.546875 293.546875 " style=" stroke:none;fill-rule:nonzero;fill:rgb(13.72549%,12.156863%,12.54902%);fill-opacity:1;" />
<path d="M 482.257812 220.160156 C 464.886719 220.160156 450.804688 234.242188 450.804688 251.613281 L 450.804688 377.417969 C 450.804688 394.789062 464.886719 408.871094 482.257812 408.871094 L 524.191406 408.871094 C 541.5625 408.871094 555.644531 394.789062 555.644531 377.417969 L 555.644531 314.515625 C 555.644531 308.726562 550.949219 304.03125 545.160156 304.03125 L 503.222656 304.03125 C 497.433594 304.03125 492.738281 308.726562 492.738281 314.515625 C 492.738281 320.304688 497.433594 325 503.222656 325 L 534.675781 325 L 534.675781 377.417969 C 534.675781 383.210938 529.980469 387.902344 524.191406 387.902344 L 482.257812 387.902344 C 476.46875 387.902344 471.773438 383.210938 471.773438 377.417969 L 471.773438 251.613281 C 471.773438 245.824219 476.46875 241.128906 482.257812 241.128906 L 524.191406 241.128906 C 529.980469 241.128906 534.675781 245.824219 534.675781 251.613281 L 534.675781 272.582031 C 534.675781 278.371094 539.371094 283.066406 545.160156 283.066406 C 550.949219 283.066406 555.644531 278.371094 555.644531 272.582031 L 555.644531 251.613281 C 555.644531 234.242188 541.5625 220.160156 524.191406 220.160156 Z M 482.257812 220.160156 " style=" stroke:none;fill-rule:nonzero;fill:rgb(13.72549%,12.156863%,12.54902%);fill-opacity:1;" />
<path d="M 188.710938 220.160156 C 182.917969 220.160156 178.226562 224.855469 178.226562 230.644531 L 178.226562 356.453125 C 178.226562 373.820312 164.144531 387.902344 146.773438 387.902344 C 129.402344 387.902344 115.320312 373.824219 115.320312 356.453125 C 115.320312 350.660156 110.628906 345.96875 104.835938 345.96875 C 99.046875 345.96875 94.351562 350.660156 94.351562 356.453125 C 94.351562 385.402344 117.820312 408.871094 146.773438 408.871094 C 175.722656 408.871094 199.191406 385.402344 199.191406 356.453125 L 199.191406 230.644531 C 199.191406 224.855469 194.5 220.160156 188.710938 220.160156 Z M 188.710938 220.160156 " style=" stroke:none;fill-rule:nonzero;fill:rgb(13.72549%,12.156863%,12.54902%);fill-opacity:1;" />
<path d="M 429.839844 241.128906 C 435.628906 241.128906 440.320312 236.433594 440.320312 230.644531 C 440.320312 224.855469 435.628906 220.160156 429.839844 220.160156 L 345.96875 220.160156 C 340.175781 220.160156 335.484375 224.855469 335.484375 230.644531 L 335.484375 398.386719 C 335.484375 404.175781 340.175781 408.871094 345.96875 408.871094 L 429.839844 408.871094 C 435.628906 408.871094 440.320312 404.175781 440.320312 398.386719 C 440.320312 392.597656 435.628906 387.902344 429.839844 387.902344 L 356.449219 387.902344 L 356.449219 325 L 429.839844 325 C 435.628906 325 440.320312 320.304688 440.320312 314.515625 C 440.320312 308.726562 435.628906 304.03125 429.839844 304.03125 L 356.449219 304.03125 L 356.449219 241.128906 Z M 429.839844 241.128906 " style=" stroke:none;fill-rule:nonzero;fill:rgb(13.72549%,12.156863%,12.54902%);fill-opacity:1;" />
</g>
</svg>