<svg xmlns="http://www.w3.org/2000/svg" height="650pt" version="1.1" viewBox="0 -10 650.001 650" width="650pt">
<g id="surface1">
<path d="M 482.257812 178.226562 L 10.484375 178.226562 L 10.484375 450.804688 L 639.515625 450.804688 L 639.515625 178.226562 Z M 251.613281 398.386719 L 251.613281 230.644531 L 209.675781 314.515625 L 167.742188 230.644531 L 209.675781 314.515625 L 251.609375 230.644531 L 251.609375 398.386719 Z M 366.933594 356.453125 C 366.933594 379.613281 348.160156 398.386719 325 398.386719 L 283.0625 398.386719 L 283.0625 230.644531 L 314.515625 230.644531 C 337.675781 230.644531 366.933594 249.421875 366.933594 272.582031 Z M 482.257812 293.546875 C 482.257812 305.128906 472.867188 314.515625 461.289062 314.515625 C 472.867188 314.515625 482.257812 323.90625 482.257812 335.484375 L 482.257812 377.417969 C 482.257812 389 472.867188 398.386719 461.289062 398.386719 L 398.386719 398.386719 L 398.386719 230.644531 L 461.289062 230.644531 C 472.867188 230.644531 482.257812 240.035156 482.257812 251.613281 Z M 482.257812 293.546875 " style=" stroke:none;fill-rule:nonzero;fill:rgb(63.529412%,85.882353%,69.411765%);fill-opacity:1;" />
<path d="M 314.515625 230.644531 L 283.0625 230.644531 L 283.0625 398.386719 L 325 398.386719 C 348.160156 398.386719 366.933594 379.613281 366.933594 356.453125 L 366.933594 272.582031 C 366.933594 249.421875 337.675781 230.644531 314.515625 230.644531 Z M 314.515625 230.644531 " style=" stroke:none;fill-rule:nonzero;fill:rgb(63.529412%,85.882353%,69.411765%);fill-opacity:1;" />
<path d="M 461.289062 230.644531 L 398.386719 230.644531 L 398.386719 314.515625 L 461.289062 314.515625 C 472.867188 314.515625 482.257812 305.128906 482.257812 293.546875 L 482.257812 251.613281 C 482.257812 240.035156 472.867188 230.644531 461.289062 230.644531 Z M 461.289062 230.644531 " style=" stroke:none;fill-rule:nonzero;fill:rgb(63.529412%,85.882353%,69.411765%);fill-opacity:1;" />
<path d="M 398.386719 398.386719 L 461.289062 398.386719 C 472.867188 398.386719 482.257812 389 482.257812 377.417969 L 482.257812 335.484375 C 482.257812 323.90625 472.867188 314.515625 461.289062 314.515625 L 398.386719 314.515625 Z M 398.386719 398.386719 " style=" stroke:none;fill-rule:nonzero;fill:rgb(63.529412%,85.882353%,69.411765%);fill-opacity:1;" />
<path d="M 167.742188 450.804688 L 482.257812 450.804688 L 482.257812 503.226562 L 167.742188 503.226562 Z M 167.742188 450.804688 " style=" stroke:none;fill-rule:nonzero;fill:rgb(87.843137%,95.294118%,89.803922%);fill-opacity:1;" />
<path d="M 167.742188 125.804688 L 482.257812 125.804688 L 482.257812 178.226562 L 167.742188 178.226562 Z M 167.742188 125.804688 " style=" stroke:none;fill-rule:nonzero;fill:rgb(87.843137%,95.294118%,89.803922%);fill-opacity:1;" />
<path d="M 209.675781 83.871094 L 440.320312 83.871094 L 440.320312 104.839844 L 209.675781 104.839844 Z M 209.675781 83.871094 " style=" stroke:none;fill-rule:nonzero;fill:rgb(13.72549%,12.156863%,12.54902%);fill-opacity:1;" />
<path d="M 241.128906 52.417969 L 408.871094 52.417969 L 408.871094 73.386719 L 241.128906 73.386719 Z M 241.128906 52.417969 " style=" stroke:none;fill-rule:nonzero;fill:rgb(13.72549%,12.156863%,12.54902%);fill-opacity:1;" />
<path d="M 209.675781 524.195312 L 440.320312 524.195312 L 440.320312 545.160156 L 209.675781 545.160156 Z M 209.675781 524.195312 " style=" stroke:none;fill-rule:nonzero;fill:rgb(13.72549%,12.156863%,12.54902%);fill-opacity:1;" />
<path d="M 241.128906 555.644531 L 408.871094 555.644531 L 408.871094 576.613281 L 241.128906 576.613281 Z M 241.128906 555.644531 " style=" stroke:none;fill-rule:nonzero;fill:rgb(13.72549%,12.156863%,12.54902%);fill-opacity:1;" />
<path d="M 649.820312 177.34375 C 649.757812 176.632812 649.613281 175.929688 649.402344 175.25 C 649.230469 174.617188 648.992188 174 648.699219 173.414062 C 648.398438 172.847656 648.046875 172.3125 647.652344 171.808594 C 647.214844 171.238281 646.714844 170.71875 646.164062 170.257812 C 645.933594 170.058594 645.808594 169.785156 645.554688 169.617188 L 545.160156 99.375 L 545.160156 10.484375 C 545.160156 4.695312 540.464844 0 534.675781 0 L 115.320312 0 C 109.53125 0 104.839844 4.695312 104.839844 10.484375 L 104.839844 99.378906 L 4.476562 169.617188 C 4.222656 169.785156 4.097656 170.058594 3.867188 170.257812 C 3.316406 170.71875 2.816406 171.242188 2.378906 171.808594 C 1.980469 172.3125 1.632812 172.847656 1.332031 173.414062 C 1.035156 174 0.800781 174.617188 0.628906 175.25 C 0.414062 175.929688 0.273438 176.632812 0.210938 177.347656 C 0.125 177.636719 0.0546875 177.929688 0 178.226562 L 0 450.804688 C 0 456.597656 4.695312 461.289062 10.484375 461.289062 L 104.839844 461.289062 L 104.839844 618.546875 C 104.839844 624.339844 109.53125 629.03125 115.324219 629.03125 L 534.679688 629.03125 C 540.46875 629.03125 545.160156 624.339844 545.160156 618.546875 L 545.160156 461.289062 L 639.515625 461.289062 C 645.308594 461.289062 650 456.597656 650 450.804688 L 650 178.226562 C 649.957031 177.929688 649.894531 177.636719 649.820312 177.34375 Z M 606.261719 167.742188 L 545.160156 167.742188 L 545.160156 124.976562 Z M 524.191406 20.96875 L 524.191406 167.742188 L 492.742188 167.742188 L 492.742188 125.804688 C 492.742188 120.015625 488.046875 115.324219 482.257812 115.324219 L 167.742188 115.324219 C 161.949219 115.324219 157.257812 120.015625 157.257812 125.804688 L 157.257812 167.742188 L 125.804688 167.742188 L 125.804688 20.96875 Z M 178.226562 167.742188 L 178.226562 136.289062 L 471.773438 136.289062 L 471.773438 167.742188 Z M 104.839844 167.742188 L 43.738281 167.742188 L 104.839844 124.976562 Z M 524.191406 608.066406 L 125.804688 608.066406 L 125.804688 461.289062 L 157.257812 461.289062 L 157.257812 503.226562 C 157.257812 509.015625 161.949219 513.710938 167.742188 513.710938 L 482.257812 513.710938 C 488.046875 513.710938 492.742188 509.015625 492.742188 503.226562 L 492.742188 461.289062 L 524.191406 461.289062 Z M 471.773438 461.289062 L 471.773438 492.742188 L 178.226562 492.742188 L 178.226562 461.289062 Z M 629.03125 440.324219 L 20.96875 440.324219 L 20.96875 188.710938 L 629.03125 188.710938 Z M 629.03125 440.324219 " style=" stroke:none;fill-rule:nonzero;fill:rgb(13.72549%,12.156863%,12.54902%);fill-opacity:1;" />
<path d="M 254.023438 220.433594 C 249.285156 219.316406 244.402344 221.601562 242.230469 225.960938 L 209.675781 291.074219 L 177.175781 225.960938 C 174.652344 220.75 168.382812 218.570312 163.171875 221.089844 C 159.515625 222.863281 157.210938 226.582031 157.257812 230.644531 L 157.257812 398.386719 C 157.257812 404.175781 161.949219 408.871094 167.742188 408.871094 C 173.53125 408.871094 178.226562 404.175781 178.226562 398.386719 L 178.226562 275.054688 L 200.292969 319.203125 C 203.382812 324.386719 210.089844 326.082031 215.269531 322.992188 C 216.828125 322.0625 218.132812 320.761719 219.058594 319.203125 L 241.128906 275.054688 L 241.128906 398.386719 C 241.128906 404.175781 245.824219 408.871094 251.613281 408.871094 C 257.402344 408.871094 262.097656 404.175781 262.097656 398.386719 L 262.097656 230.644531 C 262.101562 225.78125 258.757812 221.554688 254.023438 220.433594 Z M 254.023438 220.433594 " style=" stroke:none;fill-rule:nonzero;fill:rgb(13.72549%,12.156863%,12.54902%);fill-opacity:1;" />
<path d="M 314.515625 220.160156 L 283.0625 220.160156 C 277.273438 220.160156 272.578125 224.855469 272.578125 230.644531 L 272.578125 398.386719 C 272.578125 404.175781 277.273438 408.871094 283.0625 408.871094 L 325 408.871094 C 353.933594 408.835938 377.382812 385.386719 377.417969 356.453125 L 377.417969 272.582031 C 377.417969 243.070312 343.597656 220.160156 314.515625 220.160156 Z M 356.449219 356.453125 C 356.449219 373.820312 342.371094 387.902344 325 387.902344 L 293.546875 387.902344 L 293.546875 241.128906 L 314.515625 241.128906 C 332.828125 241.128906 356.449219 256.382812 356.449219 272.582031 Z M 356.449219 356.453125 " style=" stroke:none;fill-rule:nonzero;fill:rgb(13.72549%,12.156863%,12.54902%);fill-opacity:1;" />
<path d="M 461.289062 220.160156 L 398.386719 220.160156 C 392.597656 220.160156 387.902344 224.855469 387.902344 230.644531 L 387.902344 398.386719 C 387.902344 404.175781 392.597656 408.871094 398.386719 408.871094 L 461.289062 408.871094 C 478.660156 408.871094 492.742188 394.789062 492.742188 377.417969 L 492.742188 335.484375 C 492.714844 327.722656 489.800781 320.246094 484.5625 314.515625 C 489.800781 308.785156 492.714844 301.308594 492.742188 293.546875 L 492.742188 251.613281 C 492.742188 234.242188 478.660156 220.160156 461.289062 220.160156 Z M 408.871094 241.128906 L 461.289062 241.128906 C 467.078125 241.128906 471.773438 245.824219 471.773438 251.613281 L 471.773438 293.546875 C 471.773438 299.339844 467.078125 304.03125 461.289062 304.03125 L 408.871094 304.03125 Z M 471.773438 377.417969 C 471.773438 383.210938 467.078125 387.902344 461.289062 387.902344 L 408.871094 387.902344 L 408.871094 325 L 461.289062 325 C 467.078125 325 471.773438 329.695312 471.773438 335.484375 Z M 471.773438 377.417969 " style=" stroke:none;fill-rule:nonzero;fill:rgb(13.72549%,12.156863%,12.54902%);fill-opacity:1;" />
</g>
</svg>