<svg xmlns="http://www.w3.org/2000/svg" height="650pt" version="1.1" viewBox="0 -10 650.001 650" width="650pt">
<g id="surface1">
<path d="M 482.257812 178.226562 L 10.484375 178.226562 L 10.484375 450.804688 L 639.515625 450.804688 L 639.515625 178.226562 Z M 241.128906 398.386719 L 241.128906 230.644531 L 199.195312 314.515625 L 157.257812 230.644531 L 199.195312 314.515625 L 241.128906 230.644531 Z M 366.933594 293.546875 C 366.933594 305.128906 357.546875 314.515625 345.96875 314.515625 L 283.0625 314.515625 L 283.0625 230.644531 L 345.96875 230.644531 C 357.546875 230.644531 366.933594 240.035156 366.933594 251.613281 Z M 492.742188 272.582031 L 492.742188 251.613281 C 492.742188 240.035156 483.355469 230.644531 471.773438 230.644531 L 429.839844 230.644531 C 418.257812 230.644531 408.871094 240.035156 408.871094 251.613281 L 408.871094 377.417969 C 408.871094 389 418.257812 398.386719 429.839844 398.386719 L 471.773438 398.386719 C 483.355469 398.386719 492.742188 389 492.742188 377.417969 L 492.742188 314.515625 L 492.742188 377.417969 C 492.742188 389 483.355469 398.386719 471.773438 398.386719 L 429.839844 398.386719 C 418.257812 398.386719 408.871094 389 408.871094 377.417969 L 408.871094 251.613281 C 408.871094 240.035156 418.257812 230.644531 429.839844 230.644531 L 471.773438 230.644531 C 483.355469 230.644531 492.742188 240.035156 492.742188 251.613281 Z M 492.742188 272.582031 " style=" stroke:none;fill-rule:nonzero;fill:rgb(20%,54.117647%,95.294118%);fill-opacity:1;" />
<path d="M 345.96875 230.644531 L 283.066406 230.644531 L 283.066406 314.515625 L 345.96875 314.515625 C 357.546875 314.515625 366.9375 305.128906 366.9375 293.546875 L 366.9375 251.613281 C 366.933594 240.035156 357.546875 230.644531 345.96875 230.644531 Z M 345.96875 230.644531 " style=" stroke:none;fill-rule:nonzero;fill:rgb(20%,54.117647%,95.294118%);fill-opacity:1;" />
<path d="M 167.742188 450.804688 L 482.257812 450.804688 L 482.257812 503.226562 L 167.742188 503.226562 Z M 167.742188 450.804688 " style=" stroke:none;fill-rule:nonzero;fill:rgb(80%,88.627451%,98.823529%);fill-opacity:1;" />
<path d="M 167.742188 125.804688 L 482.257812 125.804688 L 482.257812 178.226562 L 167.742188 178.226562 Z M 167.742188 125.804688 " style=" stroke:none;fill-rule:nonzero;fill:rgb(80%,88.627451%,98.823529%);fill-opacity:1;" />
<path d="M 649.820312 177.355469 C 649.753906 176.644531 649.613281 175.941406 649.402344 175.257812 C 649.070312 174 648.460938 172.828125 647.621094 171.832031 C 647.1875 171.257812 646.6875 170.738281 646.132812 170.28125 C 645.902344 170.082031 645.777344 169.820312 645.523438 169.640625 L 545.160156 99.375 L 545.160156 10.484375 C 545.160156 4.695312 540.46875 0 534.675781 0 L 115.324219 0 C 109.53125 0 104.839844 4.695312 104.839844 10.484375 L 104.839844 99.378906 L 4.476562 169.617188 C 4.226562 169.796875 4.101562 170.058594 3.859375 170.257812 C 3.308594 170.71875 2.816406 171.242188 2.378906 171.808594 C 1.539062 172.808594 0.933594 173.976562 0.597656 175.238281 C 0.386719 175.921875 0.246094 176.625 0.179688 177.335938 C 0.101562 177.628906 0.0429688 177.925781 0 178.226562 L 0 450.804688 C 0 456.597656 4.695312 461.289062 10.484375 461.289062 L 104.839844 461.289062 L 104.839844 618.546875 C 104.839844 624.339844 109.53125 629.03125 115.324219 629.03125 L 534.679688 629.03125 C 540.46875 629.03125 545.160156 624.339844 545.160156 618.546875 L 545.160156 461.289062 L 639.515625 461.289062 C 645.308594 461.289062 650 456.597656 650 450.804688 L 650 178.226562 C 649.957031 177.933594 649.894531 177.640625 649.820312 177.355469 Z M 606.261719 167.742188 L 545.160156 167.742188 L 545.160156 124.976562 Z M 524.195312 20.96875 L 524.195312 167.742188 L 492.742188 167.742188 L 492.742188 125.804688 C 492.742188 120.015625 488.046875 115.324219 482.257812 115.324219 L 167.742188 115.324219 C 161.953125 115.324219 157.257812 120.015625 157.257812 125.804688 L 157.257812 167.742188 L 125.804688 167.742188 L 125.804688 20.96875 Z M 178.226562 167.742188 L 178.226562 136.289062 L 471.773438 136.289062 L 471.773438 167.742188 Z M 104.839844 167.742188 L 43.738281 167.742188 L 104.839844 124.976562 Z M 524.195312 608.066406 L 125.804688 608.066406 L 125.804688 461.289062 L 157.257812 461.289062 L 157.257812 503.226562 C 157.257812 509.015625 161.953125 513.710938 167.742188 513.710938 L 482.257812 513.710938 C 488.046875 513.710938 492.742188 509.015625 492.742188 503.226562 L 492.742188 461.289062 L 524.195312 461.289062 Z M 471.773438 461.289062 L 471.773438 492.742188 L 178.226562 492.742188 L 178.226562 461.289062 Z M 629.03125 440.324219 L 20.96875 440.324219 L 20.96875 188.710938 L 629.03125 188.710938 Z M 629.03125 440.324219 " style=" stroke:none;fill-rule:nonzero;fill:rgb(13.72549%,12.156863%,12.54902%);fill-opacity:1;" />
<path d="M 209.675781 83.871094 L 440.320312 83.871094 L 440.320312 104.839844 L 209.675781 104.839844 Z M 209.675781 83.871094 " style=" stroke:none;fill-rule:nonzero;fill:rgb(13.72549%,12.156863%,12.54902%);fill-opacity:1;" />
<path d="M 241.128906 52.417969 L 408.871094 52.417969 L 408.871094 73.386719 L 241.128906 73.386719 Z M 241.128906 52.417969 " style=" stroke:none;fill-rule:nonzero;fill:rgb(13.72549%,12.156863%,12.54902%);fill-opacity:1;" />
<path d="M 209.675781 524.195312 L 440.320312 524.195312 L 440.320312 545.160156 L 209.675781 545.160156 Z M 209.675781 524.195312 " style=" stroke:none;fill-rule:nonzero;fill:rgb(13.72549%,12.156863%,12.54902%);fill-opacity:1;" />
<path d="M 241.128906 555.644531 L 408.871094 555.644531 L 408.871094 576.613281 L 241.128906 576.613281 Z M 241.128906 555.644531 " style=" stroke:none;fill-rule:nonzero;fill:rgb(13.72549%,12.156863%,12.54902%);fill-opacity:1;" />
<path d="M 345.96875 220.160156 L 283.066406 220.160156 C 277.273438 220.160156 272.582031 224.855469 272.582031 230.644531 L 272.582031 398.386719 C 272.582031 404.175781 277.273438 408.871094 283.066406 408.871094 C 288.855469 408.871094 293.550781 404.175781 293.550781 398.386719 L 293.550781 325 L 345.96875 325 C 363.339844 325 377.421875 310.917969 377.421875 293.546875 L 377.421875 251.613281 C 377.417969 234.242188 363.339844 220.160156 345.96875 220.160156 Z M 356.453125 293.546875 C 356.453125 299.339844 351.757812 304.03125 345.96875 304.03125 L 293.550781 304.03125 L 293.550781 241.128906 L 345.96875 241.128906 C 351.757812 241.128906 356.453125 245.824219 356.453125 251.613281 Z M 356.453125 293.546875 " style=" stroke:none;fill-rule:nonzero;fill:rgb(13.72549%,12.156863%,12.54902%);fill-opacity:1;" />
<path d="M 243.53125 220.445312 C 238.800781 219.328125 233.921875 221.613281 231.746094 225.960938 L 199.195312 291.074219 L 166.695312 225.960938 C 164.171875 220.75 157.902344 218.570312 152.6875 221.089844 C 149.03125 222.863281 146.730469 226.582031 146.773438 230.644531 L 146.773438 398.386719 C 146.773438 404.175781 151.46875 408.871094 157.257812 408.871094 C 163.046875 408.871094 167.742188 404.175781 167.742188 398.386719 L 167.742188 275.054688 L 189.8125 319.203125 C 192.902344 324.386719 199.605469 326.082031 204.789062 322.992188 C 206.347656 322.0625 207.648438 320.761719 208.578125 319.203125 L 230.644531 275.054688 L 230.644531 398.386719 C 230.644531 404.175781 235.339844 408.871094 241.128906 408.871094 C 246.921875 408.871094 251.613281 404.175781 251.613281 398.386719 L 251.613281 230.644531 C 251.609375 225.78125 248.265625 221.558594 243.53125 220.445312 Z M 243.53125 220.445312 " style=" stroke:none;fill-rule:nonzero;fill:rgb(13.72549%,12.156863%,12.54902%);fill-opacity:1;" />
<path d="M 471.773438 220.160156 L 429.839844 220.160156 C 412.46875 220.160156 398.386719 234.242188 398.386719 251.613281 L 398.386719 377.417969 C 398.386719 394.789062 412.46875 408.871094 429.839844 408.871094 L 471.773438 408.871094 C 489.144531 408.871094 503.226562 394.789062 503.226562 377.417969 L 503.226562 314.515625 C 503.226562 308.726562 498.53125 304.03125 492.742188 304.03125 L 450.808594 304.03125 C 445.015625 304.03125 440.324219 308.726562 440.324219 314.515625 C 440.324219 320.304688 445.015625 325 450.808594 325 L 482.257812 325 L 482.257812 377.417969 C 482.257812 383.210938 477.566406 387.902344 471.773438 387.902344 L 429.839844 387.902344 C 424.050781 387.902344 419.355469 383.210938 419.355469 377.417969 L 419.355469 251.613281 C 419.355469 245.824219 424.050781 241.128906 429.839844 241.128906 L 471.773438 241.128906 C 477.566406 241.128906 482.257812 245.824219 482.257812 251.613281 L 482.257812 272.582031 C 482.257812 278.371094 486.953125 283.066406 492.742188 283.066406 C 498.53125 283.066406 503.226562 278.371094 503.226562 272.582031 L 503.226562 251.613281 C 503.226562 234.242188 489.144531 220.160156 471.773438 220.160156 Z M 471.773438 220.160156 " style=" stroke:none;fill-rule:nonzero;fill:rgb(13.72549%,12.156863%,12.54902%);fill-opacity:1;" />
</g>
</svg>