<svg xmlns="http://www.w3.org/2000/svg" height="650pt" version="1.1" viewBox="0 -10 650.001 650" width="650pt">
<g id="surface1">
<path d="M 482.257812 178.226562 L 10.484375 178.226562 L 10.484375 450.804688 L 639.515625 450.804688 L 639.515625 178.226562 Z M 241.128906 293.546875 C 241.128906 305.128906 231.742188 314.515625 220.160156 314.515625 L 157.257812 314.515625 L 157.257812 230.644531 L 220.160156 230.644531 C 231.742188 230.644531 241.128906 240.035156 241.128906 251.613281 Z M 366.933594 398.386719 L 283.0625 230.644531 Z M 492.742188 272.582031 L 492.742188 251.613281 C 492.742188 240.035156 483.355469 230.644531 471.773438 230.644531 L 429.839844 230.644531 C 418.257812 230.644531 408.871094 240.035156 408.871094 251.613281 L 408.871094 377.417969 C 408.871094 389 418.257812 398.386719 429.839844 398.386719 L 471.773438 398.386719 C 483.355469 398.386719 492.742188 389 492.742188 377.417969 L 492.742188 314.515625 L 492.742188 377.417969 C 492.742188 389 483.355469 398.386719 471.773438 398.386719 L 429.839844 398.386719 C 418.257812 398.386719 408.871094 389 408.871094 377.417969 L 408.871094 251.613281 C 408.871094 240.035156 418.257812 230.644531 429.839844 230.644531 L 471.773438 230.644531 C 483.355469 230.644531 492.742188 240.035156 492.742188 251.613281 Z M 492.742188 272.582031 " style=" stroke:none;fill-rule:nonzero;fill:rgb(100%,45.098039%,30.980392%);fill-opacity:1;" />
<path d="M 220.160156 230.644531 L 157.257812 230.644531 L 157.257812 314.515625 L 220.160156 314.515625 C 231.742188 314.515625 241.128906 305.128906 241.128906 293.546875 L 241.128906 251.613281 C 241.128906 240.035156 231.742188 230.644531 220.160156 230.644531 Z M 220.160156 230.644531 " style=" stroke:none;fill-rule:nonzero;fill:rgb(100%,45.098039%,30.980392%);fill-opacity:1;" />
<path d="M 167.742188 450.804688 L 482.257812 450.804688 L 482.257812 503.226562 L 167.742188 503.226562 Z M 167.742188 450.804688 " style=" stroke:none;fill-rule:nonzero;fill:rgb(100%,86.27451%,82.745098%);fill-opacity:1;" />
<path d="M 167.742188 125.804688 L 482.257812 125.804688 L 482.257812 178.226562 L 167.742188 178.226562 Z M 167.742188 125.804688 " style=" stroke:none;fill-rule:nonzero;fill:rgb(100%,86.27451%,82.745098%);fill-opacity:1;" />
<path d="M 209.675781 83.871094 L 440.320312 83.871094 L 440.320312 104.839844 L 209.675781 104.839844 Z M 209.675781 83.871094 " style=" stroke:none;fill-rule:nonzero;fill:rgb(13.72549%,12.156863%,12.54902%);fill-opacity:1;" />
<path d="M 241.128906 52.417969 L 408.871094 52.417969 L 408.871094 73.386719 L 241.128906 73.386719 Z M 241.128906 52.417969 " style=" stroke:none;fill-rule:nonzero;fill:rgb(13.72549%,12.156863%,12.54902%);fill-opacity:1;" />
<path d="M 209.675781 524.195312 L 440.320312 524.195312 L 440.320312 545.160156 L 209.675781 545.160156 Z M 209.675781 524.195312 " style=" stroke:none;fill-rule:nonzero;fill:rgb(13.72549%,12.156863%,12.54902%);fill-opacity:1;" />
<path d="M 241.128906 555.644531 L 408.871094 555.644531 L 408.871094 576.613281 L 241.128906 576.613281 Z M 241.128906 555.644531 " style=" stroke:none;fill-rule:nonzero;fill:rgb(13.72549%,12.156863%,12.54902%);fill-opacity:1;" />
<path d="M 649.820312 177.355469 C 649.753906 176.644531 649.613281 175.941406 649.402344 175.257812 C 649.070312 174 648.460938 172.828125 647.621094 171.832031 C 647.1875 171.257812 646.6875 170.738281 646.132812 170.28125 C 645.902344 170.082031 645.777344 169.820312 645.523438 169.640625 L 545.160156 99.375 L 545.160156 10.484375 C 545.160156 4.695312 540.46875 0 534.675781 0 L 115.324219 0 C 109.53125 0 104.839844 4.695312 104.839844 10.484375 L 104.839844 99.378906 L 4.476562 169.617188 C 4.226562 169.796875 4.101562 170.058594 3.859375 170.257812 C 3.308594 170.71875 2.816406 171.242188 2.378906 171.808594 C 1.539062 172.808594 0.933594 173.976562 0.597656 175.238281 C 0.386719 175.921875 0.246094 176.625 0.179688 177.335938 C 0.101562 177.628906 0.0429688 177.925781 0 178.226562 L 0 450.804688 C 0 456.597656 4.695312 461.289062 10.484375 461.289062 L 104.839844 461.289062 L 104.839844 618.546875 C 104.839844 624.339844 109.53125 629.03125 115.324219 629.03125 L 534.679688 629.03125 C 540.46875 629.03125 545.160156 624.339844 545.160156 618.546875 L 545.160156 461.289062 L 639.515625 461.289062 C 645.308594 461.289062 650 456.597656 650 450.804688 L 650 178.226562 C 649.957031 177.933594 649.894531 177.640625 649.820312 177.355469 Z M 606.261719 167.742188 L 545.160156 167.742188 L 545.160156 124.976562 Z M 524.195312 20.96875 L 524.195312 167.742188 L 492.742188 167.742188 L 492.742188 125.804688 C 492.742188 120.015625 488.046875 115.324219 482.257812 115.324219 L 167.742188 115.324219 C 161.953125 115.324219 157.257812 120.015625 157.257812 125.804688 L 157.257812 167.742188 L 125.804688 167.742188 L 125.804688 20.96875 Z M 178.226562 167.742188 L 178.226562 136.289062 L 471.773438 136.289062 L 471.773438 167.742188 Z M 104.839844 167.742188 L 43.738281 167.742188 L 104.839844 124.976562 Z M 524.195312 608.066406 L 125.804688 608.066406 L 125.804688 461.289062 L 157.257812 461.289062 L 157.257812 503.226562 C 157.257812 509.015625 161.953125 513.710938 167.742188 513.710938 L 482.257812 513.710938 C 488.046875 513.710938 492.742188 509.015625 492.742188 503.226562 L 492.742188 461.289062 L 524.195312 461.289062 Z M 471.773438 461.289062 L 471.773438 492.742188 L 178.226562 492.742188 L 178.226562 461.289062 Z M 629.03125 440.324219 L 20.96875 440.324219 L 20.96875 188.710938 L 629.03125 188.710938 Z M 629.03125 440.324219 " style=" stroke:none;fill-rule:nonzero;fill:rgb(13.72549%,12.156863%,12.54902%);fill-opacity:1;" />
<path d="M 220.160156 220.160156 L 157.257812 220.160156 C 151.46875 220.160156 146.773438 224.855469 146.773438 230.644531 L 146.773438 398.386719 C 146.773438 404.175781 151.46875 408.871094 157.257812 408.871094 C 163.046875 408.871094 167.742188 404.175781 167.742188 398.386719 L 167.742188 325 L 220.160156 325 C 237.53125 325 251.613281 310.917969 251.613281 293.546875 L 251.613281 251.613281 C 251.613281 234.242188 237.53125 220.160156 220.160156 220.160156 Z M 230.644531 293.546875 C 230.644531 299.339844 225.949219 304.03125 220.160156 304.03125 L 167.742188 304.03125 L 167.742188 241.128906 L 220.160156 241.128906 C 225.949219 241.128906 230.644531 245.824219 230.644531 251.613281 Z M 230.644531 293.546875 " style=" stroke:none;fill-rule:nonzero;fill:rgb(13.72549%,12.156863%,12.54902%);fill-opacity:1;" />
<path d="M 471.773438 220.160156 L 429.839844 220.160156 C 412.46875 220.160156 398.386719 234.242188 398.386719 251.613281 L 398.386719 377.417969 C 398.386719 394.789062 412.46875 408.871094 429.839844 408.871094 L 471.773438 408.871094 C 489.144531 408.871094 503.226562 394.789062 503.226562 377.417969 L 503.226562 314.515625 C 503.226562 308.726562 498.53125 304.03125 492.742188 304.03125 L 450.808594 304.03125 C 445.015625 304.03125 440.324219 308.726562 440.324219 314.515625 C 440.324219 320.304688 445.015625 325 450.808594 325 L 482.257812 325 L 482.257812 377.417969 C 482.257812 383.210938 477.566406 387.902344 471.773438 387.902344 L 429.839844 387.902344 C 424.050781 387.902344 419.355469 383.210938 419.355469 377.417969 L 419.355469 251.613281 C 419.355469 245.824219 424.050781 241.128906 429.839844 241.128906 L 471.773438 241.128906 C 477.566406 241.128906 482.257812 245.824219 482.257812 251.613281 L 482.257812 272.582031 C 482.257812 278.371094 486.953125 283.066406 492.742188 283.066406 C 498.53125 283.066406 503.226562 278.371094 503.226562 272.582031 L 503.226562 251.613281 C 503.226562 234.242188 489.144531 220.160156 471.773438 220.160156 Z M 471.773438 220.160156 " style=" stroke:none;fill-rule:nonzero;fill:rgb(13.72549%,12.156863%,12.54902%);fill-opacity:1;" />
<path d="M 366.933594 220.160156 C 361.144531 220.160156 356.449219 224.855469 356.449219 230.644531 L 356.449219 353.976562 L 292.5 225.960938 C 289.976562 220.75 283.707031 218.570312 278.496094 221.089844 C 274.839844 222.863281 272.535156 226.582031 272.578125 230.644531 L 272.578125 398.386719 C 272.578125 404.175781 277.273438 408.871094 283.0625 408.871094 C 288.855469 408.871094 293.546875 404.175781 293.546875 398.386719 L 293.546875 275.054688 L 357.5 403.074219 C 357.992188 404.03125 358.628906 404.910156 359.386719 405.671875 C 359.535156 405.832031 359.710938 405.925781 359.867188 406.070312 C 360.613281 406.746094 361.449219 407.308594 362.355469 407.75 C 362.65625 407.894531 362.953125 408.023438 363.265625 408.136719 C 364.433594 408.597656 365.679688 408.847656 366.933594 408.871094 C 368.195312 408.84375 369.441406 408.589844 370.613281 408.125 C 370.8125 408.054688 371.011719 408 371.214844 407.917969 C 371.410156 407.832031 371.484375 407.832031 371.609375 407.769531 C 372.03125 407.484375 372.429688 407.167969 372.804688 406.824219 C 373.441406 406.433594 374.03125 405.972656 374.566406 405.453125 C 375 404.941406 375.375 404.386719 375.6875 403.796875 C 376.566406 402.660156 377.066406 401.277344 377.113281 399.84375 C 377.253906 399.367188 377.355469 398.878906 377.417969 398.386719 L 377.417969 230.644531 C 377.417969 224.855469 372.726562 220.160156 366.933594 220.160156 Z M 366.933594 220.160156 " style=" stroke:none;fill-rule:nonzero;fill:rgb(13.72549%,12.156863%,12.54902%);fill-opacity:1;" />
</g>
</svg>