<svg xmlns="http://www.w3.org/2000/svg" height="650pt" version="1.1" viewBox="0 -10 650.001 650" width="650pt">
<g id="surface1">
<path d="M 482.257812 178.226562 L 10.484375 178.226562 L 10.484375 450.804688 L 639.515625 450.804688 L 639.515625 178.226562 Z M 188.710938 293.546875 C 188.710938 305.128906 179.320312 314.515625 167.742188 314.515625 L 104.839844 314.515625 L 104.839844 230.644531 L 167.742188 230.644531 C 179.320312 230.644531 188.710938 240.035156 188.710938 251.613281 Z M 304.03125 293.546875 C 304.03125 305.128906 294.644531 314.515625 283.0625 314.515625 L 220.160156 314.515625 L 220.160156 230.644531 L 283.0625 230.644531 C 294.644531 230.644531 304.03125 240.035156 304.03125 251.613281 Z M 387.902344 230.644531 Z M 545.160156 398.386719 L 503.226562 314.515625 L 461.289062 398.386719 L 503.226562 314.515625 L 461.289062 230.644531 L 503.226562 314.515625 L 545.160156 230.644531 L 503.226562 314.515625 Z M 545.160156 398.386719 " style=" stroke:none;fill-rule:nonzero;fill:rgb(100%,45.098039%,30.980392%);fill-opacity:1;" />
<path d="M 283.066406 230.644531 L 220.160156 230.644531 L 220.160156 314.515625 L 283.066406 314.515625 C 294.644531 314.515625 304.03125 305.128906 304.03125 293.546875 L 304.03125 251.613281 C 304.03125 240.035156 294.644531 230.644531 283.066406 230.644531 Z M 283.066406 230.644531 " style=" stroke:none;fill-rule:nonzero;fill:rgb(100%,45.098039%,30.980392%);fill-opacity:1;" />
<path d="M 167.742188 230.644531 L 104.839844 230.644531 L 104.839844 314.515625 L 167.742188 314.515625 C 179.320312 314.515625 188.710938 305.128906 188.710938 293.546875 L 188.710938 251.613281 C 188.710938 240.035156 179.320312 230.644531 167.742188 230.644531 Z M 167.742188 230.644531 " style=" stroke:none;fill-rule:nonzero;fill:rgb(100%,45.098039%,30.980392%);fill-opacity:1;" />
<path d="M 167.742188 450.804688 L 482.257812 450.804688 L 482.257812 503.226562 L 167.742188 503.226562 Z M 167.742188 450.804688 " style=" stroke:none;fill-rule:nonzero;fill:rgb(100%,86.27451%,82.745098%);fill-opacity:1;" />
<path d="M 167.742188 125.804688 L 482.257812 125.804688 L 482.257812 178.226562 L 167.742188 178.226562 Z M 167.742188 125.804688 " style=" stroke:none;fill-rule:nonzero;fill:rgb(100%,86.27451%,82.745098%);fill-opacity:1;" />
<path d="M 209.675781 83.871094 L 440.320312 83.871094 L 440.320312 104.839844 L 209.675781 104.839844 Z M 209.675781 83.871094 " style=" stroke:none;fill-rule:nonzero;fill:rgb(13.72549%,12.156863%,12.54902%);fill-opacity:1;" />
<path d="M 241.128906 52.417969 L 408.871094 52.417969 L 408.871094 73.386719 L 241.128906 73.386719 Z M 241.128906 52.417969 " style=" stroke:none;fill-rule:nonzero;fill:rgb(13.72549%,12.156863%,12.54902%);fill-opacity:1;" />
<path d="M 209.675781 524.195312 L 440.320312 524.195312 L 440.320312 545.160156 L 209.675781 545.160156 Z M 209.675781 524.195312 " style=" stroke:none;fill-rule:nonzero;fill:rgb(13.72549%,12.156863%,12.54902%);fill-opacity:1;" />
<path d="M 241.128906 555.644531 L 408.871094 555.644531 L 408.871094 576.613281 L 241.128906 576.613281 Z M 241.128906 555.644531 " style=" stroke:none;fill-rule:nonzero;fill:rgb(13.72549%,12.156863%,12.54902%);fill-opacity:1;" />
<path d="M 649.820312 177.355469 C 649.753906 176.644531 649.613281 175.941406 649.402344 175.257812 C 649.070312 174 648.460938 172.828125 647.621094 171.832031 C 647.1875 171.257812 646.6875 170.738281 646.132812 170.28125 C 645.902344 170.082031 645.777344 169.820312 645.523438 169.640625 L 545.160156 99.375 L 545.160156 10.484375 C 545.160156 4.695312 540.46875 0 534.675781 0 L 115.324219 0 C 109.53125 0 104.839844 4.695312 104.839844 10.484375 L 104.839844 99.378906 L 4.476562 169.617188 C 4.226562 169.796875 4.101562 170.058594 3.859375 170.257812 C 3.308594 170.71875 2.816406 171.242188 2.378906 171.808594 C 1.539062 172.808594 0.933594 173.976562 0.597656 175.238281 C 0.386719 175.921875 0.246094 176.625 0.179688 177.335938 C 0.101562 177.628906 0.0429688 177.925781 0 178.226562 L 0 450.804688 C 0 456.597656 4.695312 461.289062 10.484375 461.289062 L 104.839844 461.289062 L 104.839844 618.546875 C 104.839844 624.339844 109.53125 629.03125 115.324219 629.03125 L 534.679688 629.03125 C 540.46875 629.03125 545.160156 624.339844 545.160156 618.546875 L 545.160156 461.289062 L 639.515625 461.289062 C 645.308594 461.289062 650 456.597656 650 450.804688 L 650 178.226562 C 649.957031 177.933594 649.894531 177.640625 649.820312 177.355469 Z M 606.261719 167.742188 L 545.160156 167.742188 L 545.160156 124.976562 Z M 524.195312 20.96875 L 524.195312 167.742188 L 492.742188 167.742188 L 492.742188 125.804688 C 492.742188 120.015625 488.046875 115.324219 482.257812 115.324219 L 167.742188 115.324219 C 161.953125 115.324219 157.257812 120.015625 157.257812 125.804688 L 157.257812 167.742188 L 125.804688 167.742188 L 125.804688 20.96875 Z M 178.226562 167.742188 L 178.226562 136.289062 L 471.773438 136.289062 L 471.773438 167.742188 Z M 104.839844 167.742188 L 43.738281 167.742188 L 104.839844 124.976562 Z M 524.195312 608.066406 L 125.804688 608.066406 L 125.804688 461.289062 L 157.257812 461.289062 L 157.257812 503.226562 C 157.257812 509.015625 161.953125 513.710938 167.742188 513.710938 L 482.257812 513.710938 C 488.046875 513.710938 492.742188 509.015625 492.742188 503.226562 L 492.742188 461.289062 L 524.195312 461.289062 Z M 471.773438 461.289062 L 471.773438 492.742188 L 178.226562 492.742188 L 178.226562 461.289062 Z M 629.03125 440.324219 L 20.96875 440.324219 L 20.96875 188.710938 L 629.03125 188.710938 Z M 629.03125 440.324219 " style=" stroke:none;fill-rule:nonzero;fill:rgb(13.72549%,12.156863%,12.54902%);fill-opacity:1;" />
<path d="M 283.066406 220.160156 L 220.160156 220.160156 C 214.371094 220.160156 209.679688 224.855469 209.679688 230.644531 L 209.679688 398.386719 C 209.679688 404.175781 214.371094 408.871094 220.160156 408.871094 C 225.953125 408.871094 230.644531 404.175781 230.644531 398.386719 L 230.644531 325 L 283.066406 325 C 300.433594 325 314.515625 310.917969 314.515625 293.546875 L 314.515625 251.613281 C 314.515625 234.242188 300.433594 220.160156 283.066406 220.160156 Z M 293.546875 293.546875 C 293.546875 299.339844 288.855469 304.03125 283.0625 304.03125 L 230.644531 304.03125 L 230.644531 241.128906 L 283.0625 241.128906 C 288.855469 241.128906 293.546875 245.824219 293.546875 251.613281 Z M 293.546875 293.546875 " style=" stroke:none;fill-rule:nonzero;fill:rgb(13.72549%,12.156863%,12.54902%);fill-opacity:1;" />
<path d="M 167.742188 220.160156 L 104.839844 220.160156 C 99.050781 220.160156 94.355469 224.855469 94.355469 230.644531 L 94.355469 398.386719 C 94.355469 404.175781 99.050781 408.871094 104.839844 408.871094 C 110.628906 408.871094 115.324219 404.175781 115.324219 398.386719 L 115.324219 325 L 167.742188 325 C 185.113281 325 199.195312 310.917969 199.195312 293.546875 L 199.195312 251.613281 C 199.195312 234.242188 185.113281 220.160156 167.742188 220.160156 Z M 178.226562 293.546875 C 178.226562 299.339844 173.53125 304.03125 167.742188 304.03125 L 115.324219 304.03125 L 115.324219 241.128906 L 167.742188 241.128906 C 173.53125 241.128906 178.226562 245.824219 178.226562 251.613281 Z M 178.226562 293.546875 " style=" stroke:none;fill-rule:nonzero;fill:rgb(13.72549%,12.156863%,12.54902%);fill-opacity:1;" />
<path d="M 429.839844 220.160156 L 345.96875 220.160156 C 340.179688 220.160156 335.484375 224.855469 335.484375 230.644531 C 335.484375 236.433594 340.179688 241.128906 345.96875 241.128906 L 377.421875 241.128906 L 377.421875 398.386719 C 377.421875 404.175781 382.113281 408.871094 387.902344 408.871094 C 393.695312 408.871094 398.386719 404.175781 398.386719 398.386719 L 398.386719 241.128906 L 429.839844 241.128906 C 435.628906 241.128906 440.324219 236.433594 440.324219 230.644531 C 440.324219 224.855469 435.628906 220.160156 429.839844 220.160156 Z M 429.839844 220.160156 " style=" stroke:none;fill-rule:nonzero;fill:rgb(13.72549%,12.156863%,12.54902%);fill-opacity:1;" />
<path d="M 470.726562 225.960938 C 468.136719 220.777344 461.839844 218.675781 456.65625 221.261719 C 451.476562 223.851562 449.371094 230.148438 451.960938 235.332031 L 491.503906 314.515625 L 451.90625 393.703125 C 449.320312 398.882812 451.421875 405.183594 456.605469 407.769531 C 461.785156 410.359375 468.085938 408.253906 470.671875 403.074219 L 503.226562 337.957031 L 535.726562 403.074219 C 538.3125 408.253906 544.613281 410.359375 549.792969 407.769531 C 554.976562 405.183594 557.078125 398.882812 554.492188 393.703125 L 514.945312 314.515625 L 554.597656 235.332031 C 557.183594 230.148438 555.082031 223.851562 549.898438 221.261719 C 544.71875 218.675781 538.417969 220.777344 535.832031 225.960938 L 503.226562 291.074219 Z M 470.726562 225.960938 " style=" stroke:none;fill-rule:nonzero;fill:rgb(13.72549%,12.156863%,12.54902%);fill-opacity:1;" />
</g>
</svg>