<svg xmlns="http://www.w3.org/2000/svg" height="650pt" version="1.1" viewBox="0 -10 650.001 650" width="650pt">
<g id="surface1">
<path d="M 167.742188 450.804688 L 482.257812 450.804688 L 482.257812 503.226562 L 167.742188 503.226562 Z M 167.742188 450.804688 " style=" stroke:none;fill-rule:nonzero;fill:rgb(80%,88.627451%,98.823529%);fill-opacity:1;" />
<path d="M 167.742188 125.804688 L 482.257812 125.804688 L 482.257812 178.226562 L 167.742188 178.226562 Z M 167.742188 125.804688 " style=" stroke:none;fill-rule:nonzero;fill:rgb(80%,88.627451%,98.823529%);fill-opacity:1;" />
<path d="M 482.257812 178.226562 L 10.484375 178.226562 L 10.484375 450.804688 L 639.515625 450.804688 L 639.515625 178.226562 Z M 304.03125 293.546875 C 304.03125 305.128906 294.644531 314.515625 283.0625 314.515625 L 220.160156 314.515625 L 220.160156 230.644531 L 283.0625 230.644531 C 294.644531 230.644531 304.03125 240.035156 304.03125 251.613281 Z M 366.933594 314.515625 L 408.867188 314.515625 C 420.449219 314.515625 429.835938 323.90625 429.835938 335.484375 L 429.835938 377.417969 C 429.835938 389 420.449219 398.386719 408.867188 398.386719 C 420.449219 398.386719 429.835938 389 429.835938 377.417969 L 429.835938 335.484375 C 429.835938 323.90625 420.449219 314.515625 408.867188 314.515625 L 366.933594 314.515625 C 355.355469 314.515625 345.964844 305.128906 345.964844 293.546875 L 345.964844 251.613281 C 345.964844 240.035156 355.355469 230.644531 366.933594 230.644531 C 355.355469 230.644531 345.964844 240.035156 345.964844 251.613281 L 345.964844 293.546875 C 345.96875 305.128906 355.355469 314.515625 366.933594 314.515625 Z M 366.933594 314.515625 " style=" stroke:none;fill-rule:nonzero;fill:rgb(40%,65.490196%,96.470588%);fill-opacity:1;" />
<path d="M 283.0625 230.644531 L 220.160156 230.644531 L 220.160156 314.515625 L 283.0625 314.515625 C 294.644531 314.515625 304.03125 305.128906 304.03125 293.546875 L 304.03125 251.613281 C 304.03125 240.035156 294.644531 230.644531 283.0625 230.644531 Z M 283.0625 230.644531 " style=" stroke:none;fill-rule:nonzero;fill:rgb(40%,65.490196%,96.470588%);fill-opacity:1;" />
<path d="M 209.675781 83.871094 L 440.320312 83.871094 L 440.320312 104.839844 L 209.675781 104.839844 Z M 209.675781 83.871094 " style=" stroke:none;fill-rule:nonzero;fill:rgb(13.72549%,12.156863%,12.54902%);fill-opacity:1;" />
<path d="M 241.128906 52.417969 L 408.871094 52.417969 L 408.871094 73.386719 L 241.128906 73.386719 Z M 241.128906 52.417969 " style=" stroke:none;fill-rule:nonzero;fill:rgb(13.72549%,12.156863%,12.54902%);fill-opacity:1;" />
<path d="M 209.675781 524.195312 L 440.320312 524.195312 L 440.320312 545.160156 L 209.675781 545.160156 Z M 209.675781 524.195312 " style=" stroke:none;fill-rule:nonzero;fill:rgb(13.72549%,12.156863%,12.54902%);fill-opacity:1;" />
<path d="M 241.128906 555.644531 L 408.871094 555.644531 L 408.871094 576.613281 L 241.128906 576.613281 Z M 241.128906 555.644531 " style=" stroke:none;fill-rule:nonzero;fill:rgb(13.72549%,12.156863%,12.54902%);fill-opacity:1;" />
<path d="M 649.820312 177.34375 C 649.757812 176.632812 649.613281 175.929688 649.402344 175.25 C 649.230469 174.617188 648.992188 174.007812 648.699219 173.425781 C 648.402344 172.855469 648.050781 172.316406 647.652344 171.808594 C 647.210938 171.246094 646.714844 170.726562 646.175781 170.257812 C 645.933594 170.070312 645.808594 169.796875 645.554688 169.617188 L 545.160156 99.375 L 545.160156 10.484375 C 545.160156 4.695312 540.464844 0 534.675781 0 L 115.320312 0 C 109.53125 0 104.839844 4.695312 104.839844 10.484375 L 104.839844 99.378906 L 4.476562 169.617188 C 4.222656 169.796875 4.097656 170.070312 3.855469 170.257812 C 3.316406 170.726562 2.820312 171.25 2.378906 171.808594 C 1.980469 172.316406 1.628906 172.855469 1.332031 173.425781 C 1.035156 174.007812 0.800781 174.621094 0.628906 175.25 C 0.414062 175.929688 0.273438 176.632812 0.210938 177.347656 C 0.125 177.636719 0.0546875 177.929688 0 178.226562 L 0 450.804688 C 0 456.597656 4.695312 461.289062 10.484375 461.289062 L 104.839844 461.289062 L 104.839844 618.546875 C 104.839844 624.339844 109.53125 629.03125 115.324219 629.03125 L 534.679688 629.03125 C 540.46875 629.03125 545.160156 624.339844 545.160156 618.546875 L 545.160156 461.289062 L 639.515625 461.289062 C 645.308594 461.289062 650 456.597656 650 450.804688 L 650 178.226562 C 649.957031 177.929688 649.894531 177.636719 649.820312 177.34375 Z M 606.261719 167.742188 L 545.160156 167.742188 L 545.160156 124.976562 Z M 524.191406 20.96875 L 524.191406 167.742188 L 492.742188 167.742188 L 492.742188 125.804688 C 492.742188 120.015625 488.046875 115.324219 482.257812 115.324219 L 167.742188 115.324219 C 161.949219 115.324219 157.257812 120.015625 157.257812 125.804688 L 157.257812 167.742188 L 125.804688 167.742188 L 125.804688 20.96875 Z M 178.226562 167.742188 L 178.226562 136.289062 L 471.773438 136.289062 L 471.773438 167.742188 Z M 104.839844 167.742188 L 43.738281 167.742188 L 104.839844 124.976562 Z M 524.191406 608.066406 L 125.804688 608.066406 L 125.804688 461.289062 L 157.257812 461.289062 L 157.257812 503.226562 C 157.257812 509.015625 161.949219 513.710938 167.742188 513.710938 L 482.257812 513.710938 C 488.046875 513.710938 492.742188 509.015625 492.742188 503.226562 L 492.742188 461.289062 L 524.191406 461.289062 Z M 471.773438 461.289062 L 471.773438 492.742188 L 178.226562 492.742188 L 178.226562 461.289062 Z M 629.03125 440.324219 L 20.96875 440.324219 L 20.96875 188.710938 L 629.03125 188.710938 Z M 629.03125 440.324219 " style=" stroke:none;fill-rule:nonzero;fill:rgb(13.72549%,12.156863%,12.54902%);fill-opacity:1;" />
<path d="M 366.933594 241.128906 L 429.835938 241.128906 C 435.628906 241.128906 440.320312 236.433594 440.320312 230.644531 C 440.320312 224.855469 435.628906 220.160156 429.835938 220.160156 L 366.933594 220.160156 C 349.5625 220.160156 335.480469 234.242188 335.480469 251.613281 L 335.480469 293.546875 C 335.480469 310.917969 349.5625 325 366.933594 325 L 408.867188 325 C 414.660156 325 419.351562 329.695312 419.351562 335.484375 L 419.351562 377.417969 C 419.351562 383.210938 414.660156 387.902344 408.867188 387.902344 L 345.964844 387.902344 C 340.175781 387.902344 335.480469 392.597656 335.480469 398.386719 C 335.480469 404.175781 340.175781 408.871094 345.964844 408.871094 L 408.867188 408.871094 C 426.238281 408.871094 440.320312 394.789062 440.320312 377.417969 L 440.320312 335.484375 C 440.320312 318.113281 426.238281 304.03125 408.867188 304.03125 L 366.933594 304.03125 C 361.144531 304.03125 356.449219 299.339844 356.449219 293.546875 L 356.449219 251.613281 C 356.449219 245.824219 361.144531 241.128906 366.933594 241.128906 Z M 366.933594 241.128906 " style=" stroke:none;fill-rule:nonzero;fill:rgb(13.72549%,12.156863%,12.54902%);fill-opacity:1;" />
<path d="M 283.0625 220.160156 L 220.160156 220.160156 C 214.371094 220.160156 209.675781 224.855469 209.675781 230.644531 L 209.675781 398.386719 C 209.675781 404.175781 214.371094 408.871094 220.160156 408.871094 C 225.949219 408.871094 230.644531 404.175781 230.644531 398.386719 L 230.644531 325 L 283.0625 325 C 300.433594 325 314.515625 310.917969 314.515625 293.546875 L 314.515625 251.613281 C 314.515625 234.242188 300.433594 220.160156 283.0625 220.160156 Z M 293.546875 293.546875 C 293.546875 299.339844 288.851562 304.03125 283.0625 304.03125 L 230.644531 304.03125 L 230.644531 241.128906 L 283.0625 241.128906 C 288.851562 241.128906 293.546875 245.824219 293.546875 251.613281 Z M 293.546875 293.546875 " style=" stroke:none;fill-rule:nonzero;fill:rgb(13.72549%,12.156863%,12.54902%);fill-opacity:1;" />
</g>
</svg>