<svg xmlns="http://www.w3.org/2000/svg" height="650pt" version="1.1" viewBox="0 -10 650.001 650" width="650pt">
<g id="surface1">
<path d="M 115.320312 125.804688 L 115.320312 104.839844 L 10.484375 178.226562 L 115.320312 178.226562 Z M 115.320312 125.804688 " style=" stroke:none;fill-rule:nonzero;fill:rgb(100%,100%,100%);fill-opacity:1;" />
<path d="M 115.320312 178.226562 L 167.742188 178.226562 L 167.742188 125.804688 L 482.257812 125.804688 L 482.257812 178.226562 L 534.675781 178.226562 L 534.675781 10.484375 L 115.320312 10.484375 Z M 115.320312 178.226562 " style=" stroke:none;fill-rule:nonzero;fill:rgb(100%,100%,100%);fill-opacity:1;" />
<path d="M 167.742188 450.804688 L 482.257812 450.804688 L 482.257812 503.226562 L 167.742188 503.226562 Z M 167.742188 450.804688 " style=" stroke:none;fill-rule:nonzero;fill:rgb(100%,100%,100%);fill-opacity:1;" />
<path d="M 167.742188 125.804688 L 482.257812 125.804688 L 482.257812 178.226562 L 167.742188 178.226562 Z M 167.742188 125.804688 " style=" stroke:none;fill-rule:nonzero;fill:rgb(100%,100%,100%);fill-opacity:1;" />
<path d="M 482.257812 503.226562 L 167.742188 503.226562 L 167.742188 450.804688 L 115.320312 450.804688 L 115.320312 618.546875 L 534.675781 618.546875 L 534.675781 450.804688 L 482.257812 450.804688 Z M 482.257812 503.226562 " style=" stroke:none;fill-rule:nonzero;fill:rgb(100%,100%,100%);fill-opacity:1;" />
<path d="M 534.675781 125.804688 L 534.675781 178.226562 L 639.515625 178.226562 L 534.675781 104.839844 Z M 534.675781 125.804688 " style=" stroke:none;fill-rule:nonzero;fill:rgb(100%,100%,100%);fill-opacity:1;" />
<path d="M 482.257812 178.226562 L 10.484375 178.226562 L 10.484375 450.804688 L 639.515625 450.804688 L 639.515625 178.226562 Z M 251.613281 356.453125 C 251.613281 333.292969 232.835938 314.515625 209.675781 314.515625 L 167.742188 314.515625 L 167.742188 230.644531 L 209.675781 230.644531 C 232.835938 230.644531 251.613281 249.421875 251.613281 272.582031 C 251.613281 295.742188 232.835938 314.515625 209.675781 314.515625 C 232.835938 314.515625 251.613281 333.292969 251.613281 356.453125 Z M 325 398.386719 L 283.0625 230.644531 L 325 398.386719 L 366.933594 230.644531 Z M 440.320312 230.644531 Z M 440.320312 230.644531 " style=" stroke:none;fill-rule:nonzero;fill:rgb(40%,65.490196%,96.470588%);fill-opacity:1;" />
<path d="M 251.613281 272.582031 C 251.613281 249.421875 232.835938 230.648438 209.675781 230.648438 L 167.742188 230.648438 L 167.742188 314.515625 L 209.675781 314.515625 C 232.835938 314.515625 251.613281 295.742188 251.613281 272.582031 Z M 251.613281 272.582031 " style=" stroke:none;fill-rule:nonzero;fill:rgb(40%,65.490196%,96.470588%);fill-opacity:1;" />
<path d="M 167.742188 450.804688 L 482.257812 450.804688 L 482.257812 503.226562 L 167.742188 503.226562 Z M 167.742188 450.804688 " style=" stroke:none;fill-rule:nonzero;fill:rgb(80%,88.627451%,98.823529%);fill-opacity:1;" />
<path d="M 167.742188 125.804688 L 482.257812 125.804688 L 482.257812 178.226562 L 167.742188 178.226562 Z M 167.742188 125.804688 " style=" stroke:none;fill-rule:nonzero;fill:rgb(80%,88.627451%,98.823529%);fill-opacity:1;" />
<path d="M 209.675781 83.871094 L 440.320312 83.871094 L 440.320312 104.839844 L 209.675781 104.839844 Z M 209.675781 83.871094 " style=" stroke:none;fill-rule:nonzero;fill:rgb(13.72549%,12.156863%,12.54902%);fill-opacity:1;" />
<path d="M 241.128906 52.417969 L 408.871094 52.417969 L 408.871094 73.386719 L 241.128906 73.386719 Z M 241.128906 52.417969 " style=" stroke:none;fill-rule:nonzero;fill:rgb(13.72549%,12.156863%,12.54902%);fill-opacity:1;" />
<path d="M 209.675781 524.195312 L 440.320312 524.195312 L 440.320312 545.160156 L 209.675781 545.160156 Z M 209.675781 524.195312 " style=" stroke:none;fill-rule:nonzero;fill:rgb(13.72549%,12.156863%,12.54902%);fill-opacity:1;" />
<path d="M 241.128906 555.644531 L 408.871094 555.644531 L 408.871094 576.613281 L 241.128906 576.613281 Z M 241.128906 555.644531 " style=" stroke:none;fill-rule:nonzero;fill:rgb(13.72549%,12.156863%,12.54902%);fill-opacity:1;" />
<path d="M 649.820312 177.34375 C 649.757812 176.632812 649.613281 175.929688 649.402344 175.25 C 649.230469 174.617188 648.992188 174 648.699219 173.414062 C 648.398438 172.847656 648.046875 172.3125 647.652344 171.808594 C 647.214844 171.238281 646.714844 170.71875 646.164062 170.257812 C 645.933594 170.058594 645.808594 169.785156 645.554688 169.617188 L 545.160156 99.375 L 545.160156 10.484375 C 545.160156 4.695312 540.464844 0 534.675781 0 L 115.320312 0 C 109.53125 0 104.839844 4.695312 104.839844 10.484375 L 104.839844 99.378906 L 4.476562 169.617188 C 4.222656 169.785156 4.097656 170.058594 3.867188 170.257812 C 3.316406 170.71875 2.816406 171.242188 2.378906 171.808594 C 1.980469 172.3125 1.632812 172.847656 1.332031 173.414062 C 1.035156 174 0.800781 174.617188 0.628906 175.25 C 0.414062 175.929688 0.273438 176.632812 0.210938 177.347656 C 0.125 177.636719 0.0546875 177.929688 0 178.226562 L 0 450.804688 C 0 456.597656 4.695312 461.289062 10.484375 461.289062 L 104.839844 461.289062 L 104.839844 618.546875 C 104.839844 624.339844 109.53125 629.03125 115.324219 629.03125 L 534.679688 629.03125 C 540.46875 629.03125 545.160156 624.339844 545.160156 618.546875 L 545.160156 461.289062 L 639.515625 461.289062 C 645.308594 461.289062 650 456.597656 650 450.804688 L 650 178.226562 C 649.957031 177.929688 649.894531 177.636719 649.820312 177.34375 Z M 606.261719 167.742188 L 545.160156 167.742188 L 545.160156 124.976562 Z M 524.191406 20.96875 L 524.191406 167.742188 L 492.742188 167.742188 L 492.742188 125.804688 C 492.742188 120.015625 488.046875 115.324219 482.257812 115.324219 L 167.742188 115.324219 C 161.949219 115.324219 157.257812 120.015625 157.257812 125.804688 L 157.257812 167.742188 L 125.804688 167.742188 L 125.804688 20.96875 Z M 178.226562 167.742188 L 178.226562 136.289062 L 471.773438 136.289062 L 471.773438 167.742188 Z M 104.839844 167.742188 L 43.738281 167.742188 L 104.839844 124.976562 Z M 524.191406 608.066406 L 125.804688 608.066406 L 125.804688 461.289062 L 157.257812 461.289062 L 157.257812 503.226562 C 157.257812 509.015625 161.949219 513.710938 167.742188 513.710938 L 482.257812 513.710938 C 488.046875 513.710938 492.742188 509.015625 492.742188 503.226562 L 492.742188 461.289062 L 524.191406 461.289062 Z M 471.773438 461.289062 L 471.773438 492.742188 L 178.226562 492.742188 L 178.226562 461.289062 Z M 629.03125 440.324219 L 20.96875 440.324219 L 20.96875 188.710938 L 629.03125 188.710938 Z M 629.03125 440.324219 " style=" stroke:none;fill-rule:nonzero;fill:rgb(13.72549%,12.156863%,12.54902%);fill-opacity:1;" />
<path d="M 262.097656 272.582031 C 262.0625 243.644531 238.613281 220.195312 209.675781 220.164062 L 167.742188 220.164062 C 161.953125 220.164062 157.257812 224.855469 157.257812 230.648438 L 157.257812 398.386719 C 157.257812 404.179688 161.953125 408.871094 167.742188 408.871094 C 173.53125 408.871094 178.226562 404.179688 178.226562 398.386719 L 178.226562 325 L 209.679688 325 C 227.046875 325 241.128906 339.082031 241.128906 356.453125 L 241.128906 398.386719 C 241.128906 404.179688 245.824219 408.871094 251.613281 408.871094 C 257.402344 408.871094 262.097656 404.179688 262.097656 398.386719 L 262.097656 356.453125 C 262.050781 339.890625 254.152344 324.328125 240.804688 314.519531 C 254.148438 304.707031 262.050781 289.144531 262.097656 272.582031 Z M 209.675781 304.03125 L 178.222656 304.03125 L 178.222656 241.128906 L 209.675781 241.128906 C 227.046875 241.128906 241.128906 255.210938 241.128906 272.582031 C 241.128906 289.953125 227.046875 304.03125 209.675781 304.03125 Z M 209.675781 304.03125 " style=" stroke:none;fill-rule:nonzero;fill:rgb(13.72549%,12.156863%,12.54902%);fill-opacity:1;" />
<path d="M 369.480469 220.476562 C 363.863281 219.070312 358.171875 222.484375 356.765625 228.101562 C 356.765625 228.101562 356.765625 228.105469 356.765625 228.109375 L 325 355.164062 L 293.234375 228.109375 C 291.960938 222.460938 286.351562 218.910156 280.703125 220.183594 C 275.054688 221.453125 271.503906 227.0625 272.777344 232.710938 C 272.8125 232.871094 272.851562 233.027344 272.894531 233.183594 L 314.828125 400.925781 C 316.238281 406.542969 321.929688 409.953125 327.546875 408.546875 C 331.296875 407.605469 334.226562 404.675781 335.167969 400.925781 L 377.101562 233.183594 C 378.503906 227.570312 375.09375 221.882812 369.480469 220.476562 Z M 369.480469 220.476562 " style=" stroke:none;fill-rule:nonzero;fill:rgb(13.72549%,12.156863%,12.54902%);fill-opacity:1;" />
<path d="M 482.257812 220.160156 L 398.386719 220.160156 C 392.597656 220.160156 387.902344 224.855469 387.902344 230.644531 C 387.902344 236.433594 392.597656 241.128906 398.386719 241.128906 L 429.839844 241.128906 L 429.839844 398.386719 C 429.839844 404.175781 434.53125 408.871094 440.320312 408.871094 C 446.113281 408.871094 450.804688 404.175781 450.804688 398.386719 L 450.804688 241.128906 L 482.257812 241.128906 C 488.046875 241.128906 492.742188 236.433594 492.742188 230.644531 C 492.742188 224.855469 488.046875 220.160156 482.257812 220.160156 Z M 482.257812 220.160156 " style=" stroke:none;fill-rule:nonzero;fill:rgb(13.72549%,12.156863%,12.54902%);fill-opacity:1;" />
</g>
</svg>