<svg xmlns="http://www.w3.org/2000/svg" height="650pt" version="1.1" viewBox="0 -10 650.001 650" width="650pt">
<g id="surface1">
<path d="M 482.257812 503.226562 L 167.742188 503.226562 L 167.742188 450.804688 L 115.324219 450.804688 L 115.324219 618.546875 L 534.679688 618.546875 L 534.679688 450.804688 L 482.257812 450.804688 Z M 482.257812 503.226562 " style=" stroke:none;fill-rule:nonzero;fill:rgb(100%,100%,100%);fill-opacity:1;" />
<path d="M 534.675781 125.804688 L 534.675781 178.226562 L 639.515625 178.226562 L 534.675781 104.839844 Z M 534.675781 125.804688 " style=" stroke:none;fill-rule:nonzero;fill:rgb(100%,100%,100%);fill-opacity:1;" />
<path d="M 167.742188 450.804688 L 482.257812 450.804688 L 482.257812 503.226562 L 167.742188 503.226562 Z M 167.742188 450.804688 " style=" stroke:none;fill-rule:nonzero;fill:rgb(100%,100%,100%);fill-opacity:1;" />
<path d="M 115.324219 178.226562 L 167.742188 178.226562 L 167.742188 125.804688 L 482.257812 125.804688 L 482.257812 178.226562 L 534.675781 178.226562 L 534.675781 10.484375 L 115.324219 10.484375 Z M 115.324219 178.226562 " style=" stroke:none;fill-rule:nonzero;fill:rgb(100%,100%,100%);fill-opacity:1;" />
<path d="M 167.742188 125.804688 L 482.257812 125.804688 L 482.257812 178.226562 L 167.742188 178.226562 Z M 167.742188 125.804688 " style=" stroke:none;fill-rule:nonzero;fill:rgb(100%,100%,100%);fill-opacity:1;" />
<path d="M 115.324219 125.804688 L 115.324219 104.839844 L 10.484375 178.226562 L 115.324219 178.226562 Z M 115.324219 125.804688 " style=" stroke:none;fill-rule:nonzero;fill:rgb(100%,100%,100%);fill-opacity:1;" />
<path d="M 482.257812 178.226562 L 10.484375 178.226562 L 10.484375 450.804688 L 639.515625 450.804688 L 639.515625 178.226562 Z M 136.289062 314.515625 L 178.226562 314.515625 C 189.804688 314.515625 199.191406 323.90625 199.191406 335.484375 L 199.191406 377.417969 C 199.191406 389 189.804688 398.386719 178.226562 398.386719 C 189.804688 398.386719 199.191406 389 199.191406 377.417969 L 199.191406 335.484375 C 199.191406 323.90625 189.804688 314.515625 178.226562 314.515625 L 136.289062 314.515625 C 124.710938 314.515625 115.320312 305.128906 115.320312 293.546875 L 115.320312 251.613281 C 115.320312 240.035156 124.710938 230.644531 136.289062 230.644531 C 124.710938 230.644531 115.320312 240.035156 115.320312 251.613281 L 115.320312 293.546875 C 115.324219 305.128906 124.710938 314.515625 136.289062 314.515625 Z M 272.582031 398.386719 C 249.421875 398.386719 230.644531 379.613281 230.644531 356.453125 L 230.644531 272.582031 C 230.644531 249.421875 249.421875 230.648438 272.582031 230.648438 C 249.421875 230.648438 230.644531 249.421875 230.644531 272.582031 L 230.644531 356.453125 C 230.644531 379.613281 249.421875 398.386719 272.582031 398.386719 Z M 429.839844 314.515625 L 345.96875 314.515625 L 345.96875 251.613281 C 345.96875 240.035156 355.355469 230.644531 366.9375 230.644531 L 408.871094 230.644531 C 420.449219 230.644531 429.839844 240.035156 429.839844 251.613281 Z M 545.160156 272.582031 L 545.160156 356.453125 C 545.160156 379.613281 526.386719 398.386719 503.226562 398.386719 L 461.289062 398.386719 L 461.289062 230.644531 L 492.742188 230.644531 C 515.902344 230.644531 545.160156 249.421875 545.160156 272.582031 Z M 545.160156 272.582031 " style=" stroke:none;fill-rule:nonzero;fill:rgb(40%,65.490196%,96.470588%);fill-opacity:1;" />
<path d="M 408.871094 230.644531 L 366.9375 230.644531 C 355.355469 230.644531 345.96875 240.035156 345.96875 251.613281 L 345.96875 314.515625 L 429.839844 314.515625 L 429.839844 251.613281 C 429.839844 240.035156 420.449219 230.644531 408.871094 230.644531 Z M 408.871094 230.644531 " style=" stroke:none;fill-rule:nonzero;fill:rgb(40%,65.490196%,96.470588%);fill-opacity:1;" />
<path d="M 461.289062 230.644531 L 461.289062 398.386719 L 503.226562 398.386719 C 526.386719 398.386719 545.160156 379.613281 545.160156 356.453125 L 545.160156 272.582031 C 545.160156 249.421875 515.902344 230.648438 492.742188 230.648438 L 461.289062 230.648438 Z M 461.289062 230.644531 " style=" stroke:none;fill-rule:nonzero;fill:rgb(40%,65.490196%,96.470588%);fill-opacity:1;" />
<path d="M 167.742188 450.804688 L 482.257812 450.804688 L 482.257812 503.226562 L 167.742188 503.226562 Z M 167.742188 450.804688 " style=" stroke:none;fill-rule:nonzero;fill:rgb(80%,88.627451%,98.823529%);fill-opacity:1;" />
<path d="M 167.742188 125.804688 L 482.257812 125.804688 L 482.257812 178.226562 L 167.742188 178.226562 Z M 167.742188 125.804688 " style=" stroke:none;fill-rule:nonzero;fill:rgb(80%,88.627451%,98.823529%);fill-opacity:1;" />
<path d="M 209.675781 83.871094 L 440.320312 83.871094 L 440.320312 104.839844 L 209.675781 104.839844 Z M 209.675781 83.871094 " style=" stroke:none;fill-rule:nonzero;fill:rgb(13.72549%,12.156863%,12.54902%);fill-opacity:1;" />
<path d="M 241.128906 52.417969 L 408.871094 52.417969 L 408.871094 73.386719 L 241.128906 73.386719 Z M 241.128906 52.417969 " style=" stroke:none;fill-rule:nonzero;fill:rgb(13.72549%,12.156863%,12.54902%);fill-opacity:1;" />
<path d="M 209.675781 524.195312 L 440.320312 524.195312 L 440.320312 545.160156 L 209.675781 545.160156 Z M 209.675781 524.195312 " style=" stroke:none;fill-rule:nonzero;fill:rgb(13.72549%,12.156863%,12.54902%);fill-opacity:1;" />
<path d="M 241.128906 555.644531 L 408.871094 555.644531 L 408.871094 576.613281 L 241.128906 576.613281 Z M 241.128906 555.644531 " style=" stroke:none;fill-rule:nonzero;fill:rgb(13.72549%,12.156863%,12.54902%);fill-opacity:1;" />
<path d="M 649.820312 177.355469 C 649.753906 176.644531 649.613281 175.941406 649.402344 175.257812 C 649.074219 173.996094 648.464844 172.824219 647.621094 171.832031 C 647.183594 171.257812 646.683594 170.734375 646.132812 170.269531 C 645.902344 170.082031 645.777344 169.808594 645.523438 169.640625 L 545.160156 99.375 L 545.160156 10.484375 C 545.160156 4.695312 540.46875 0 534.675781 0 L 115.324219 0 C 109.53125 0 104.839844 4.695312 104.839844 10.484375 L 104.839844 99.378906 L 4.476562 169.617188 C 4.226562 169.785156 4.101562 170.058594 3.867188 170.246094 C 3.320312 170.714844 2.820312 171.238281 2.378906 171.808594 C 1.539062 172.804688 0.933594 173.976562 0.597656 175.238281 C 0.386719 175.917969 0.242188 176.621094 0.179688 177.335938 C 0.101562 177.628906 0.0429688 177.925781 0 178.226562 L 0 450.804688 C 0 456.597656 4.695312 461.289062 10.484375 461.289062 L 104.839844 461.289062 L 104.839844 618.546875 C 104.839844 624.339844 109.53125 629.03125 115.324219 629.03125 L 534.679688 629.03125 C 540.46875 629.03125 545.160156 624.339844 545.160156 618.546875 L 545.160156 461.289062 L 639.515625 461.289062 C 645.308594 461.289062 650 456.597656 650 450.804688 L 650 178.226562 C 649.957031 177.933594 649.894531 177.640625 649.820312 177.355469 Z M 606.261719 167.742188 L 545.160156 167.742188 L 545.160156 124.976562 Z M 524.195312 20.96875 L 524.195312 167.742188 L 492.742188 167.742188 L 492.742188 125.804688 C 492.742188 120.015625 488.046875 115.324219 482.257812 115.324219 L 167.742188 115.324219 C 161.953125 115.324219 157.257812 120.015625 157.257812 125.804688 L 157.257812 167.742188 L 125.804688 167.742188 L 125.804688 20.96875 Z M 178.226562 167.742188 L 178.226562 136.289062 L 471.773438 136.289062 L 471.773438 167.742188 Z M 104.839844 167.742188 L 43.738281 167.742188 L 104.839844 124.976562 Z M 524.195312 608.066406 L 125.804688 608.066406 L 125.804688 461.289062 L 157.257812 461.289062 L 157.257812 503.226562 C 157.257812 509.015625 161.953125 513.710938 167.742188 513.710938 L 482.257812 513.710938 C 488.046875 513.710938 492.742188 509.015625 492.742188 503.226562 L 492.742188 461.289062 L 524.195312 461.289062 Z M 471.773438 461.289062 L 471.773438 492.742188 L 178.226562 492.742188 L 178.226562 461.289062 Z M 629.03125 440.324219 L 20.96875 440.324219 L 20.96875 188.710938 L 629.03125 188.710938 Z M 629.03125 440.324219 " style=" stroke:none;fill-rule:nonzero;fill:rgb(13.72549%,12.156863%,12.54902%);fill-opacity:1;" />
<path d="M 136.289062 241.128906 L 199.191406 241.128906 C 204.984375 241.128906 209.675781 236.433594 209.675781 230.644531 C 209.675781 224.855469 204.984375 220.160156 199.191406 220.160156 L 136.289062 220.160156 C 118.921875 220.160156 104.839844 234.242188 104.839844 251.613281 L 104.839844 293.546875 C 104.839844 310.917969 118.917969 325 136.289062 325 L 178.226562 325 C 184.015625 325 188.710938 329.695312 188.710938 335.484375 L 188.710938 377.417969 C 188.710938 383.210938 184.015625 387.902344 178.226562 387.902344 L 115.320312 387.902344 C 109.53125 387.902344 104.839844 392.597656 104.839844 398.386719 C 104.839844 404.175781 109.53125 408.871094 115.320312 408.871094 L 178.226562 408.871094 C 195.59375 408.871094 209.675781 394.789062 209.675781 377.417969 L 209.675781 335.484375 C 209.675781 318.113281 195.597656 304.03125 178.226562 304.03125 L 136.289062 304.03125 C 130.5 304.03125 125.804688 299.339844 125.804688 293.546875 L 125.804688 251.613281 C 125.804688 245.824219 130.5 241.128906 136.289062 241.128906 Z M 136.289062 241.128906 " style=" stroke:none;fill-rule:nonzero;fill:rgb(13.72549%,12.156863%,12.54902%);fill-opacity:1;" />
<path d="M 272.582031 241.128906 L 314.515625 241.128906 C 320.304688 241.128906 325 236.433594 325 230.644531 C 325 224.855469 320.304688 220.160156 314.515625 220.160156 L 272.582031 220.160156 C 243.644531 220.195312 220.195312 243.644531 220.160156 272.582031 L 220.160156 356.453125 C 220.195312 385.386719 243.644531 408.835938 272.582031 408.871094 L 314.515625 408.871094 C 320.304688 408.871094 325 404.175781 325 398.386719 C 325 392.597656 320.304688 387.902344 314.515625 387.902344 L 272.582031 387.902344 C 255.210938 387.902344 241.128906 373.820312 241.128906 356.449219 L 241.128906 272.578125 C 241.128906 255.210938 255.210938 241.128906 272.582031 241.128906 Z M 272.582031 241.128906 " style=" stroke:none;fill-rule:nonzero;fill:rgb(13.72549%,12.156863%,12.54902%);fill-opacity:1;" />
<path d="M 408.871094 220.160156 L 366.9375 220.160156 C 349.566406 220.160156 335.484375 234.242188 335.484375 251.613281 L 335.484375 398.386719 C 335.484375 404.175781 340.179688 408.871094 345.96875 408.871094 C 351.757812 408.871094 356.453125 404.175781 356.453125 398.386719 L 356.453125 325 L 419.355469 325 L 419.355469 398.386719 C 419.355469 404.175781 424.050781 408.871094 429.839844 408.871094 C 435.628906 408.871094 440.324219 404.175781 440.324219 398.386719 L 440.324219 251.613281 C 440.324219 234.242188 426.242188 220.160156 408.871094 220.160156 Z M 356.453125 304.03125 L 356.453125 251.613281 C 356.453125 245.824219 361.144531 241.128906 366.9375 241.128906 L 408.871094 241.128906 C 414.660156 241.128906 419.355469 245.824219 419.355469 251.613281 L 419.355469 304.03125 Z M 356.453125 304.03125 " style=" stroke:none;fill-rule:nonzero;fill:rgb(13.72549%,12.156863%,12.54902%);fill-opacity:1;" />
<path d="M 461.289062 220.160156 C 455.5 220.160156 450.804688 224.855469 450.804688 230.644531 L 450.804688 398.386719 C 450.804688 404.175781 455.5 408.871094 461.289062 408.871094 L 503.226562 408.871094 C 532.160156 408.835938 555.609375 385.386719 555.644531 356.453125 L 555.644531 272.582031 C 555.644531 243.070312 521.824219 220.164062 492.742188 220.164062 L 461.289062 220.164062 Z M 534.675781 272.582031 L 534.675781 356.453125 C 534.675781 373.824219 520.597656 387.90625 503.226562 387.90625 L 471.773438 387.90625 L 471.773438 241.128906 L 492.742188 241.128906 C 511.046875 241.128906 534.675781 256.382812 534.675781 272.582031 Z M 534.675781 272.582031 " style=" stroke:none;fill-rule:nonzero;fill:rgb(13.72549%,12.156863%,12.54902%);fill-opacity:1;" />
</g>
</svg>