<svg xmlns="http://www.w3.org/2000/svg" height="650pt" version="1.1" viewBox="0 -10 650.001 650" width="650pt">
<g id="surface1">
<path d="M 482.257812 178.226562 L 10.484375 178.226562 L 10.484375 450.804688 L 639.515625 450.804688 L 639.515625 178.226562 Z M 178.226562 314.515625 L 220.160156 314.515625 C 231.738281 314.515625 241.128906 323.90625 241.128906 335.484375 L 241.128906 377.417969 C 241.128906 389 231.738281 398.386719 220.160156 398.386719 C 231.738281 398.386719 241.128906 389 241.128906 377.417969 L 241.128906 335.484375 C 241.128906 323.90625 231.738281 314.515625 220.160156 314.515625 L 178.226562 314.515625 C 166.644531 314.515625 157.257812 305.128906 157.257812 293.546875 L 157.257812 251.613281 C 157.257812 240.035156 166.644531 230.644531 178.226562 230.644531 C 166.644531 230.644531 157.257812 240.035156 157.257812 251.613281 L 157.257812 293.546875 C 157.257812 305.128906 166.644531 314.515625 178.226562 314.515625 Z M 325 398.386719 L 283.0625 230.644531 L 325 398.386719 L 366.933594 230.644531 Z M 492.742188 272.582031 L 492.742188 251.613281 C 492.742188 240.035156 483.351562 230.644531 471.773438 230.644531 L 429.839844 230.644531 C 418.257812 230.644531 408.871094 240.035156 408.871094 251.613281 L 408.871094 377.417969 C 408.871094 389 418.257812 398.386719 429.839844 398.386719 L 471.773438 398.386719 C 483.351562 398.386719 492.742188 389 492.742188 377.417969 L 492.742188 314.515625 L 492.742188 377.417969 C 492.742188 389 483.351562 398.386719 471.773438 398.386719 L 429.839844 398.386719 C 418.257812 398.386719 408.871094 389 408.871094 377.417969 L 408.871094 251.613281 C 408.871094 240.035156 418.257812 230.644531 429.839844 230.644531 L 471.773438 230.644531 C 483.351562 230.644531 492.742188 240.035156 492.742188 251.613281 Z M 492.742188 272.582031 " style=" stroke:none;fill-rule:nonzero;fill:rgb(100%,45.098039%,30.980392%);fill-opacity:1;" />
<path d="M 167.742188 450.804688 L 482.257812 450.804688 L 482.257812 503.226562 L 167.742188 503.226562 Z M 167.742188 450.804688 " style=" stroke:none;fill-rule:nonzero;fill:rgb(100%,86.27451%,82.745098%);fill-opacity:1;" />
<path d="M 167.742188 125.804688 L 482.257812 125.804688 L 482.257812 178.226562 L 167.742188 178.226562 Z M 167.742188 125.804688 " style=" stroke:none;fill-rule:nonzero;fill:rgb(100%,86.27451%,82.745098%);fill-opacity:1;" />
<path d="M 209.675781 83.871094 L 440.320312 83.871094 L 440.320312 104.839844 L 209.675781 104.839844 Z M 209.675781 83.871094 " style=" stroke:none;fill-rule:nonzero;fill:rgb(13.72549%,12.156863%,12.54902%);fill-opacity:1;" />
<path d="M 241.128906 52.417969 L 408.871094 52.417969 L 408.871094 73.386719 L 241.128906 73.386719 Z M 241.128906 52.417969 " style=" stroke:none;fill-rule:nonzero;fill:rgb(13.72549%,12.156863%,12.54902%);fill-opacity:1;" />
<path d="M 209.675781 524.195312 L 440.320312 524.195312 L 440.320312 545.160156 L 209.675781 545.160156 Z M 209.675781 524.195312 " style=" stroke:none;fill-rule:nonzero;fill:rgb(13.72549%,12.156863%,12.54902%);fill-opacity:1;" />
<path d="M 241.128906 555.644531 L 408.871094 555.644531 L 408.871094 576.613281 L 241.128906 576.613281 Z M 241.128906 555.644531 " style=" stroke:none;fill-rule:nonzero;fill:rgb(13.72549%,12.156863%,12.54902%);fill-opacity:1;" />
<path d="M 649.820312 177.34375 C 649.757812 176.632812 649.613281 175.929688 649.402344 175.25 C 649.230469 174.617188 648.992188 174.007812 648.699219 173.425781 C 648.402344 172.855469 648.050781 172.316406 647.652344 171.808594 C 647.210938 171.246094 646.714844 170.726562 646.175781 170.257812 C 645.933594 170.070312 645.808594 169.796875 645.554688 169.617188 L 545.160156 99.375 L 545.160156 10.484375 C 545.160156 4.695312 540.464844 0 534.675781 0 L 115.320312 0 C 109.53125 0 104.839844 4.695312 104.839844 10.484375 L 104.839844 99.378906 L 4.476562 169.617188 C 4.222656 169.796875 4.097656 170.070312 3.855469 170.257812 C 3.316406 170.726562 2.820312 171.25 2.378906 171.808594 C 1.980469 172.316406 1.628906 172.855469 1.332031 173.425781 C 1.035156 174.007812 0.800781 174.621094 0.628906 175.25 C 0.414062 175.929688 0.273438 176.632812 0.210938 177.347656 C 0.125 177.636719 0.0546875 177.929688 0 178.226562 L 0 450.804688 C 0 456.597656 4.695312 461.289062 10.484375 461.289062 L 104.839844 461.289062 L 104.839844 618.546875 C 104.839844 624.339844 109.53125 629.03125 115.324219 629.03125 L 534.679688 629.03125 C 540.46875 629.03125 545.160156 624.339844 545.160156 618.546875 L 545.160156 461.289062 L 639.515625 461.289062 C 645.308594 461.289062 650 456.597656 650 450.804688 L 650 178.226562 C 649.957031 177.929688 649.894531 177.636719 649.820312 177.34375 Z M 606.261719 167.742188 L 545.160156 167.742188 L 545.160156 124.976562 Z M 524.191406 20.96875 L 524.191406 167.742188 L 492.742188 167.742188 L 492.742188 125.804688 C 492.742188 120.015625 488.046875 115.324219 482.257812 115.324219 L 167.742188 115.324219 C 161.949219 115.324219 157.257812 120.015625 157.257812 125.804688 L 157.257812 167.742188 L 125.804688 167.742188 L 125.804688 20.96875 Z M 178.226562 167.742188 L 178.226562 136.289062 L 471.773438 136.289062 L 471.773438 167.742188 Z M 104.839844 167.742188 L 43.738281 167.742188 L 104.839844 124.976562 Z M 524.191406 608.066406 L 125.804688 608.066406 L 125.804688 461.289062 L 157.257812 461.289062 L 157.257812 503.226562 C 157.257812 509.015625 161.949219 513.710938 167.742188 513.710938 L 482.257812 513.710938 C 488.046875 513.710938 492.742188 509.015625 492.742188 503.226562 L 492.742188 461.289062 L 524.191406 461.289062 Z M 471.773438 461.289062 L 471.773438 492.742188 L 178.226562 492.742188 L 178.226562 461.289062 Z M 629.03125 440.324219 L 20.96875 440.324219 L 20.96875 188.710938 L 629.03125 188.710938 Z M 629.03125 440.324219 " style=" stroke:none;fill-rule:nonzero;fill:rgb(13.72549%,12.156863%,12.54902%);fill-opacity:1;" />
<path d="M 471.773438 220.160156 L 429.839844 220.160156 C 412.46875 220.160156 398.386719 234.242188 398.386719 251.613281 L 398.386719 377.417969 C 398.386719 394.789062 412.46875 408.871094 429.839844 408.871094 L 471.773438 408.871094 C 489.144531 408.871094 503.226562 394.789062 503.226562 377.417969 L 503.226562 314.515625 C 503.226562 308.726562 498.53125 304.03125 492.742188 304.03125 L 450.804688 304.03125 C 445.015625 304.03125 440.320312 308.726562 440.320312 314.515625 C 440.320312 320.304688 445.015625 325 450.804688 325 L 482.257812 325 L 482.257812 377.417969 C 482.257812 383.210938 477.5625 387.902344 471.773438 387.902344 L 429.839844 387.902344 C 424.050781 387.902344 419.355469 383.210938 419.355469 377.417969 L 419.355469 251.613281 C 419.355469 245.824219 424.050781 241.128906 429.839844 241.128906 L 471.773438 241.128906 C 477.5625 241.128906 482.257812 245.824219 482.257812 251.613281 L 482.257812 272.582031 C 482.257812 278.371094 486.953125 283.066406 492.742188 283.066406 C 498.53125 283.066406 503.226562 278.371094 503.226562 272.582031 L 503.226562 251.613281 C 503.226562 234.242188 489.144531 220.160156 471.773438 220.160156 Z M 471.773438 220.160156 " style=" stroke:none;fill-rule:nonzero;fill:rgb(13.72549%,12.156863%,12.54902%);fill-opacity:1;" />
<path d="M 178.226562 241.128906 L 241.128906 241.128906 C 246.917969 241.128906 251.613281 236.433594 251.613281 230.644531 C 251.613281 224.855469 246.917969 220.160156 241.128906 220.160156 L 178.226562 220.160156 C 160.855469 220.160156 146.773438 234.242188 146.773438 251.613281 L 146.773438 293.546875 C 146.773438 310.917969 160.855469 325 178.226562 325 L 220.160156 325 C 225.949219 325 230.644531 329.695312 230.644531 335.484375 L 230.644531 377.417969 C 230.644531 383.210938 225.949219 387.902344 220.160156 387.902344 L 157.257812 387.902344 C 151.46875 387.902344 146.773438 392.597656 146.773438 398.386719 C 146.773438 404.175781 151.46875 408.871094 157.257812 408.871094 L 220.160156 408.871094 C 237.53125 408.871094 251.613281 394.789062 251.613281 377.417969 L 251.613281 335.484375 C 251.613281 318.113281 237.53125 304.03125 220.160156 304.03125 L 178.226562 304.03125 C 172.433594 304.03125 167.742188 299.339844 167.742188 293.546875 L 167.742188 251.613281 C 167.742188 245.824219 172.433594 241.128906 178.226562 241.128906 Z M 178.226562 241.128906 " style=" stroke:none;fill-rule:nonzero;fill:rgb(13.72549%,12.156863%,12.54902%);fill-opacity:1;" />
<path d="M 369.480469 220.476562 C 363.867188 219.070312 358.171875 222.480469 356.765625 228.097656 L 325 355.164062 L 293.234375 228.097656 C 291.785156 222.492188 286.066406 219.121094 280.460938 220.566406 C 274.910156 222 271.539062 227.625 272.894531 233.195312 L 314.828125 400.933594 C 316.238281 406.550781 321.929688 409.964844 327.546875 408.554688 C 331.296875 407.617188 334.226562 404.6875 335.167969 400.933594 L 377.101562 233.195312 C 378.511719 227.578125 375.097656 221.882812 369.480469 220.476562 Z M 369.480469 220.476562 " style=" stroke:none;fill-rule:nonzero;fill:rgb(13.72549%,12.156863%,12.54902%);fill-opacity:1;" />
</g>
</svg>