<svg xmlns="http://www.w3.org/2000/svg" height="650pt" version="1.1" viewBox="0 -10 650.001 650" width="650pt">
<g id="surface1">
<path d="M 482.257812 178.226562 L 10.484375 178.226562 L 10.484375 450.804688 L 639.515625 450.804688 L 639.515625 178.226562 Z M 199.191406 230.644531 Z M 366.933594 398.386719 L 325 314.515625 L 283.0625 398.386719 L 325 314.515625 L 283.0625 230.644531 L 325 314.515625 L 366.933594 230.644531 L 325 314.515625 Z M 450.804688 230.644531 Z M 450.804688 230.644531 " style=" stroke:none;fill-rule:nonzero;fill:rgb(51.372549%,81.176471%,59.215686%);fill-opacity:1;" />
<path d="M 167.742188 450.804688 L 482.257812 450.804688 L 482.257812 503.226562 L 167.742188 503.226562 Z M 167.742188 450.804688 " style=" stroke:none;fill-rule:nonzero;fill:rgb(87.843137%,95.294118%,89.803922%);fill-opacity:1;" />
<path d="M 167.742188 125.804688 L 482.257812 125.804688 L 482.257812 178.226562 L 167.742188 178.226562 Z M 167.742188 125.804688 " style=" stroke:none;fill-rule:nonzero;fill:rgb(87.843137%,95.294118%,89.803922%);fill-opacity:1;" />
<path d="M 209.675781 83.871094 L 440.320312 83.871094 L 440.320312 104.839844 L 209.675781 104.839844 Z M 209.675781 83.871094 " style=" stroke:none;fill-rule:nonzero;fill:rgb(13.72549%,12.156863%,12.54902%);fill-opacity:1;" />
<path d="M 241.128906 52.417969 L 408.871094 52.417969 L 408.871094 73.386719 L 241.128906 73.386719 Z M 241.128906 52.417969 " style=" stroke:none;fill-rule:nonzero;fill:rgb(13.72549%,12.156863%,12.54902%);fill-opacity:1;" />
<path d="M 209.675781 524.195312 L 440.320312 524.195312 L 440.320312 545.160156 L 209.675781 545.160156 Z M 209.675781 524.195312 " style=" stroke:none;fill-rule:nonzero;fill:rgb(13.72549%,12.156863%,12.54902%);fill-opacity:1;" />
<path d="M 241.128906 555.644531 L 408.871094 555.644531 L 408.871094 576.613281 L 241.128906 576.613281 Z M 241.128906 555.644531 " style=" stroke:none;fill-rule:nonzero;fill:rgb(13.72549%,12.156863%,12.54902%);fill-opacity:1;" />
<path d="M 649.820312 177.34375 C 649.757812 176.632812 649.613281 175.929688 649.402344 175.25 C 649.230469 174.617188 648.992188 174.007812 648.699219 173.425781 C 648.402344 172.855469 648.050781 172.316406 647.652344 171.808594 C 647.210938 171.246094 646.714844 170.726562 646.175781 170.257812 C 645.933594 170.070312 645.808594 169.796875 645.554688 169.617188 L 545.160156 99.375 L 545.160156 10.484375 C 545.160156 4.695312 540.464844 0 534.675781 0 L 115.320312 0 C 109.53125 0 104.839844 4.695312 104.839844 10.484375 L 104.839844 99.378906 L 4.476562 169.617188 C 4.222656 169.796875 4.097656 170.070312 3.855469 170.257812 C 3.316406 170.726562 2.820312 171.25 2.378906 171.808594 C 1.980469 172.316406 1.628906 172.855469 1.332031 173.425781 C 1.035156 174.007812 0.800781 174.621094 0.628906 175.25 C 0.414062 175.929688 0.273438 176.632812 0.210938 177.347656 C 0.125 177.636719 0.0546875 177.929688 0 178.226562 L 0 450.804688 C 0 456.597656 4.695312 461.289062 10.484375 461.289062 L 104.839844 461.289062 L 104.839844 618.546875 C 104.839844 624.339844 109.53125 629.03125 115.324219 629.03125 L 534.679688 629.03125 C 540.46875 629.03125 545.160156 624.339844 545.160156 618.546875 L 545.160156 461.289062 L 639.515625 461.289062 C 645.308594 461.289062 650 456.597656 650 450.804688 L 650 178.226562 C 649.957031 177.929688 649.894531 177.636719 649.820312 177.34375 Z M 606.261719 167.742188 L 545.160156 167.742188 L 545.160156 124.976562 Z M 524.191406 20.96875 L 524.191406 167.742188 L 492.742188 167.742188 L 492.742188 125.804688 C 492.742188 120.015625 488.046875 115.324219 482.257812 115.324219 L 167.742188 115.324219 C 161.949219 115.324219 157.257812 120.015625 157.257812 125.804688 L 157.257812 167.742188 L 125.804688 167.742188 L 125.804688 20.96875 Z M 178.226562 167.742188 L 178.226562 136.289062 L 471.773438 136.289062 L 471.773438 167.742188 Z M 104.839844 167.742188 L 43.738281 167.742188 L 104.839844 124.976562 Z M 524.191406 608.066406 L 125.804688 608.066406 L 125.804688 461.289062 L 157.257812 461.289062 L 157.257812 503.226562 C 157.257812 509.015625 161.949219 513.710938 167.742188 513.710938 L 482.257812 513.710938 C 488.046875 513.710938 492.742188 509.015625 492.742188 503.226562 L 492.742188 461.289062 L 524.191406 461.289062 Z M 471.773438 461.289062 L 471.773438 492.742188 L 178.226562 492.742188 L 178.226562 461.289062 Z M 629.03125 440.324219 L 20.96875 440.324219 L 20.96875 188.710938 L 629.03125 188.710938 Z M 629.03125 440.324219 " style=" stroke:none;fill-rule:nonzero;fill:rgb(13.72549%,12.156863%,12.54902%);fill-opacity:1;" />
<path d="M 241.128906 220.160156 L 157.257812 220.160156 C 151.46875 220.160156 146.773438 224.855469 146.773438 230.644531 C 146.773438 236.433594 151.46875 241.128906 157.257812 241.128906 L 188.710938 241.128906 L 188.710938 398.386719 C 188.710938 404.175781 193.402344 408.871094 199.191406 408.871094 C 204.984375 408.871094 209.675781 404.175781 209.675781 398.386719 L 209.675781 241.128906 L 241.128906 241.128906 C 246.917969 241.128906 251.613281 236.433594 251.613281 230.644531 C 251.613281 224.855469 246.917969 220.160156 241.128906 220.160156 Z M 241.128906 220.160156 " style=" stroke:none;fill-rule:nonzero;fill:rgb(13.72549%,12.156863%,12.54902%);fill-opacity:1;" />
<path d="M 371.621094 221.261719 C 366.441406 218.671875 360.144531 220.773438 357.554688 225.953125 C 357.554688 225.953125 357.554688 225.957031 357.550781 225.960938 L 325 291.074219 L 292.5 225.960938 C 289.910156 220.777344 283.613281 218.675781 278.429688 221.261719 C 273.246094 223.851562 271.144531 230.148438 273.734375 235.332031 L 313.277344 314.515625 L 273.679688 393.703125 C 271.09375 398.882812 273.195312 405.183594 278.378906 407.769531 C 283.558594 410.359375 289.859375 408.253906 292.445312 403.074219 L 325 337.957031 L 357.5 403.074219 C 360.085938 408.253906 366.386719 410.359375 371.566406 407.769531 C 376.75 405.183594 378.851562 398.882812 376.265625 393.703125 L 336.71875 314.515625 L 376.371094 235.332031 C 378.949219 230.148438 376.835938 223.855469 371.648438 221.277344 C 371.640625 221.273438 371.628906 221.265625 371.621094 221.261719 Z M 371.621094 221.261719 " style=" stroke:none;fill-rule:nonzero;fill:rgb(13.72549%,12.156863%,12.54902%);fill-opacity:1;" />
<path d="M 492.742188 220.160156 L 408.871094 220.160156 C 403.078125 220.160156 398.386719 224.855469 398.386719 230.644531 C 398.386719 236.433594 403.078125 241.128906 408.871094 241.128906 L 440.320312 241.128906 L 440.320312 398.386719 C 440.320312 404.175781 445.015625 408.871094 450.804688 408.871094 C 456.597656 408.871094 461.289062 404.175781 461.289062 398.386719 L 461.289062 241.128906 L 492.742188 241.128906 C 498.53125 241.128906 503.226562 236.433594 503.226562 230.644531 C 503.226562 224.855469 498.53125 220.160156 492.742188 220.160156 Z M 492.742188 220.160156 " style=" stroke:none;fill-rule:nonzero;fill:rgb(13.72549%,12.156863%,12.54902%);fill-opacity:1;" />
</g>
</svg>