<svg xmlns="http://www.w3.org/2000/svg" height="650pt" version="1.1" viewBox="0 -10 650.001 650" width="650pt">
<g id="surface1">
<path d="M 482.257812 178.226562 L 10.484375 178.226562 L 10.484375 450.804688 L 639.515625 450.804688 L 639.515625 178.226562 Z M 262.097656 398.386719 L 220.160156 314.515625 L 178.226562 398.386719 L 220.160156 314.515625 Z M 377.417969 356.453125 C 377.417969 333.292969 358.644531 314.515625 335.484375 314.515625 L 293.550781 314.515625 L 293.550781 230.644531 L 335.484375 230.644531 C 358.644531 230.644531 377.417969 249.421875 377.417969 272.582031 C 377.417969 295.742188 358.644531 314.515625 335.484375 314.515625 C 358.644531 314.515625 377.417969 333.292969 377.417969 356.453125 Z M 408.871094 398.386719 Z M 408.871094 398.386719 " style=" stroke:none;fill-rule:nonzero;fill:rgb(90.980392%,40%,49.019608%);fill-opacity:1;" />
<path d="M 377.417969 272.582031 C 377.417969 249.421875 358.644531 230.648438 335.484375 230.648438 L 293.550781 230.648438 L 293.550781 314.515625 L 335.484375 314.515625 C 358.644531 314.515625 377.417969 295.742188 377.417969 272.582031 Z M 377.417969 272.582031 " style=" stroke:none;fill-rule:nonzero;fill:rgb(90.980392%,40%,49.019608%);fill-opacity:1;" />
<path d="M 167.742188 125.804688 L 482.257812 125.804688 L 482.257812 178.226562 L 167.742188 178.226562 Z M 167.742188 125.804688 " style=" stroke:none;fill-rule:nonzero;fill:rgb(96.862745%,80%,83.137255%);fill-opacity:1;" />
<path d="M 167.742188 450.804688 L 482.257812 450.804688 L 482.257812 503.226562 L 167.742188 503.226562 Z M 167.742188 450.804688 " style=" stroke:none;fill-rule:nonzero;fill:rgb(96.862745%,80%,83.137255%);fill-opacity:1;" />
<path d="M 209.675781 83.871094 L 440.320312 83.871094 L 440.320312 104.839844 L 209.675781 104.839844 Z M 209.675781 83.871094 " style=" stroke:none;fill-rule:nonzero;fill:rgb(13.72549%,12.156863%,12.54902%);fill-opacity:1;" />
<path d="M 241.128906 52.417969 L 408.871094 52.417969 L 408.871094 73.386719 L 241.128906 73.386719 Z M 241.128906 52.417969 " style=" stroke:none;fill-rule:nonzero;fill:rgb(13.72549%,12.156863%,12.54902%);fill-opacity:1;" />
<path d="M 209.675781 524.195312 L 440.320312 524.195312 L 440.320312 545.160156 L 209.675781 545.160156 Z M 209.675781 524.195312 " style=" stroke:none;fill-rule:nonzero;fill:rgb(13.72549%,12.156863%,12.54902%);fill-opacity:1;" />
<path d="M 241.128906 555.644531 L 408.871094 555.644531 L 408.871094 576.613281 L 241.128906 576.613281 Z M 241.128906 555.644531 " style=" stroke:none;fill-rule:nonzero;fill:rgb(13.72549%,12.156863%,12.54902%);fill-opacity:1;" />
<path d="M 649.820312 177.355469 C 649.753906 176.644531 649.613281 175.941406 649.402344 175.257812 C 649.074219 173.996094 648.464844 172.824219 647.621094 171.832031 C 647.183594 171.257812 646.683594 170.734375 646.132812 170.269531 C 645.902344 170.082031 645.777344 169.808594 645.523438 169.640625 L 545.160156 99.375 L 545.160156 10.484375 C 545.160156 4.695312 540.46875 0 534.675781 0 L 115.324219 0 C 109.53125 0 104.839844 4.695312 104.839844 10.484375 L 104.839844 99.378906 L 4.476562 169.617188 C 4.226562 169.785156 4.101562 170.058594 3.867188 170.246094 C 3.320312 170.714844 2.820312 171.238281 2.378906 171.808594 C 1.539062 172.804688 0.933594 173.976562 0.597656 175.238281 C 0.386719 175.917969 0.242188 176.621094 0.179688 177.335938 C 0.101562 177.628906 0.0429688 177.925781 0 178.226562 L 0 450.804688 C 0 456.597656 4.695312 461.289062 10.484375 461.289062 L 104.839844 461.289062 L 104.839844 618.546875 C 104.839844 624.339844 109.53125 629.03125 115.324219 629.03125 L 534.679688 629.03125 C 540.46875 629.03125 545.160156 624.339844 545.160156 618.546875 L 545.160156 461.289062 L 639.515625 461.289062 C 645.308594 461.289062 650 456.597656 650 450.804688 L 650 178.226562 C 649.957031 177.933594 649.894531 177.640625 649.820312 177.355469 Z M 606.261719 167.742188 L 545.160156 167.742188 L 545.160156 124.976562 Z M 524.195312 20.96875 L 524.195312 167.742188 L 492.742188 167.742188 L 492.742188 125.804688 C 492.742188 120.015625 488.046875 115.324219 482.257812 115.324219 L 167.742188 115.324219 C 161.953125 115.324219 157.257812 120.015625 157.257812 125.804688 L 157.257812 167.742188 L 125.804688 167.742188 L 125.804688 20.96875 Z M 178.226562 167.742188 L 178.226562 136.289062 L 471.773438 136.289062 L 471.773438 167.742188 Z M 104.839844 167.742188 L 43.738281 167.742188 L 104.839844 124.976562 Z M 524.195312 608.066406 L 125.804688 608.066406 L 125.804688 461.289062 L 157.257812 461.289062 L 157.257812 503.226562 C 157.257812 509.015625 161.953125 513.710938 167.742188 513.710938 L 482.257812 513.710938 C 488.046875 513.710938 492.742188 509.015625 492.742188 503.226562 L 492.742188 461.289062 L 524.195312 461.289062 Z M 471.773438 461.289062 L 471.773438 492.742188 L 178.226562 492.742188 L 178.226562 461.289062 Z M 629.03125 440.324219 L 20.96875 440.324219 L 20.96875 188.710938 L 629.03125 188.710938 Z M 629.03125 440.324219 " style=" stroke:none;fill-rule:nonzero;fill:rgb(13.72549%,12.156863%,12.54902%);fill-opacity:1;" />
<path d="M 262.097656 220.160156 C 256.308594 220.160156 251.613281 224.855469 251.613281 230.644531 L 251.613281 353.976562 L 229.597656 309.828125 C 226.507812 304.648438 219.800781 302.953125 214.621094 306.039062 C 213.0625 306.96875 211.761719 308.273438 210.832031 309.828125 L 188.710938 353.976562 L 188.710938 230.644531 C 188.710938 224.855469 184.015625 220.160156 178.226562 220.160156 C 172.4375 220.160156 167.742188 224.855469 167.742188 230.644531 L 167.742188 398.386719 C 167.738281 404.175781 172.425781 408.875 178.214844 408.882812 C 182.195312 408.886719 185.835938 406.636719 187.609375 403.074219 L 220.160156 337.960938 L 252.714844 403.074219 C 254.488281 406.628906 258.121094 408.875 262.097656 408.871094 C 262.902344 408.871094 263.710938 408.777344 264.496094 408.597656 C 269.234375 407.484375 272.582031 403.253906 272.578125 398.386719 L 272.578125 230.644531 C 272.582031 224.855469 267.886719 220.160156 262.097656 220.160156 Z M 262.097656 220.160156 " style=" stroke:none;fill-rule:nonzero;fill:rgb(13.72549%,12.156863%,12.54902%);fill-opacity:1;" />
<path d="M 387.902344 272.582031 C 387.867188 243.644531 364.421875 220.195312 335.484375 220.164062 L 293.550781 220.164062 C 287.757812 220.164062 283.066406 224.855469 283.066406 230.648438 L 283.066406 398.386719 C 283.066406 404.179688 287.757812 408.871094 293.550781 408.871094 C 299.339844 408.871094 304.03125 404.179688 304.03125 398.386719 L 304.03125 325 L 335.484375 325 C 352.855469 325 366.9375 339.082031 366.9375 356.453125 L 366.9375 398.386719 C 366.9375 404.179688 371.632812 408.871094 377.421875 408.871094 C 383.210938 408.871094 387.90625 404.179688 387.90625 398.386719 L 387.90625 356.453125 C 387.859375 339.890625 379.957031 324.328125 366.613281 314.519531 C 379.957031 304.707031 387.855469 289.144531 387.902344 272.582031 Z M 335.484375 304.03125 L 304.03125 304.03125 L 304.03125 241.128906 L 335.484375 241.128906 C 352.855469 241.128906 366.9375 255.210938 366.9375 272.582031 C 366.9375 289.953125 352.855469 304.03125 335.484375 304.03125 Z M 335.484375 304.03125 " style=" stroke:none;fill-rule:nonzero;fill:rgb(13.72549%,12.156863%,12.54902%);fill-opacity:1;" />
<path d="M 492.742188 387.902344 L 419.355469 387.902344 L 419.355469 230.644531 C 419.355469 224.855469 414.660156 220.160156 408.871094 220.160156 C 403.082031 220.160156 398.386719 224.855469 398.386719 230.644531 L 398.386719 398.386719 C 398.386719 404.175781 403.082031 408.871094 408.871094 408.871094 L 492.742188 408.871094 C 498.53125 408.871094 503.226562 404.175781 503.226562 398.386719 C 503.226562 392.597656 498.53125 387.902344 492.742188 387.902344 Z M 492.742188 387.902344 " style=" stroke:none;fill-rule:nonzero;fill:rgb(13.72549%,12.156863%,12.54902%);fill-opacity:1;" />
</g>
</svg>